<svg width="280" height="310" viewBox="0 0 280 310" fill="none" xmlns="http://www.w3.org/2000/svg">
<rect width="280" height="310" rx="7.65432" fill="url(#paint0_linear)"/>
<path d="M234.945 231.112L224.954 228.423C224.755 228.37 224.551 228.344 224.348 228.344C223.932 228.344 223.52 228.453 223.147 228.656C219.803 230.476 215.987 231.526 211.916 231.526C210.019 231.526 208.066 231.298 206.083 230.813C198.747 229.022 190.936 221.416 189.048 214.074C184.964 198.197 196.782 183.935 211.916 183.936C214.028 183.938 216.206 184.215 218.412 184.804C226.5 186.966 232.84 193.511 234.853 201.672C236.338 207.699 235.528 213.472 233.131 218.314C232.862 218.855 232.783 219.469 232.94 220.054L235.688 230.365C235.796 230.764 235.488 231.135 235.105 231.135C235.052 231.135 234.999 231.128 234.945 231.112Z" fill="#EF4752"/>
<path d="M120.943 184.086C120.322 183.613 120.869 182.89 120.57 182.367C116.792 186.229 114.058 190.614 114.207 196.295C113.909 196.669 114.257 197.167 113.958 197.541C113.958 198.288 113.958 199.036 113.958 199.783C113.66 200.157 114.008 200.655 113.71 201.029C113.66 203.62 112.641 205.937 111.671 208.254C110.379 211.344 108.937 214.359 106.576 216.801C105.78 217.623 105.233 217.573 104.413 216.801C102.549 214.982 100.61 213.238 98.7207 211.469C98.149 211.269 97.801 210.796 97.4033 210.372C95.2655 208.229 93.0284 206.161 90.7415 204.168C90.3686 203.77 89.8963 203.471 89.7223 202.897C89.7223 202.773 89.7472 202.648 89.7969 202.524C91.5618 198.313 92.7301 193.903 94.0724 189.543C96.235 182.491 98.3727 175.44 100.535 168.389C101.927 164.253 103.096 160.067 104.662 156.006C104.935 155.258 105.233 154.536 105.755 153.913C106.203 153.464 106.675 153.589 107.048 153.988C108.415 155.433 109.907 156.728 111.323 158.099C113.685 160.391 115.872 162.858 118.134 165.225C120.023 167.193 122.037 169.112 123.628 171.379C123.653 171.504 123.678 171.628 123.678 171.753C123.131 175.166 122.609 178.605 121.167 181.819C121.192 181.943 121.192 182.068 121.192 182.192C121.217 182.716 121.266 183.214 121.117 183.737C121.092 183.887 121.018 183.986 120.943 184.086Z" fill="#EDEDED"/>
<path d="M152.462 100.643C158.204 104.978 162.803 110.335 166.432 116.564C165.811 117.087 165.264 116.714 164.717 116.415C163.772 115.891 162.878 115.293 161.908 114.82C161.684 114.72 161.436 114.546 161.237 114.77C161.088 114.92 161.138 115.169 161.187 115.368C162.107 118.258 162.405 121.298 162.952 124.263C163.101 126.481 163.748 128.648 163.524 130.866C163.474 133.407 162.728 135.749 161.486 137.942C160.392 139.561 159.025 140.882 157.434 141.978C156.091 142.85 154.55 143.149 153.009 143.299C152.263 143.374 151.567 143.548 150.946 143.996C149.281 144.47 148.038 145.591 146.795 146.687C145.353 148.033 143.862 149.304 141.798 149.528C140.158 149.603 138.517 149.677 136.902 149.279C136.106 149.079 135.584 148.706 135.46 147.833C135.336 146.862 135.037 145.915 134.963 144.918C134.167 140.633 133.347 136.347 132.626 132.037C132.552 131.414 132.676 130.891 133.397 130.741C135.112 130.442 136.802 130.093 138.443 129.495C142.942 127.876 145.651 124.786 146.372 120.027C146.422 119.654 146.472 119.28 146.571 118.931C146.894 116.315 146.994 113.699 147.168 111.058C147.193 110.559 147.217 110.061 147.019 109.588C147.292 108.167 147.391 106.722 147.217 105.277C147.367 104.754 147.839 104.679 148.261 104.555C149.852 104.081 151.07 103.134 151.766 101.59C151.965 101.266 152.04 100.817 152.462 100.643Z" fill="#23286B"/>
<path d="M113.436 106.722C114.107 109.164 114.828 111.556 115.922 113.848C116.618 114.795 116.842 115.966 117.214 117.037C117.836 118.881 118.507 120.7 119.153 122.519C119.849 124.886 120.819 127.178 121.54 129.52C121.689 130.019 121.962 130.517 121.788 131.065C121.39 131.713 120.794 131.464 120.247 131.364C119.8 131.289 119.377 131.165 118.93 131.04C117.538 130.617 116.17 130.143 114.878 129.52C113.734 128.947 112.765 128.225 112.442 126.879C112.293 124.612 112.243 122.344 112.516 120.077C112.591 119.504 112.914 118.632 112.144 118.458C111.497 118.308 111.199 119.13 110.95 119.678C110.528 120.625 110.578 121.697 110.304 122.693C110.08 123.565 109.658 124.213 108.664 124.238C107.097 124.039 105.904 123.067 104.661 122.22C103.12 121.049 101.703 119.728 100.187 118.532C98.6957 117.361 98.2234 117.536 97.7263 119.379C97.6517 119.703 97.5522 120.027 97.3285 120.276C97.2042 120.351 97.1048 120.326 97.0302 120.202C95.5139 115.841 94.0474 111.481 92.4813 107.146C92.2825 106.573 92.5559 106.523 92.8045 106.324C94.7434 106 96.6822 106.249 98.6211 106.224C101.803 106.174 105.009 106.224 108.191 106.199C109.036 106.199 109.857 106.199 110.702 106.049C110.801 106.124 110.901 106.224 111 106.299C111.796 106.772 112.715 106.149 113.436 106.722Z" fill="#E84A47"/>
<path d="M107.009 120.663C106.865 120.693 106.711 120.677 106.569 120.611C105.255 119.995 101.601 118.212 100.563 116.962C99.2907 115.429 99.3741 113.111 100.75 111.785C101.202 111.349 101.737 111.075 102.297 110.958C103.279 110.753 104.338 111.03 105.158 111.764C105.618 110.763 106.477 110.085 107.459 109.879C108.019 109.762 108.618 109.799 109.207 110.017C110.997 110.682 111.998 112.773 111.443 114.687C110.99 116.249 108.351 119.348 107.393 120.439C107.289 120.556 107.154 120.633 107.009 120.663Z" fill="white"/>
<path d="M133.944 89.1566C133.819 89.0569 133.72 88.9573 133.596 88.8576C133.248 88.5835 132.9 88.3095 132.651 87.9357C132.378 87.562 132.104 87.1883 131.88 86.7647C131.383 86.1916 131.632 85.5687 131.781 84.9458C132.179 83.6502 133.248 83.6751 134.267 83.7997C134.863 83.8744 135.41 84.1734 136.131 84.4226C135.783 81.6569 136.355 79.3896 139.288 78.4428C140.034 78.2933 140.779 78.3182 141.525 78.4428C141.649 78.4926 141.774 78.5175 141.873 78.5674C143.414 79.3647 144.732 79.7384 146.497 78.5425C148.783 76.9977 151.195 78.094 152.487 80.6105C152.959 81.5324 153.208 82.5041 153.481 83.4758C153.805 84.5472 153.481 85.8926 155.246 86.2913C156.266 86.5155 156.266 87.9606 156.092 89.0071C155.619 91.7977 153.805 93.6664 151.766 95.3856C151.021 96.0085 150.2 96.5566 149.43 97.1546C149.281 97.329 149.107 97.329 148.908 97.2542C147.764 95.9586 147.739 95.2859 148.833 94.0401C148.883 93.9654 148.957 93.9155 149.007 93.8657C149.554 93.2677 150.151 92.6448 149.728 91.7977C149.305 90.9007 148.435 91.0751 147.64 91.1997C146.273 91.4239 145.105 90.9256 144.085 90.0785C143.514 89.6051 142.992 89.4805 142.271 89.7546C141.426 90.0785 140.531 90.3027 139.611 90.3276C138.816 90.3276 137.995 90.3276 137.2 90.3276C137.001 90.3526 136.802 90.3276 136.603 90.3276C136.23 90.3276 135.833 90.3027 135.46 90.228C135.236 90.1782 135.012 90.0536 134.789 89.9539C134.515 89.6798 134.018 89.6798 133.944 89.1566Z" fill="#23286B"/>
<path d="M120.173 144.495C122.136 143.897 124.1 143.323 126.064 142.726C126.511 142.601 126.934 142.451 127.381 142.476C128.724 141.928 129.668 142.75 130.687 143.373C130.712 144.395 131.284 145.093 131.98 145.79C136.678 150.449 141.103 155.358 145.751 160.067C146.223 160.54 146.72 161.064 146.397 161.811C146.074 162.583 145.328 162.459 144.682 162.459C142.743 162.484 140.804 162.459 138.865 162.459C138.319 162.459 137.797 162.434 137.275 162.608C136.777 162.708 136.255 162.758 135.758 162.559C135.336 161.263 134.491 160.391 133.422 159.519C132.353 158.672 131.185 157.725 130.489 156.479C130.19 155.931 129.867 155.258 129.37 155.034C127.854 154.311 127.257 152.642 125.791 151.82C125.045 151.396 124.548 150.35 123.976 149.552C123.802 149.328 123.702 148.954 123.454 148.88C121.739 148.356 121.565 146.463 120.372 145.491C120.098 145.292 119.974 144.893 120.173 144.495Z" fill="#E3E4E4"/>
<path d="M120.173 144.495C120.695 145.84 121.962 146.687 122.484 148.058C122.683 148.581 123.653 148.157 123.876 148.83C124.199 149.901 125.542 150.25 125.666 151.446C125.691 151.695 125.89 151.845 126.213 151.845C127.033 151.895 127.456 152.343 127.555 153.165C127.605 153.514 127.854 153.689 128.251 153.888C129.469 154.461 130.464 155.333 130.812 156.753C130.886 157.027 131.035 157.401 131.334 157.401C132.402 157.376 132.701 158.099 132.875 158.946C132.9 159.095 133.074 159.32 133.173 159.32C134.963 159.369 134.988 161.537 136.678 161.936C136.156 162.16 135.882 162.285 135.609 162.409C135.534 162.534 135.435 162.609 135.311 162.683C133.72 162.957 132.129 163.057 130.563 163.406C129.295 163.505 128.251 164.303 127.033 164.552C125.964 164.029 125.219 163.107 124.498 162.235C123.404 160.914 122.31 159.569 120.943 158.597C119.327 157.451 118.482 155.682 117.016 154.461C115.524 153.215 114.157 151.82 112.865 150.35C112.169 149.553 111.249 148.78 111.497 147.485C114.207 145.99 117.239 145.392 120.173 144.495Z" fill="#E7E8E8"/>
<path d="M106.004 153.938C104.115 157.65 103.121 161.711 101.778 165.623C101.455 166.545 101.306 167.517 100.784 168.389C99.1185 172.35 97.4779 176.337 95.7876 180.299C93.1279 186.577 90.4682 192.881 87.8333 199.185C87.6344 199.658 87.4356 200.107 86.9384 200.331C85.447 199.783 84.229 198.886 83.4584 197.466C84.4775 194.526 85.795 191.71 86.9881 188.87C90.0704 181.544 93.1528 174.219 96.2599 166.894C97.0056 165.15 97.8011 163.406 98.5468 161.662C99.2925 160.814 99.8394 159.793 100.784 159.145C101.033 158.821 101.306 158.522 101.53 158.173C101.778 157.75 102.126 157.426 102.524 157.152C102.773 156.828 103.046 156.529 103.27 156.18C103.518 155.757 103.866 155.433 104.264 155.159C104.513 154.835 104.786 154.536 105.01 154.187C105.258 153.763 105.581 153.414 106.004 153.165C106.228 153.439 106.178 153.689 106.004 153.938Z" fill="#D8D9DA"/>
<path d="M106.004 153.938C106.004 153.689 106.004 153.439 106.004 153.165C107.396 151.122 108.564 148.855 110.901 147.659C111.075 147.559 111.274 147.509 111.473 147.46C111.821 148.531 112.392 149.478 113.163 150.275C115.077 152.194 117.165 153.988 118.855 156.081C120.048 157.575 121.689 158.522 122.882 159.992C124.15 161.512 125.542 162.907 126.884 164.378C125.716 166.446 124.871 168.663 123.976 170.856C123.877 171.105 123.827 171.429 123.429 171.404C122.335 170.233 121.167 169.112 120.148 167.866C118.632 165.997 116.792 164.427 115.201 162.633C112.542 159.644 109.608 156.903 106.775 154.087C106.526 153.838 106.302 153.788 106.004 153.938Z" fill="#EAEAEB"/>
<path d="M98.5468 161.662C98.7208 163.107 97.7763 164.178 97.2791 165.374C93.9234 173.472 90.493 181.52 87.0627 189.592C85.9441 192.258 84.7758 194.899 83.6075 197.565C83.3093 197.715 83.011 197.59 82.7375 197.491C81.3207 196.644 80.1524 195.448 78.8101 194.501C78.6361 194.376 78.5366 194.202 78.6361 193.953C79.8292 192.483 80.3264 190.639 81.0721 188.945C82.7127 185.083 84.3533 181.221 85.969 177.359C86.2424 176.711 86.4413 176.038 86.6153 175.341C88.579 172.675 90.9156 170.357 93.0285 167.816C94.5697 165.972 96.1605 164.178 97.7265 162.384C97.9751 162.135 98.2734 161.911 98.5468 161.662Z" fill="#DBDBDC"/>
<path d="M137.324 162.359C138.741 161.936 140.183 162.235 141.625 162.185C142.743 162.135 143.862 162.185 144.981 162.16C145.428 162.16 145.95 162.285 146.199 161.761C146.447 161.213 146.074 160.84 145.726 160.466C142.818 157.476 139.835 154.511 137.001 151.446C135.062 149.353 133.099 147.285 131.06 145.292C130.489 144.744 130.538 144.146 130.638 143.473C130.737 143.374 130.837 143.324 130.986 143.299C132.452 143.648 133.969 143.847 135.261 144.694C135.46 145.616 135.758 146.538 135.783 147.46C135.808 148.556 136.405 148.78 137.3 148.955C138.89 149.254 140.481 149.229 142.072 149.179C144.732 151.795 147.367 154.411 149.778 157.252C150.499 158.124 151.493 158.672 152.214 159.544C152.562 159.943 153.034 160.266 153.009 160.889C151.617 161.662 150.002 161.562 148.535 162.11C150.971 162.11 153.407 162.11 155.818 162.11C160.492 162.11 165.19 162.11 169.863 162.11C170.285 162.11 170.782 161.886 171.106 162.409C170.733 162.733 170.285 162.758 169.838 162.758C166.731 162.758 163.599 162.808 160.492 162.733C157.533 162.783 154.551 162.783 151.593 162.733C150.573 162.758 149.554 162.758 148.51 162.733C146.795 162.658 145.055 162.808 143.34 162.733C141.55 162.609 139.736 162.883 137.946 162.658C137.672 162.683 137.449 162.584 137.324 162.359Z" fill="#E1E2E2"/>
<path d="M157.459 141.729C158.751 140.533 160.069 139.362 161.187 137.992C161.734 137.07 162.43 136.721 163.45 137.294C167.601 139.686 171.727 142.053 175.853 144.47C176.201 144.719 176.002 145.143 176.152 145.466C176.326 145.915 176.127 146.388 176.326 146.837C176.375 147.485 176.176 147.833 175.431 147.983C173.691 148.357 171.901 148.506 170.136 148.73C169.714 148.98 169.266 149.079 168.794 148.93C165.413 146.712 161.784 144.868 158.329 142.751C157.931 142.526 157.359 142.402 157.459 141.729Z" fill="#1B205B"/>
<path d="M90.8909 203.919C93.3766 206.236 95.8623 208.553 98.3481 210.87C98.5221 211.02 98.5967 211.269 98.7209 211.468C97.1798 215.754 95.5889 220.015 94.1472 224.325C93.7495 225.521 93.2772 225.097 92.7303 224.699C91.9846 224.126 91.3134 223.503 90.5926 222.88C90.2694 222.456 90.1949 221.983 90.1949 221.46C90.3689 216.452 89.822 211.443 89.9463 206.435C89.9711 205.513 89.8966 204.517 90.8909 203.919Z" fill="#428CFB"/>
<path d="M175.853 144.495C174.61 144.47 173.765 143.573 172.771 143.025C169.738 141.355 166.78 139.586 163.822 137.817C162.853 137.244 162.008 137.095 161.212 138.017C162.231 135.799 163.226 133.557 163.201 131.04C163.872 129.67 164.071 129.62 165.339 130.343C167.949 131.837 170.559 133.357 173.193 134.827C173.715 135.126 174.138 135.475 174.387 136.023C175.132 138.789 175.704 141.604 175.853 144.495Z" fill="#1D225F"/>
<path d="M146.67 146.438C147.516 145.491 148.584 144.819 149.628 144.121C149.952 143.897 150.324 143.672 150.747 143.922C151.095 143.822 151.393 143.996 151.667 144.146C153.258 145.068 154.923 145.89 156.638 146.563C156.986 146.687 157.334 146.837 157.558 147.161C157.732 148.431 158.478 149.279 159.373 150.126C160.69 151.421 161.933 152.792 163.176 154.187C163.549 154.586 164.021 155.034 163.648 155.707C161.883 157.127 160.069 158.398 157.931 159.195C158.055 158.298 157.657 157.625 156.986 157.052C155.47 155.707 154.003 154.212 152.91 152.567C152.114 151.371 150.474 150.973 150.175 149.403C149.032 149.254 148.584 148.282 148.013 147.51C147.665 146.986 147.391 146.438 146.67 146.438Z" fill="#DDDDDE"/>
<path d="M146.671 146.438C147.118 146.538 147.441 146.214 147.839 146.139C147.889 147.41 149.107 148.73 150.449 148.93C150.872 148.979 150.623 149.204 150.573 149.328C150.424 149.777 150.673 150.076 150.971 150.3C153.656 152.293 155.247 155.283 157.782 157.401C158.379 157.899 158.627 158.522 157.956 159.195C156.365 159.942 154.799 160.765 152.985 160.939C151.667 159.245 149.927 157.999 148.51 156.379C146.596 154.187 144.508 152.169 142.495 150.051C142.271 149.802 142.022 149.577 142.022 149.204C143.936 148.855 145.279 147.634 146.671 146.438Z" fill="#DFE0E0"/>
<path d="M140.009 89.9539C139.934 89.9788 139.835 89.9788 139.76 89.9788L136.505 90.3573L136.206 91.4737C136.007 92.0219 135.783 92.57 135.833 93.168C136.106 93.3922 136.007 93.6414 135.957 93.9404C135.634 95.6098 135.684 95.7592 137.324 96.1579C137.871 96.2825 138.045 96.6562 138.294 97.005C139.735 99.0481 141.749 99.671 144.11 99.2973C144.632 99.2226 145.08 99.098 145.527 99.4219C146.372 98.9236 147.292 98.5249 148.162 98.0515C148.535 97.8522 149.107 97.7774 149.032 97.1545C147.988 95.4852 148.013 95.4104 149.43 93.9155C150.051 93.2427 150.598 92.5202 150.126 91.5983C149.629 90.6515 148.734 90.5269 147.764 90.801C146.994 91.0252 146.099 91.0252 145.627 90.5518C143.862 88.7081 141.973 89.3559 140.009 89.9539Z" fill="#F5A8A2"/>
<path d="M146.994 109.588C147.342 109.463 147.541 109.513 147.516 109.961C147.391 112.254 147.342 114.546 147.093 116.813C147.019 117.561 147.317 118.383 146.77 119.056C146.198 118.109 145.552 118.159 144.657 118.732C141.351 120.825 138.02 122.868 134.664 124.911C134.142 125.235 133.819 125.633 133.62 126.206C133.496 126.605 133.471 127.128 132.949 127.328C132.75 127.253 132.651 127.078 132.576 126.879C132.204 124.338 131.756 121.796 131.433 119.255C131.358 118.757 131.209 118.258 131.607 117.835C133.919 117.486 136.255 117.536 138.542 116.888C140.779 116.265 142.793 115.219 144.508 113.724C145.751 112.677 146.447 111.157 146.994 109.588Z" fill="#1D225F"/>
<path d="M125.194 211.768C125.94 211.17 126.86 211.718 127.779 211.369C125.269 210.073 124.473 207.856 124.995 205.314C125.318 203.77 126.313 202.399 128.102 202.025C128.525 201.577 129.097 201.452 129.693 201.452C135.386 201.452 141.103 201.378 146.795 201.502C147.019 201.602 147.417 201.776 147.267 201.901C146.571 202.499 146.745 203.62 145.851 204.069C142.694 204.218 139.537 204.093 136.38 204.118C135.609 204.118 134.814 204.118 134.043 204.118C133.546 204.168 133.049 204.093 132.552 204.093C131.906 204.093 131.234 204.069 130.588 204.069C128.724 204.093 127.68 204.916 127.506 206.411C127.357 207.881 128.227 208.902 130.041 209.351C132.825 209.401 135.609 209.251 138.368 209.351C138.642 209.376 138.915 209.401 139.164 209.525C139.562 211.12 140.929 211.319 142.047 210.92C143.141 210.547 143.937 211.12 144.856 211.12C148.436 211.095 152.04 211.194 155.62 211.07C156.092 211.12 156.589 211.095 157.061 211.12C157.931 211.12 158.801 211.095 159.696 211.12C159.994 211.12 160.268 211.12 160.566 211.12C161.312 211.07 162.082 211.095 162.828 211.12C166.234 211.045 169.639 211.095 173.045 211.095C173.542 211.095 174.138 211.02 174.412 211.668C173.567 212.415 172.572 212.042 171.628 212.091C169.813 212.166 167.998 212.091 166.184 212.091C164.941 212.116 163.673 212.116 162.43 212.091C160.939 212.116 159.448 212.141 157.956 212.091C155.818 212.116 153.681 212.116 151.543 212.091C150.027 212.091 148.535 212.116 147.019 212.091C144.931 212.116 142.868 212.116 140.78 212.091C136.206 212.141 131.657 212.116 127.083 212.116C126.437 212.141 125.766 212.266 125.194 211.768Z" fill="#7FACF1"/>
<path d="M90.8908 203.919C90.2196 204.965 90.3688 206.136 90.3439 207.283C90.2942 212.49 90.7665 217.697 90.5925 222.905C89.1756 221.784 87.7836 220.637 86.3667 219.516C86.0933 218.171 85.9939 216.825 85.969 215.455C85.8945 211.942 86.1679 208.404 85.7453 204.891C85.6707 204.367 85.6956 203.819 85.9939 203.321C87.2367 202.823 88.5045 202.548 89.8219 203.072C90.2445 203.271 90.6422 203.495 90.8908 203.919Z" fill="#428CFB"/>
<path d="M86.6151 175.365C86.8885 175.789 86.8139 176.188 86.6151 176.636C84.3779 181.893 82.1905 187.151 79.9533 192.408C79.6799 193.031 79.6053 193.928 78.6607 194.052C77.9399 194.152 77.7161 193.504 77.2687 193.18C76.2993 192.134 75.0315 191.486 73.9875 190.564C73.7638 190.34 73.3661 190.34 73.2169 190.016C74.6338 189.518 75.2553 188.147 76.175 187.151C79.1827 183.887 82.0413 180.498 84.9745 177.159C85.4965 176.561 85.8694 175.789 86.6151 175.365Z" fill="#DDDDDE"/>
<path d="M97.3039 120.326C97.3537 120.077 97.3785 119.828 97.4282 119.604C97.9751 117.087 98.6214 116.888 100.635 118.557C102.027 119.728 103.369 120.899 104.761 122.095C104.91 122.494 104.637 122.718 104.413 122.943C104.115 123.291 104.115 123.59 104.388 123.939C104.811 124.462 104.687 125.085 104.761 125.683C105.01 127.627 103.916 129.52 104.612 131.464C104.687 131.663 104.513 131.838 104.289 131.937C102.773 131.838 101.654 130.866 100.486 130.044C99.9388 128.972 98.8202 128.399 98.2734 127.278C97.7017 126.082 97.2542 124.861 97.2791 123.516C97.1299 122.469 97.1051 121.398 97.3039 120.326Z" fill="#FDBAB3"/>
<path d="M86.1182 203.246C86.4662 207.731 86.3171 212.216 86.3916 216.701C86.4165 217.623 86.7893 218.544 86.3668 219.466C86.2176 219.367 86.0436 219.267 85.8945 219.167C84.1048 218.046 82.3399 216.9 81.1219 215.081C80.8982 212.565 81.0721 210.048 81.0224 207.532C80.9976 206.386 81.0473 205.215 80.923 204.068C80.8484 203.52 80.8981 202.972 81.5444 202.748C83.0856 202.698 84.6765 202.25 86.1182 203.246Z" fill="#428CFB"/>
<path d="M57.0351 188.346C58.7254 188.695 60.4405 189.019 62.106 189.443C62.7274 189.592 63.2991 189.567 63.9206 189.617C64.1443 189.692 64.3432 189.792 64.4674 190.016C64.5917 190.315 64.6166 190.664 64.6414 190.988C64.6414 193.828 64.6166 196.668 64.89 199.509C64.9397 200.007 64.9149 200.505 64.7906 200.979C64.7409 201.103 64.6663 201.228 64.5917 201.328C64.2686 201.527 63.9206 201.427 63.672 201.228C61.9568 199.733 59.8191 198.786 58.3277 197.017C57.7062 196.369 56.7368 196.021 56.5131 194.999C56.3639 193.255 56.4385 191.486 56.4634 189.717C56.4385 189.194 56.4385 188.621 57.0351 188.346Z" fill="#428CFB"/>
<path d="M170.633 182.292C172.721 183.114 173.914 184.634 173.939 186.902C173.964 189.219 172.771 190.788 170.633 191.636C170.534 191.735 170.409 191.81 170.285 191.835C169.291 192.009 168.272 191.81 167.253 191.984C167.103 192.009 166.979 192.009 166.83 191.984C166.283 191.86 165.711 191.91 165.165 191.91C163.648 191.76 162.107 192.209 160.616 191.611C160.268 191.087 160.268 190.539 160.591 190.016C161.088 189.617 161.685 189.717 162.256 189.717C164.518 189.667 166.755 189.817 169.017 189.642C170.931 189.144 171.727 188.197 171.528 186.578C171.329 185.108 170.285 184.559 168.993 184.26C165.015 184.111 161.038 184.236 157.061 184.186C154.998 184.161 152.91 184.186 150.847 184.186C150.35 184.186 149.852 184.236 149.38 184.011C148.684 183.114 149.33 182.691 150.002 182.317C150.747 181.918 151.642 182.068 152.413 181.794C154.526 181.594 156.638 181.694 158.751 181.694C162.157 181.719 165.537 181.719 168.943 181.744C169.539 181.769 170.211 181.644 170.633 182.292Z" fill="#161B51"/>
<path d="M174.362 136.023C171.702 134.155 168.744 132.759 165.985 131.065C165.811 130.965 165.587 130.916 165.438 130.791C164.568 129.969 163.847 130.044 163.201 131.04C163.474 128.673 162.604 126.406 162.704 124.064C162.405 123.341 162.728 123.067 163.424 123.092C163.723 123.092 163.996 123.217 164.245 123.366C166.805 124.811 169.365 126.306 171.901 127.801C172.945 130.467 173.865 133.183 174.362 136.023Z" fill="#1F2463"/>
<path d="M171.876 127.801C170.484 127.676 169.49 126.705 168.346 126.107C166.83 125.285 165.364 124.388 163.847 123.54C163.3 123.241 162.704 123.067 162.679 124.064C162.256 121.946 161.809 119.828 161.461 117.71C161.337 116.888 161.013 116.14 160.815 115.343C160.715 114.944 160.516 114.496 160.939 114.222C161.287 113.973 161.61 114.247 161.933 114.446C162.952 115.069 163.996 115.642 165.016 116.265C165.463 116.539 165.935 116.639 166.432 116.589C168.719 120.077 170.484 123.839 171.876 127.801Z" fill="#202566"/>
<path d="M123.653 201.552C122.857 201.427 122.137 201.178 121.59 200.555C121.341 200.331 121.117 200.107 120.919 199.858C119.005 197.64 119.676 194.351 122.46 192.134C121.963 191.785 121.242 192.383 120.794 191.785C121.093 191.511 121.465 191.461 121.838 191.461C124.423 191.461 127.009 191.361 129.569 191.586C130.464 192.059 130.041 192.732 129.743 193.28C128.525 195.572 127.307 197.889 126.163 200.206C125.915 200.705 125.865 201.353 125.293 201.652C124.747 201.627 124.175 201.776 123.653 201.552Z" fill="#8AB3F4"/>
<path d="M125.119 219.491C125.641 218.993 126.312 219.342 126.884 219.217C127.182 217.847 126.934 216.427 127.008 215.056C127.033 214.608 126.934 214.159 127.083 213.711C127.456 213.387 127.928 213.412 128.375 213.412C131.259 213.412 134.142 213.387 137.026 213.412C138.567 213.412 138.691 213.537 138.691 215.131C138.691 215.505 138.691 215.879 138.691 216.252C138.691 218.495 138.691 218.495 140.68 219.093C140.829 219.192 140.879 219.342 140.829 219.516C140.431 219.89 139.934 219.84 139.462 219.865C135.137 219.94 130.811 219.89 126.486 219.89C126.064 219.89 125.666 219.865 125.293 219.666C125.219 219.591 125.169 219.541 125.119 219.491Z" fill="#EDEDED"/>
<path d="M121.913 117.112C123.33 117.237 124.697 117.71 126.114 117.586C126.909 117.909 127.779 117.536 128.599 117.81C129.27 117.835 129.917 117.86 130.588 117.885C130.016 119.479 130.29 121.148 130.24 122.793C130.19 123.914 130.389 125.035 130.066 126.132C129.917 126.456 129.618 126.505 129.32 126.431C126.76 125.683 124.1 125.235 121.764 123.79C121.366 121.522 121.341 119.305 121.913 117.112Z" fill="#F6ADA6"/>
<path d="M64.4921 201.278C64.4423 197.466 64.0943 193.629 64.2435 189.817C64.5666 189.642 64.8898 189.692 65.2378 189.767C65.6355 189.792 66.0084 189.817 66.4061 189.841C67.1518 190.116 67.9721 189.792 68.7178 190.016C70.0352 190.041 71.3775 190.066 72.695 190.116C72.3718 190.888 71.6758 190.689 71.1041 190.664C70.0353 190.614 69.7121 191.087 69.8364 192.084C70.1595 194.426 70.085 196.768 70.085 199.135C70.085 199.708 70.1347 200.306 69.7867 200.829C68.0467 201.253 66.2818 201.477 64.4921 201.278Z" fill="#428CFB"/>
<path d="M108.49 106.598C103.692 106.598 98.9196 106.598 94.1222 106.598C93.6996 106.598 93.2025 106.772 92.8296 106.373C97.5028 103.334 102.176 100.269 106.849 97.2293C107.247 96.9553 107.62 96.8556 107.868 97.6031C108.39 99.2724 109.111 100.892 109.509 102.636C108.689 103.085 107.794 103.234 106.924 103.408C103.618 104.056 100.411 105.078 97.1051 105.751C96.9808 105.775 96.8565 105.8 96.8068 105.95C100.237 106.149 103.667 106.025 107.123 106.074C107.57 106.074 108.266 105.775 108.49 106.598Z" fill="#D63B3A"/>
<path d="M112.74 127.004C113.411 128.872 115.176 129.296 116.742 129.994C117.463 130.318 118.209 130.517 118.93 130.791C119.278 131.165 119.303 131.613 119.303 132.062C119.328 133.681 119.328 135.276 119.303 136.895C119.278 137.468 119.278 138.066 118.681 138.44C117.811 138.091 116.966 137.668 116.171 137.169C115.226 136.547 114.232 136.223 113.063 136.248C109.931 136.322 106.799 136.272 103.667 136.272C103.295 136.272 102.822 136.497 102.549 135.998C103.046 135.575 103.643 135.674 104.214 135.674C107.098 135.65 110.006 135.674 112.914 135.674C112.865 135.4 112.566 135.376 112.467 135.151C111.97 134.329 112.268 133.457 112.318 132.61C112.442 131.015 111.895 129.421 112.293 127.826C112.367 127.502 112.343 127.153 112.74 127.004Z" fill="#F8AFA9"/>
<path d="M163.673 155.707C163.599 154.635 162.753 154.013 162.082 153.44C160.715 152.244 159.771 150.649 158.304 149.553C157.583 149.004 157.285 148.182 157.459 147.235C157.931 146.862 158.428 147.111 158.876 147.235C160.69 147.709 162.505 148.058 164.369 148.232C164.916 148.431 165.463 148.407 166.035 148.357C166.905 148.382 167.824 148.207 168.645 148.706C169.142 148.73 169.639 148.73 170.136 148.755C169.887 149.154 169.639 149.578 169.39 149.976C169.191 150.2 169.142 150.524 168.893 150.724C167.899 151.745 166.905 152.792 165.935 153.813C165.239 154.536 164.518 155.184 163.673 155.707Z" fill="#DBDBDC"/>
<path d="M69.7124 200.78C69.7372 197.516 69.787 194.252 69.3892 191.013C69.3147 190.365 69.5384 190.34 70.0107 190.315C70.9055 190.24 71.8253 190.539 72.6704 190.116C72.8444 190.091 72.9936 190.066 73.1676 190.041C73.4658 190.19 73.9133 189.866 74.0873 190.34C74.5099 191.137 74.5347 191.984 74.5596 192.856C74.6093 195.373 74.3856 197.914 74.7336 200.431C74.7833 200.755 74.7336 201.103 74.5844 201.402C74.1867 201.901 73.6647 201.677 73.2173 201.602C72.1484 201.402 71.1044 201.278 70.0355 201.029C69.9112 200.979 69.8118 200.904 69.7124 200.78Z" fill="#428CFB"/>
<path d="M122.659 189.817C122.659 187.923 122.659 186.005 122.659 184.111C122.882 183.837 123.206 183.762 123.554 183.762C125.816 183.737 128.078 183.737 130.34 183.762C130.638 183.762 130.911 183.837 131.16 184.011C131.756 185.955 131.707 187.923 131.185 189.867C130.837 190.166 130.414 190.166 130.016 190.166C128.078 190.141 126.139 190.265 124.175 190.215C123.628 190.215 123.081 190.265 122.659 189.817Z" fill="#EDEDED"/>
<path d="M117.885 225.72C118.233 222.855 120.272 221.584 122.559 221.485C123.329 221.46 124.125 221.46 124.895 221.435C125.02 221.335 125.144 221.26 125.293 221.21C126.412 221.161 127.555 220.912 128.674 221.41C129.096 222.033 129.046 222.705 128.798 223.378C128.425 223.876 127.853 223.802 127.331 223.827C126.014 223.852 124.696 223.827 123.379 223.852C121.564 223.876 120.545 224.649 120.321 226.119C120.123 227.514 120.843 228.411 122.608 229.009C124 229.283 125.392 229.084 126.784 229.134C127.356 229.159 127.953 229.034 128.45 229.433C128.798 230.056 128.848 230.654 128.4 231.252C126.163 231.376 123.926 231.376 121.664 231.252C119.576 230.679 118.283 229.383 117.885 227.215C117.761 226.717 117.786 226.219 117.885 225.72Z" fill="#171C53"/>
<path d="M130.861 143.448C130.787 143.473 130.687 143.473 130.613 143.498C129.544 143.124 128.575 142.452 127.381 142.477C127.133 141.928 126.437 142.153 126.139 141.729C125.94 141.53 125.915 141.305 125.94 141.031C125.989 139.088 126.263 137.145 126.014 135.201C125.965 134.802 126.163 134.404 126.337 134.005C126.387 133.881 126.437 133.781 126.487 133.681C126.661 133.158 126.437 132.46 127.033 132.087C128.649 131.738 130.24 132.062 131.806 132.435C131.881 132.535 131.955 132.71 131.881 132.759C130.812 133.382 131.06 134.279 131.085 135.326C131.135 137.892 131.408 140.458 131.085 143.025C131.06 143.199 130.986 143.349 130.861 143.448Z" fill="#F4A5A0"/>
<path d="M133.869 203.819C137.995 203.794 142.147 203.769 146.273 203.745C147.814 203.147 149.355 203.271 150.896 203.645C151.12 204.318 150.573 204.318 150.25 204.268C149.604 204.168 148.957 204.193 148.311 204.093C148.982 204.243 149.803 203.894 150.25 204.741C150.623 205.489 150.648 206.236 150.573 207.033C150.548 207.332 150.499 207.606 150.449 207.881C150.3 208.728 150.673 209.101 151.518 209.101C153.034 209.101 154.575 209.077 156.092 209.101C158.876 209.052 161.635 209.052 164.419 209.101C168.098 209.126 171.777 208.927 175.455 209.201C175.605 209.251 175.754 209.351 175.878 209.45C176.599 209.625 177.419 209.176 178.065 209.749C177.693 210.098 177.245 210.098 176.798 210.098C172.274 210.098 167.75 210.148 163.201 210.073C157.508 210.148 151.841 210.098 146.149 210.098C145.651 210.098 145.154 210.098 144.682 209.949C143.936 209.699 143.713 209.101 143.688 208.404C143.638 207.532 143.688 206.66 143.663 205.813C143.613 204.517 143.489 204.392 142.246 204.343C141.252 204.318 140.282 204.367 139.288 204.318C137.921 204.343 136.578 204.367 135.211 204.318C134.689 204.392 134.068 204.542 133.869 203.819Z" fill="#E2E3E3"/>
<path d="M112.442 134.827C112.939 135.176 113.461 135.5 114.182 135.998C110.155 135.998 106.352 135.998 102.549 135.998C101.853 134.03 101.181 132.037 100.485 130.068C101.331 129.894 101.679 130.741 102.325 130.965C102.971 131.19 103.593 131.514 104.239 131.813C105.556 131.937 106.725 132.61 107.992 132.834C109.558 133.332 111.224 133.557 112.442 134.827Z" fill="#E84A47"/>
<path d="M108.49 106.598C108.216 106.249 107.818 106.349 107.446 106.349C103.941 106.324 100.461 106.274 96.9557 106.299C96.4586 106.299 96.1852 106.199 95.9366 105.676C99.7149 104.953 103.319 103.732 107.073 103.085C107.868 102.935 108.614 102.536 109.459 102.636C109.981 103.757 110.453 104.903 110.702 106.124C110.155 107.096 109.235 106.398 108.49 106.598Z" fill="#D23A38"/>
<path d="M57.0349 188.347C56.5377 189.617 56.8609 190.938 56.8112 192.233C56.7615 193.255 56.8112 194.277 56.8112 195.298C55.5434 195.223 54.8723 194.152 54.0023 193.454C52.7843 192.532 51.616 191.561 50.4477 190.589C49.8014 189.817 48.5337 189.592 48.3597 188.371C49.1302 187.948 50.0251 187.998 50.8454 187.798C52.0883 187.699 53.3311 187.699 54.5491 187.798C55.3446 188.048 56.2394 187.948 57.0349 188.347Z" fill="#428CFB"/>
<path d="M171.627 211.743C172.547 211.743 173.442 211.743 174.362 211.718C174.461 211.643 174.561 211.568 174.685 211.543C175.083 211.518 175.381 211.668 175.605 212.017C175.605 212.091 175.629 212.141 175.629 212.216C175.033 213.262 176.077 214.558 175.107 215.555C174.983 215.679 174.983 215.978 175.107 216.153C176.176 217.697 175.083 219.392 175.381 220.961C175.207 221.26 174.909 221.136 174.66 221.211C173.79 221.435 172.92 221.26 172.05 221.31C171.429 221.335 171.279 220.936 171.279 220.413C171.255 217.722 171.304 215.031 171.329 212.34C171.279 212.116 171.453 211.917 171.627 211.743Z" fill="#2577DF"/>
<path d="M118.681 138.44C119.178 136.447 118.806 134.429 118.93 132.411C118.955 131.887 118.93 131.339 118.93 130.791C119.874 130.666 120.72 131.663 121.714 131.015C122.286 131.115 122.857 131.165 123.255 131.663C123.081 134.254 123.305 136.846 123.081 139.412C123.056 139.711 123.33 140.184 122.708 140.234C121.266 139.835 119.949 139.188 118.681 138.44Z" fill="#F6ABA5"/>
<path d="M122.683 140.234C123.031 137.892 122.907 135.55 122.882 133.233C122.882 132.734 122.733 132.186 123.205 131.763C124.523 131.289 125.765 131.314 126.884 132.261C126.785 132.859 127.108 133.507 126.635 134.03C126.461 133.831 126.536 133.606 126.511 133.382C126.536 133.606 126.437 133.856 126.635 134.03C126.213 134.802 126.412 135.625 126.412 136.447C126.437 138.216 126.238 139.985 126.138 141.754C124.92 141.38 123.752 140.907 122.683 140.234Z" fill="#F5A8A2"/>
<path d="M173.144 201.751C174.337 201.751 175.555 201.851 176.723 201.751C177.842 201.652 178.24 202.05 178.066 203.147C178.041 203.346 178.066 203.57 178.066 203.77C177.245 204.143 176.35 203.695 175.53 204.068C172 204.318 168.471 204.143 164.941 204.143C164.046 204.143 163.126 204.218 162.231 204.044C161.734 203.471 161.585 202.125 161.983 201.527C165.438 201.328 168.868 201.452 172.323 201.452C172.647 201.452 172.92 201.577 173.144 201.751Z" fill="#87B2F3"/>
<path d="M121.913 117.112C121.913 119.28 121.913 121.423 121.913 123.59C120.67 123.964 119.8 123.167 118.855 122.569C117.786 119.703 116.693 116.838 115.922 113.848C117.588 115.567 119.75 116.365 121.913 117.112Z" fill="#F9B1AA"/>
<path d="M177.295 175.34C177.469 176.312 177.245 177.234 177.047 178.181C176.251 180.074 175.207 181.694 172.895 181.868C172.398 182.068 171.901 181.918 171.404 181.968C170.758 181.868 170.832 181.42 171.13 181.121C171.454 180.797 171.503 180.324 171.826 180C172.05 179.825 172.324 179.751 172.597 179.626C173.79 179.128 174.536 178.256 174.437 176.96C174.337 175.565 173.442 174.742 172.075 174.444C171.702 174.394 171.304 174.394 171.006 174.095C170.708 173.173 170.062 172.924 169.142 172.949C168.073 172.949 168.073 172.899 168.023 172.201C169.738 171.728 171.404 172.301 173.094 172.351C174.735 172.6 175.829 173.571 176.549 174.992C176.674 175.241 176.649 175.59 177.071 175.365C177.146 175.316 177.196 175.291 177.295 175.34Z" fill="#7CABF0"/>
<path d="M122.659 189.816C125.467 189.966 128.301 189.916 131.11 189.841C131.582 189.418 132.179 189.443 132.751 189.443C134.093 189.443 135.46 189.393 136.802 189.468C138.294 189.443 139.81 189.418 141.302 189.468C142.967 189.418 144.608 189.418 146.273 189.468C147.764 189.418 149.256 189.418 150.747 189.468C152.413 189.418 154.053 189.418 155.719 189.468C157.31 189.418 158.901 189.418 160.491 189.468C163.002 189.393 165.537 189.443 168.048 189.443C168.545 189.443 169.042 189.418 169.415 189.891C168.645 190.315 167.8 190.066 167.004 190.091C164.916 190.14 162.803 190.115 160.715 190.14C160.342 190.439 159.895 190.489 159.423 190.489C153.581 190.489 147.74 190.539 141.898 190.464C137.3 190.539 132.701 190.39 128.102 190.713C128.475 191.311 129.022 191.187 129.519 191.187C133.621 191.212 137.697 191.162 141.799 191.212C143.365 191.286 144.956 190.913 146.497 191.486C146.621 191.61 146.646 191.76 146.522 191.909C145.602 192.433 144.608 192.159 143.663 192.208C142.644 192.258 141.625 192.134 140.606 192.183C138.791 192.233 136.951 192.233 135.137 192.183C133.869 192.233 132.601 192.208 131.309 192.208C130.812 192.208 130.315 192.208 129.917 191.86C126.884 191.835 123.877 191.81 120.844 191.785C120.744 189.916 120.744 189.916 122.659 189.816Z" fill="#242969"/>
<path d="M171.081 229.507C171.081 230.056 171.105 230.604 171.105 231.152C171.006 231.202 170.907 231.301 170.782 231.301C165.587 231.276 160.417 231.376 155.222 231.252C154.724 230.629 154.774 230.006 155.172 229.383C155.644 229.034 156.191 229.109 156.713 229.109C160.541 229.109 164.369 229.109 168.197 229.109C169.191 229.109 170.136 229.283 171.081 229.507Z" fill="#202565"/>
<path d="M174.66 211.693C174.561 211.693 174.461 211.718 174.337 211.718C173.964 211.344 173.467 211.493 173.044 211.493C169.589 211.468 166.134 211.493 162.654 211.468C161.933 210.646 162.455 210.173 163.151 209.749C168.122 209.749 173.069 209.749 178.041 209.749C178.041 210.297 178.065 210.87 178.065 211.419C176.972 211.817 175.803 211.518 174.66 211.693Z" fill="#88B2F3"/>
<path d="M171.131 193.828C171.131 195.273 171.205 196.718 171.106 198.163C171.031 199.235 171.329 199.733 172.448 199.559C172.697 199.509 172.945 199.559 173.094 199.808C172.647 200.206 172.1 200.182 171.553 200.182C170.012 200.182 168.496 200.206 166.955 200.182C165.811 200.007 164.618 200.356 163.499 199.932C163.375 199.833 163.325 199.708 163.35 199.559C164.146 198.961 165.09 199.235 165.985 199.21C166.83 199.185 167.278 198.936 167.303 198.014C167.327 197.241 167.526 196.469 167.501 195.672C167.477 194.899 167.104 194.526 166.383 194.476C165.438 194.401 164.494 194.476 163.549 194.426C162.107 194.476 160.641 194.476 159.199 194.426C157.882 194.476 156.564 194.451 155.222 194.451C153.979 194.426 152.736 194.501 151.468 194.451C150.723 194.401 149.977 194.526 149.231 194.426C148.834 194.376 148.262 194.476 148.237 193.778C149.132 193.18 150.151 193.479 151.12 193.429C151.816 193.38 152.512 193.38 153.208 193.429C155.769 193.404 158.354 193.38 160.914 193.429C163.723 193.38 166.532 193.404 169.341 193.404C169.987 193.429 170.633 193.33 171.131 193.828Z" fill="#EDEDED"/>
<path d="M171.13 181.843C171.727 181.843 172.324 181.868 172.92 181.868C172.224 182.367 171.329 181.794 170.633 182.267C170.26 182.217 169.912 182.093 169.54 182.093C163.773 182.093 158.006 182.117 152.239 182.117C150.723 182.068 149.231 182.79 147.715 182.267C147.218 181.644 147.839 181.544 148.137 181.569C149.331 181.644 149.654 180.922 149.803 179.975C150.325 179.651 150.921 179.8 151.493 179.726C152.313 179.726 153.134 179.701 153.929 179.726C154.153 179.726 154.377 179.701 154.625 179.726C156.589 179.75 158.577 179.726 160.541 179.75C161.063 179.75 161.61 179.676 162.107 179.975C162.654 181.445 162.654 181.47 164.394 181.47C166.134 181.47 167.874 181.47 169.614 181.47C170.136 181.495 170.683 181.47 171.13 181.843Z" fill="#88B2F3"/>
<path d="M125.194 211.767C130.389 211.767 135.609 211.742 140.804 211.742C140.133 212.291 140.009 213.312 139.164 213.736C135.211 213.462 131.284 213.686 127.332 213.611C126.611 213.586 125.865 213.761 125.144 213.462C125.169 212.913 125.194 212.34 125.194 211.767Z" fill="#428CFB"/>
<path d="M171.13 193.828C167.725 193.803 164.344 193.803 160.939 193.778C160.914 192.931 161.113 192.184 161.883 191.685C163.027 191.685 164.195 191.685 165.339 191.685C165.861 191.71 166.358 191.611 166.88 191.76C166.979 191.76 167.054 191.76 167.153 191.76C168.222 191.536 169.316 191.86 170.385 191.561C170.459 191.561 170.534 191.586 170.633 191.611C170.981 191.91 171.429 191.785 171.826 191.785C172.572 191.76 173.169 191.735 173.144 192.831C173.119 193.878 172.547 193.828 171.876 193.803C171.628 193.803 171.379 193.828 171.13 193.828Z" fill="#9CC0FA"/>
<path d="M175.356 220.986C175.107 220.139 174.337 219.317 175.406 218.395C175.58 218.246 175.232 217.324 174.983 216.825C174.834 216.526 174.66 216.227 174.735 215.928C174.933 214.982 175.555 214.109 175.008 213.063C174.71 212.515 175.779 212.789 175.629 212.241C177.494 213.063 178.364 214.583 178.339 216.551C178.289 218.619 177.32 220.139 175.356 220.986Z" fill="#2175DC"/>
<path d="M171.13 221.485C171.13 221.609 171.105 221.734 171.13 221.858C171.354 223.079 170.981 223.702 169.639 223.503C169.514 223.602 169.365 223.677 169.216 223.727C166.432 223.877 163.623 224.001 160.839 223.652C160.367 222.93 159.77 222.232 159.895 221.26C161.66 220.937 163.424 221.161 165.189 221.111C166.706 221.086 168.222 221.086 169.738 221.111C170.235 221.136 170.757 221.061 171.13 221.485Z" fill="#212666"/>
<path d="M129.867 126.232C129.867 123.84 129.892 121.448 129.842 119.081C129.817 118.433 130.066 118.109 130.588 117.86C130.936 117.86 131.259 117.86 131.607 117.86C131.98 120.426 132.378 122.992 132.751 125.559C132.825 126.057 132.825 126.531 132.85 127.029C131.707 127.353 130.737 127.054 129.867 126.232Z" fill="#F5A8A2"/>
<path d="M125.144 213.462C129.942 213.462 134.739 213.462 139.561 213.462C139.934 213.163 140.357 213.188 140.779 213.262C141.152 213.412 141.649 213.387 141.848 213.86C141.202 215.081 141.475 216.427 141.401 217.722C141.376 218.271 141.625 218.993 140.804 219.242C138.319 219.242 138.319 219.242 138.319 216.776C138.319 215.804 138.667 214.409 138.169 213.96C137.623 213.462 136.305 213.786 135.311 213.786C132.576 213.786 129.842 213.786 127.133 213.786C127.058 213.91 126.984 213.91 126.884 213.811C126.312 213.636 125.666 214.01 125.144 213.462Z" fill="#E9EAEA"/>
<path d="M160.442 162.409C163.996 162.359 167.551 162.26 171.106 162.459C170.981 163.007 171.354 163.655 170.882 164.153C170.385 164.452 169.788 164.128 169.291 164.377C166.333 164.527 163.4 164.751 160.467 164.253C159.969 163.655 159.994 163.032 160.442 162.409Z" fill="#2074DA"/>
<path d="M166.88 199.808C168.943 199.808 171.031 199.808 173.094 199.783C173.094 200.356 173.094 200.929 173.094 201.502C171.006 201.801 168.918 201.552 166.805 201.627C165.935 201.652 165.065 201.627 164.22 201.627C163.872 201.627 163.449 201.627 163.574 201.153C163.723 200.655 163.797 200.007 164.543 199.957C165.339 199.957 166.134 200.007 166.88 199.808Z" fill="#9EC1FB"/>
<path d="M152.462 100.643C152.313 100.967 152.164 101.291 152.015 101.639C150.946 101.714 150.001 102.113 149.082 102.661C148.361 103.084 147.565 103.109 146.745 103.134C146.248 102.387 146.173 101.49 145.999 100.643C147.267 100.568 148.311 99.8205 149.455 99.4468C149.952 99.2723 150.424 98.9734 150.971 99.1478C151.617 99.4966 152.015 100.095 152.462 100.643Z" fill="#F5A8A2"/>
<path d="M163.673 201.527C166.805 201.527 169.962 201.527 173.094 201.527C173.119 201.602 173.144 201.677 173.144 201.751C169.316 201.776 165.512 201.776 161.684 201.801C161.262 202.225 160.69 202.175 160.168 202.175C156.365 202.2 152.562 202.2 148.783 202.175C148.261 202.175 147.69 202.225 147.267 201.801C141.5 201.801 135.708 201.776 129.942 201.801C129.345 201.801 128.724 201.951 128.127 202.025C127.356 201.527 126.486 201.901 125.666 201.776C124.995 201.677 124.299 202 123.677 201.527C124.249 201.527 124.846 201.502 125.417 201.502C126.238 200.904 127.157 201.178 128.052 201.128C128.922 201.103 129.792 201.079 130.638 201.153C133.446 201.103 136.255 201.103 139.089 201.153C142.644 201.103 146.223 201.103 149.778 201.153C153.954 201.079 158.13 201.128 162.306 201.128C162.778 201.153 163.275 201.128 163.673 201.527Z" fill="#B8D1FA"/>
<path d="M171.081 229.507C168.222 229.483 165.388 229.458 162.53 229.458C160.094 229.458 157.658 229.483 155.222 229.507C154.849 229.831 154.401 229.856 153.929 229.856C149.977 229.856 146 229.906 142.047 229.831C137.946 229.906 133.869 229.856 129.768 229.856C129.27 229.856 128.773 229.831 128.351 229.507C126.785 229.483 125.219 229.483 123.628 229.458C123.18 229.458 122.708 229.582 122.31 229.258C122.658 228.81 123.18 228.835 123.653 228.835C126.039 228.835 128.4 228.785 130.787 228.86C133.596 228.81 136.429 228.81 139.238 228.86C141.003 228.81 142.743 228.81 144.508 228.86C146.994 228.81 149.48 228.81 151.965 228.86C154.7 228.81 157.409 228.81 160.143 228.86C163.151 228.86 166.184 228.71 169.191 228.934C169.341 228.984 169.49 229.059 169.614 229.159C170.111 229.333 170.733 228.835 171.081 229.507Z" fill="#B2B4C6"/>
<path d="M131.11 184.086C128.301 183.986 125.467 183.961 122.658 184.111C122.087 184.111 121.515 184.086 120.943 184.086C120.943 184.011 120.918 183.936 120.918 183.837C121.316 183.463 121.813 183.438 122.31 183.438C124.995 183.438 127.68 183.388 130.364 183.463C136.231 183.388 142.122 183.438 147.988 183.438C148.46 183.438 148.908 183.488 149.281 183.787C155.52 183.787 161.734 183.812 167.973 183.812C168.446 183.812 168.968 183.662 169.39 184.011C169.042 184.46 168.52 184.46 168.023 184.46C165.513 184.46 163.002 184.509 160.491 184.435C158.901 184.46 157.31 184.484 155.719 184.435C154.053 184.484 152.413 184.484 150.747 184.435C149.256 184.484 147.764 184.484 146.273 184.435C144.608 184.484 142.967 184.484 141.301 184.435C139.81 184.484 138.294 184.484 136.802 184.435C135.361 184.484 133.919 184.46 132.502 184.46C132.005 184.484 131.508 184.46 131.11 184.086Z" fill="#262C68"/>
<path d="M151.021 99.123C149.703 99.8206 148.137 100.02 146.919 100.942C146.795 101.042 146.347 100.743 146.049 100.618C145.676 100.294 145.527 99.8705 145.527 99.3722C145.552 98.8489 145.9 98.7493 146.323 98.5499C147.267 98.1264 148.237 97.7775 149.032 97.1048C149.181 97.1048 149.33 97.0799 149.455 97.0799C149.927 97.8025 150.747 98.2509 151.021 99.123Z" fill="#F2A29D"/>
<path d="M146.77 103.134C148.212 102.661 149.654 102.237 150.921 101.39C151.369 101.091 151.592 101.789 152.015 101.664C151.344 103.458 149.952 104.405 148.162 104.903C147.814 105.003 147.416 104.978 147.168 105.327C147.043 104.58 146.919 103.857 146.77 103.134Z" fill="#F5ACA6"/>
<path d="M171.105 170.407C171.105 170.98 171.13 171.553 171.13 172.126C169.962 172.425 168.744 172.126 167.551 172.301C166.755 171.802 166.308 171.204 166.78 170.233C168.247 169.784 169.664 170.308 171.105 170.407Z" fill="#2074DA"/>
<path d="M167.402 172.102C168.644 172.102 169.887 172.126 171.13 172.126C171.801 172.226 172.522 171.902 173.144 172.376C171.404 172.376 169.664 172.376 167.924 172.376C167.501 172.824 166.929 172.749 166.407 172.749C164.841 172.749 163.275 172.774 161.709 172.749C158.776 172.774 155.843 172.774 152.91 172.749C152.313 172.749 151.642 172.874 151.219 172.226C151.319 171.952 151.543 171.877 151.791 171.803C154.675 171.628 157.558 171.728 160.466 171.728C162.281 171.653 164.071 171.703 165.885 171.703C166.407 171.728 166.904 171.827 167.402 172.102Z" fill="#94BAF3"/>
<path d="M171.131 221.485C167.327 221.485 163.524 221.485 159.721 221.51C158.926 222.008 158.13 221.908 157.31 221.584C157.186 221.485 157.136 221.335 157.186 221.186C157.36 221.011 157.583 220.937 157.807 220.887C159.274 220.787 160.74 220.837 162.207 220.837C163.698 220.787 165.19 220.812 166.681 220.837C168.347 220.937 170.037 220.463 171.628 221.186C172.622 221.186 173.641 221.211 174.635 221.211C173.492 221.734 172.274 221.335 171.131 221.485Z" fill="#5695EA"/>
<path d="M171.105 170.407C169.639 170.407 168.147 170.407 166.681 170.407C166.283 170.806 165.786 170.781 165.289 170.781C163.673 170.781 162.082 170.831 160.466 170.756C158.702 170.806 156.937 170.781 155.172 170.756C154.625 170.756 153.979 170.881 153.68 170.183C154.675 169.411 155.818 169.859 156.887 169.759C157.732 169.734 158.577 169.734 159.422 169.759C160.491 169.734 161.56 169.71 162.629 169.759C163.623 169.734 164.593 169.734 165.587 169.759C166.706 169.759 167.849 169.66 168.968 169.834C169.117 169.884 169.241 169.959 169.365 170.058C169.937 170.308 170.633 169.809 171.105 170.407Z" fill="#6DA2E5"/>
<path d="M169.39 170.083L169.266 170.108L169.142 170.083C168.645 169.535 168.744 168.862 168.769 168.215C168.794 167.043 168.645 165.848 168.893 164.676C168.943 164.527 169.042 164.402 169.167 164.328C169.241 164.353 169.316 164.353 169.39 164.377C169.39 166.296 169.39 168.19 169.39 170.083Z" fill="#FDFDFD"/>
<path d="M169.639 229.134L169.515 229.159H169.39C168.719 227.29 168.744 225.396 169.366 223.528C169.44 223.528 169.54 223.528 169.614 223.528C169.639 225.371 169.639 227.265 169.639 229.134Z" fill="#FDFDFD"/>
<path d="M126.884 213.761C126.959 213.761 127.034 213.736 127.133 213.736C127.133 215.181 127.158 216.601 127.133 218.046C127.133 218.445 127.283 218.869 126.884 219.192C126.884 217.399 126.884 215.58 126.884 213.761Z" fill="#FDFDFD"/>
<path d="M178.041 162.185C178.066 162.883 178.141 163.58 177.867 164.228C177.917 163.555 177.643 162.833 178.041 162.185Z" fill="#FDFDFD"/>
<path d="M177.792 166.171C177.817 166.869 177.892 167.567 177.618 168.215C177.668 167.542 177.394 166.819 177.792 166.171Z" fill="#FDFDFD"/>
<path d="M177.544 170.158C177.569 170.856 177.644 171.553 177.37 172.201C177.419 171.528 177.145 170.806 177.544 170.158Z" fill="#FDFDFD"/>
<path d="M178.29 158.198C178.29 158.896 178.39 159.594 178.115 160.242C178.165 159.569 177.891 158.846 178.29 158.198Z" fill="#FDFDFD"/>
<path d="M178.538 154.212C178.538 154.909 178.638 155.607 178.364 156.255C178.414 155.582 178.14 154.86 178.538 154.212Z" fill="#FDFDFD"/>
<path d="M178.787 150.225C178.787 150.923 178.887 151.621 178.612 152.268C178.662 151.596 178.388 150.873 178.787 150.225Z" fill="#FDFDFD"/>
<path d="M179.035 146.239C179.035 146.936 179.135 147.634 178.861 148.282C178.911 147.609 178.637 146.887 179.035 146.239Z" fill="#FDFDFD"/>
<path d="M179.309 142.252C179.284 142.95 179.409 143.648 179.11 144.295C179.159 143.623 178.86 142.9 179.309 142.252Z" fill="#FDFDFD"/>
<path d="M105.009 154.212C104.985 154.71 104.686 154.984 104.264 155.184C104.289 154.685 104.612 154.411 105.009 154.212Z" fill="#FDFDFD"/>
<path d="M103.27 156.205C103.245 156.703 102.947 156.977 102.524 157.177C102.549 156.678 102.872 156.404 103.27 156.205Z" fill="#FDFDFD"/>
<path d="M101.53 158.198C101.505 158.697 101.206 158.971 100.784 159.17C100.809 158.672 101.132 158.398 101.53 158.198Z" fill="#FDFDFD"/>
<path d="M169.341 164.203C169.838 164.203 170.36 164.178 170.857 164.178C170.434 164.602 169.863 164.253 169.39 164.427L169.415 164.402C169.341 164.378 169.291 164.353 169.291 164.303C169.316 164.228 169.316 164.203 169.341 164.203Z" fill="#317EE1"/>
<path d="M113.71 201.029C113.76 200.605 113.536 200.132 113.959 199.783C113.909 200.206 114.134 200.68 113.71 201.029Z" fill="#FDFDFD"/>
<path d="M113.958 197.541C114.008 197.117 113.784 196.644 114.208 196.295C114.158 196.718 114.382 197.192 113.958 197.541Z" fill="#FDFDFD"/>
<path d="M86.8637 200.281C88.032 198.413 88.6783 196.32 89.5483 194.326C92.2577 188.048 94.8926 181.719 97.5524 175.415C98.323 173.596 99.0687 171.753 99.8392 169.934C100.088 169.386 100.212 168.738 100.809 168.414C100.436 170.631 99.5907 172.699 98.9444 174.817C96.3592 183.314 93.7243 191.785 91.0646 200.281C90.7912 201.153 90.5923 202.125 89.8714 202.798C88.5789 202.299 87.5846 201.427 86.8637 200.281Z" fill="#D6D7D8"/>
<path d="M123.404 171.404C124.2 169.51 125.045 167.617 125.815 165.698C126.039 165.125 126.387 164.701 126.884 164.378C128.003 163.879 129.072 163.182 130.364 163.107C130.662 163.381 130.737 163.73 130.737 164.103C130.787 166.47 130.787 168.862 130.737 171.229C130.737 171.528 130.662 171.802 130.513 172.052C130.389 172.226 130.215 172.351 129.991 172.376C128.102 172.45 126.188 172.674 124.324 172.226C123.926 172.126 123.653 171.877 123.429 171.553C123.454 171.528 123.454 171.479 123.404 171.404Z" fill="#418CFB"/>
<path d="M130.364 183.812C127.207 183.837 124.05 183.837 120.894 183.862C120.72 183.264 120.72 182.666 120.918 182.068C121.913 181.844 122.932 182.192 123.926 181.868C126.064 181.794 128.202 181.545 130.339 182.018C130.812 182.591 130.836 183.189 130.364 183.812Z" fill="#242969"/>
<path d="M123.901 182.043C122.907 182.043 121.913 182.043 120.918 182.043C120.893 181.968 120.893 181.918 120.918 181.844C121.813 181.819 122.733 181.819 123.628 181.794C123.702 181.744 123.777 181.719 123.851 181.794C123.901 181.844 123.926 181.893 123.901 181.943C123.926 182.018 123.901 182.043 123.901 182.043Z" fill="#9BBFFA"/>
<path d="M133.099 127.303C133.198 126.157 133.496 125.235 134.64 124.562C138.045 122.569 141.351 120.426 144.732 118.358C146.124 117.511 146.373 117.61 146.795 119.056C146.348 124.064 144.235 127.377 139.412 129.47C137.548 130.268 135.584 130.741 133.571 131.015C132.925 129.844 132.502 128.648 133.099 127.303Z" fill="#1B205B"/>
<path d="M168.644 148.681C167.725 148.681 166.83 148.656 165.91 148.656C165.413 148.456 164.841 148.705 164.344 148.481C161.958 148.556 159.745 147.709 157.459 147.21C155.147 146.289 152.785 145.392 150.747 143.897C150.971 143.124 151.716 143.074 152.238 143.05C154.053 142.925 155.793 142.476 157.434 141.729C158.602 142.8 160.069 143.398 161.386 144.196C163.474 145.466 165.587 146.637 167.7 147.858C168.097 148.083 168.445 148.307 168.644 148.681Z" fill="#191E57"/>
<path d="M131.88 132.759C132.353 132.734 132.924 132.884 132.9 132.112C133.67 136.322 134.441 140.533 135.236 144.744C133.745 144.395 132.278 144.046 130.861 143.473C130.861 141.206 130.861 138.963 130.836 136.696C130.836 135.973 130.961 135.276 130.588 134.553C130.165 133.756 130.911 132.884 131.88 132.759Z" fill="#F2A29D"/>
<path d="M112.442 134.827C110.951 134.229 109.459 133.656 107.968 133.058C107.744 131.912 107.943 130.791 108.067 129.645C108.216 128.175 108.042 126.705 108.067 125.26C108.067 124.836 107.943 124.338 108.465 124.064C109.409 124.039 109.857 123.565 110.031 122.643C110.279 121.373 110.18 119.977 111.025 118.856C111.398 118.358 111.771 117.71 112.492 117.959C113.237 118.183 113.014 118.931 112.939 119.479C112.591 121.996 112.691 124.512 112.715 127.054C112.019 129.072 112.815 131.14 112.566 133.183C112.517 133.681 112.343 134.254 112.442 134.827Z" fill="#FAB3AC"/>
<path d="M108.49 124.039C108.166 125.733 108.539 127.427 108.39 129.097C108.291 130.417 108.316 131.738 107.968 133.033C106.625 132.859 105.382 132.46 104.239 131.788C104.488 131.065 103.667 130.442 104.115 129.62C104.811 128.274 104.065 126.755 104.488 125.334C104.562 125.085 104.562 124.612 104.413 124.512C103.071 123.491 104.189 122.843 104.736 122.095C105.979 122.743 107.098 123.64 108.49 124.039Z" fill="#FBB6AF"/>
<path d="M137.324 162.359C137.498 162.384 137.648 162.409 137.822 162.434C138.269 163.705 137.946 164.975 137.846 166.246C137.772 167.118 137.822 167.94 137.921 168.813C138.045 170.033 138.319 171.354 137.25 172.375C136.156 172.425 135.062 172.699 134.018 172.151C133.745 171.753 133.72 171.304 133.72 170.856C133.695 168.464 133.77 166.072 133.67 163.68C133.621 162.334 134.59 162.608 135.311 162.434C135.386 162.409 135.485 162.384 135.56 162.359C136.156 162.384 136.753 162.359 137.324 162.359Z" fill="#3B87F4"/>
<path d="M135.336 162.459C134.142 162.559 134.018 163.231 134.068 164.328C134.192 166.919 134.118 169.51 134.118 172.101C133.397 172.774 132.502 172.375 131.682 172.475C131.234 172.45 130.737 172.525 130.389 172.101C130.389 169.112 130.389 166.122 130.389 163.132C131.98 162.633 133.645 162.484 135.336 162.459Z" fill="#3E8AF7"/>
<path d="M82.8367 197.316C82.265 198.986 81.6933 200.63 81.1216 202.299C80.5499 203.296 80.0527 203.371 78.7353 202.673C77.9895 201.851 77.7907 200.879 77.7907 199.808C77.7907 197.914 78.0144 195.996 77.0698 194.202C76.8958 193.853 76.6472 193.23 77.4427 193.056C77.8404 193.404 78.2381 193.728 78.6358 194.077C80.0527 195.149 81.4447 196.22 82.8367 197.316Z" fill="#428CFB"/>
<path d="M143.29 162.459C145.03 162.459 146.77 162.434 148.51 162.434C148.51 162.509 148.51 162.658 148.485 162.658C146.87 163.107 147.168 164.427 147.143 165.573C147.143 167.243 147.143 168.887 147.143 170.557C147.143 171.13 147.193 171.728 146.82 172.226C145.055 172.724 143.265 172.525 141.475 172.351C140.804 171.852 140.929 171.105 140.929 170.407C140.904 168.214 141.028 166.022 140.929 163.829C140.879 162.858 141.177 162.434 142.196 162.584C142.544 162.633 142.942 162.633 143.29 162.459Z" fill="#3382ED"/>
<path d="M146.77 172.101C146.77 169.46 146.795 166.819 146.745 164.178C146.72 163.181 146.82 162.459 148.088 162.658C148.212 162.683 148.361 162.509 148.485 162.434C149.48 162.434 150.474 162.434 151.468 162.434C152.04 163.181 151.791 164.054 151.791 164.901C151.791 165.05 151.791 165.25 151.717 165.374C150.772 166.994 151.195 168.389 152.388 169.685C152.686 170.631 152.935 171.578 151.742 172.126C151.568 172.151 151.418 172.176 151.244 172.201C150.971 172.65 150.524 172.5 150.101 172.525C149.007 172.326 147.814 172.849 146.77 172.101Z" fill="#2F7FE9"/>
<path d="M143.29 162.459C143.191 162.534 143.066 162.658 142.992 162.658C141.103 162.334 141.252 163.53 141.277 164.826C141.351 167.268 141.301 169.685 141.301 172.126C140.059 172.724 138.816 172.724 137.573 172.126C137.25 171.603 137.697 171.105 137.647 170.582C137.399 167.866 137.523 165.175 137.797 162.484C139.636 162.459 141.451 162.459 143.29 162.459Z" fill="#3785F1"/>
<path d="M151.518 165.225C151.518 164.278 151.493 163.331 151.493 162.409C154.476 162.409 157.459 162.409 160.442 162.409C160.442 162.982 160.442 163.58 160.442 164.153C160.044 164.577 159.547 164.477 159.05 164.502C157.856 164.502 156.663 164.602 155.47 164.527C154.078 164.427 152.81 164.876 151.518 165.225Z" fill="#2B7CE6"/>
<path d="M171.627 221.21C169.962 221.21 168.321 221.21 166.656 221.21C165.811 220.214 165.985 219.018 166.233 217.922C166.457 216.925 166.556 215.953 166.358 214.981C166.134 213.91 166.581 212.814 166.159 211.742C167.973 211.742 169.813 211.742 171.627 211.742C171.578 214.907 171.379 218.046 171.627 221.21Z" fill="#2779E2"/>
<path d="M157.707 221.211C157.533 221.211 157.384 221.211 157.21 221.236C156.688 221.684 156.042 221.584 155.445 221.559C154.103 221.51 152.736 221.709 151.418 221.41C150.772 220.937 150.871 220.239 150.896 219.591C150.971 219.392 151.145 219.292 151.344 219.217C153.034 218.794 153.755 218.096 153.904 216.776C154.028 215.605 153.457 214.608 152.338 214.06C152.015 213.91 151.642 213.836 151.319 213.636C150.822 212.939 150.747 212.291 151.493 211.718C153.655 211.718 155.793 211.718 157.956 211.718C157.782 214.508 157.881 217.299 157.856 220.089C157.856 220.488 157.906 220.887 157.707 221.211Z" fill="#3282EC"/>
<path d="M157.707 221.21C157.384 218.345 157.707 215.48 157.558 212.639C157.533 212.365 157.832 212.041 157.956 211.767C159.447 211.767 160.939 211.767 162.43 211.767C163.002 213.462 162.43 215.181 162.579 216.9C162.654 217.822 162.604 218.794 162.629 219.74C162.654 220.264 162.604 220.812 162.182 221.235C160.69 221.21 159.199 221.21 157.707 221.21Z" fill="#2F7FE9"/>
<path d="M162.182 221.21C162.381 219.167 162.256 217.149 162.256 215.106C162.256 213.985 162.381 212.864 162.43 211.742C163.673 211.742 164.916 211.742 166.159 211.742C166.408 211.942 166.805 212.166 166.681 212.54C166.408 213.437 166.507 214.334 166.706 215.181C167.029 216.576 166.308 217.872 166.432 219.267C166.482 219.915 166.582 220.563 166.656 221.21C165.165 221.21 163.673 221.21 162.182 221.21Z" fill="#2C7CE6"/>
<path d="M163.176 209.774C162.878 210.297 162.405 210.796 162.679 211.493C161.933 211.493 161.187 211.493 160.442 211.493C160.193 211.194 159.945 211.194 159.696 211.493C158.702 211.493 157.707 211.493 156.713 211.493C156.489 210.945 156.092 211.12 155.719 211.244C155.396 211.618 154.948 211.493 154.551 211.493C151.344 211.493 148.112 211.493 144.906 211.493C144.284 211.493 143.638 211.568 143.265 210.871C143.24 210.821 143.166 210.771 143.141 210.721C142.768 212.091 141.65 211.145 140.929 211.344C139.785 211.668 139.288 211.045 139.313 209.749C141.028 209.027 142.768 209.251 144.508 209.675C150.076 209.699 155.619 209.699 161.187 209.724C161.859 209.749 162.505 209.774 163.176 209.774Z" fill="#83AFF2"/>
<path d="M133.869 203.819C135.659 204.293 137.498 203.919 139.313 204.044C138.84 205.912 139.188 207.881 138.567 209.724C135.584 209.724 132.626 209.724 129.643 209.724C129.966 208.927 130.662 209.226 131.234 209.176C132.701 209.101 132.725 209.101 132.75 207.606C132.75 206.336 132.825 205.065 132.377 203.819C132.875 203.819 133.372 203.819 133.869 203.819Z" fill="#DCDDDE"/>
<path d="M147.267 201.801C152.065 201.801 156.887 201.801 161.684 201.801C162.554 202.349 162.331 203.047 161.933 203.745C161.013 204.467 159.944 203.969 158.975 204.143C157.881 204.193 156.787 204.143 155.694 204.143C154.55 204.193 153.407 204.168 152.263 204.143C151.816 204.143 151.344 204.143 150.996 203.794C149.43 203.77 147.839 203.745 146.273 203.745C145.85 202.723 146.521 202.25 147.267 201.801Z" fill="#83AFF2"/>
<path d="M132.353 203.819C132.85 204.168 133.148 204.567 133.099 205.239C133.024 206.361 133.049 207.457 133.099 208.578C133.124 209.251 132.875 209.525 132.179 209.525C131.334 209.55 130.464 209.301 129.643 209.699C127.829 209.276 126.884 207.756 127.133 206.161C127.381 204.616 128.575 203.769 130.513 203.769C131.135 203.769 131.756 203.794 132.353 203.819Z" fill="#DADADB"/>
<path d="M138.567 209.7C138.667 207.781 138.194 205.788 139.313 204.019C140.556 204.019 141.774 204.044 143.017 204.019C143.762 203.994 144.061 204.343 144.036 205.065C144.011 206.211 144.061 207.382 144.011 208.528C144.011 209.002 144.086 209.425 144.508 209.7C142.768 209.724 141.053 209.749 139.313 209.774C139.064 209.749 138.816 209.724 138.567 209.7Z" fill="#E0E0E1"/>
<path d="M140.829 213.536C140.407 213.511 139.984 213.487 139.561 213.462C139.437 212.49 139.86 211.942 140.804 211.767C142.867 211.767 144.956 211.767 147.019 211.767C147.69 212.365 147.615 212.988 147.168 213.686C146.894 213.835 146.621 213.86 146.323 213.885C144.483 213.885 142.644 213.91 140.829 213.536Z" fill="#3C89F6"/>
<path d="M147.267 213.462C147.118 212.913 147.292 212.291 147.018 211.767C148.51 211.767 150.001 211.767 151.493 211.767C151.07 212.291 151.194 212.889 151.244 213.462C149.927 214.085 148.584 214.085 147.267 213.462Z" fill="#3785F1"/>
<path d="M155.719 211.244C155.868 210.746 156.291 210.821 156.614 210.895C156.987 210.97 156.788 211.269 156.713 211.493C156.39 211.419 156.042 211.344 155.719 211.244Z" fill="#88B2F3"/>
<path d="M159.696 211.494C159.721 211.219 159.721 210.871 160.118 210.92C160.392 210.945 160.417 211.244 160.442 211.494C160.193 211.494 159.944 211.494 159.696 211.494Z" fill="#88B2F3"/>
<path d="M77.4677 193.056C77.0203 193.355 77.2192 193.728 77.3932 194.027C78.3875 195.697 78.2135 197.541 78.1637 199.334C78.1389 200.481 78.288 201.552 78.9343 202.524C77.9152 203.097 76.9706 202.424 76.0011 202.324C75.4543 202.1 74.7831 202.175 74.46 201.527C73.9877 197.815 74.3606 194.052 74.1368 190.34C75.2306 191.237 76.4734 191.959 77.4677 193.056Z" fill="#428CFB"/>
<path d="M75.9265 202.05C76.9208 202.225 77.9151 202.374 78.9094 202.548C79.6799 202.872 80.4505 203.097 81.1217 202.299C80.9228 202.872 81.42 202.847 81.7183 203.022C81.3205 203.072 81.1217 203.271 81.1714 203.695C81.6685 207.581 81.246 211.493 81.3951 215.405C79.4811 213.96 77.6665 212.415 75.9016 210.821C75.6282 209.276 75.8519 207.706 75.8022 206.161C75.7773 205.214 75.8271 204.268 75.6779 203.346C75.6033 202.872 75.5536 202.399 75.9265 202.05Z" fill="#428CFB"/>
<path d="M69.7124 200.78C69.7869 200.78 69.8864 200.78 69.9609 200.78C70.5824 200.929 70.8061 201.378 70.8061 201.976C70.8061 203.296 70.9304 204.617 70.7067 205.937C70.2841 206.809 69.7621 206.286 69.3395 205.962C67.8232 204.791 66.3069 203.595 64.8652 202.324C64.542 202.05 64.1194 201.826 64.2189 201.303C64.3183 201.303 64.4177 201.303 64.4923 201.278C66.2075 200.829 67.9475 200.73 69.7124 200.78Z" fill="#428CFB"/>
<path d="M160.442 184.086C163.425 184.061 166.407 184.061 169.39 184.036C171.031 184.41 171.901 185.382 171.926 186.902C171.951 188.471 171.081 189.493 169.39 189.891C166.407 189.867 163.425 189.867 160.442 189.842C159.82 187.923 159.82 186.005 160.442 184.086Z" fill="#D5D6D7"/>
<path d="M130.364 183.812C130.364 183.264 130.364 182.691 130.364 182.143C130.663 181.769 131.085 181.769 131.483 181.769C135.162 181.744 138.816 181.644 142.495 181.744C143.762 181.694 145.005 181.719 146.273 181.719C146.72 181.719 147.168 181.719 147.541 182.043C149.107 182.068 150.673 182.093 152.239 182.143C151.642 182.591 150.872 182.242 150.225 182.566C149.654 182.84 149.206 183.089 149.306 183.812C142.992 183.812 136.678 183.812 130.364 183.812Z" fill="#222961"/>
<path d="M141.823 190.116C148.112 190.116 154.401 190.116 160.715 190.116C160.715 190.589 160.715 191.087 160.715 191.561C160.292 192.009 159.721 191.91 159.199 191.91C155.495 191.91 151.791 191.91 148.063 191.91C147.541 191.91 146.969 191.959 146.546 191.561C144.98 191.561 143.389 191.561 141.823 191.561C141.426 191.087 141.401 190.589 141.823 190.116Z" fill="#1A1F5A"/>
<path d="M146.522 191.561C151.245 191.561 155.967 191.561 160.69 191.561C162.256 191.561 163.847 191.561 165.413 191.561C165.488 191.611 165.513 191.66 165.488 191.685C165.463 191.735 165.438 191.76 165.413 191.76C164.17 191.785 162.928 191.81 161.685 191.835C161.262 192.184 160.765 192.184 160.268 192.184C158.18 192.184 156.067 192.233 153.979 192.159C151.941 192.233 149.927 192.184 147.889 192.184C147.392 192.184 146.87 192.209 146.522 191.76C146.522 191.71 146.522 191.635 146.522 191.561Z" fill="#212666"/>
<path d="M170.385 191.586C169.341 192.059 168.222 191.76 167.153 191.785C168.222 191.337 169.316 191.66 170.385 191.586Z" fill="#212666"/>
<path d="M165.413 191.785C165.413 191.71 165.413 191.635 165.413 191.586C165.91 191.66 166.432 191.411 166.905 191.785C166.407 191.785 165.91 191.785 165.413 191.785Z" fill="#1A1F5A"/>
<path d="M130.613 201.527C128.873 201.527 127.133 201.527 125.393 201.527C125.343 200.954 125.666 200.505 125.915 200.032C127.083 197.74 128.276 195.423 129.469 193.13C129.668 192.732 129.917 192.333 129.867 191.86C131.607 191.86 133.347 191.86 135.087 191.86C135.435 192.233 135.36 192.632 135.186 193.031C133.894 195.846 132.378 198.562 130.886 201.278C130.812 201.377 130.687 201.452 130.613 201.527Z" fill="#8DB5F5"/>
<path d="M125.169 221.211C125.169 220.637 125.144 220.064 125.144 219.491C129.942 219.491 134.739 219.516 139.537 219.516C139.984 220.139 139.984 220.737 139.512 221.335C139.363 221.435 139.213 221.51 139.064 221.51C135.584 221.51 132.079 221.784 128.599 221.36C127.456 221.235 126.312 221.51 125.169 221.211Z" fill="#428CFB"/>
<path d="M140.804 219.242C141.351 217.897 140.978 216.476 141.028 215.106C141.053 214.433 141.252 214.035 141.799 213.761C141.824 213.736 141.873 213.711 141.898 213.711C144.409 213.412 144.409 213.412 144.409 215.903C144.409 216.227 144.434 216.551 144.409 216.9C144.359 217.921 144.309 218.918 145.726 219.068C145.95 219.093 146.174 219.292 145.95 219.616C144.21 220.014 142.495 220.239 140.804 219.466C140.804 219.367 140.804 219.292 140.804 219.242Z" fill="#E7E7E7"/>
<path d="M140.804 219.442C142.544 219.442 144.285 219.442 146 219.442C146.422 219.093 146.895 219.143 147.367 219.317C147.814 220.065 147.914 220.787 147.267 221.46C146.323 221.684 145.378 221.535 144.434 221.584C143.265 221.584 142.122 221.584 140.978 221.584C140.481 221.584 139.984 221.659 139.586 221.236C139.586 220.663 139.586 220.114 139.586 219.541C139.984 219.491 140.382 219.467 140.804 219.442Z" fill="#3C89F6"/>
<path d="M164.344 148.506C164.866 148.531 165.413 148.307 165.91 148.681C165.364 148.705 164.842 148.755 164.344 148.506Z" fill="#1B205B"/>
<path d="M70.433 206.361C70.433 204.891 70.433 203.42 70.4827 201.95C70.5076 201.452 70.3336 201.103 69.9856 200.779C71.5019 200.854 72.9685 201.203 74.4599 201.527C74.9571 201.701 75.4542 201.851 75.9514 202.025C76.3242 204.442 76.1751 206.909 76.1999 209.35C76.1999 209.849 76.1999 210.347 75.9265 210.796C75.7028 210.696 75.4791 210.596 75.2554 210.497C73.5651 209.649 72.2476 208.279 70.781 207.108C70.5573 206.934 70.3833 206.684 70.433 206.361Z" fill="#428CFB"/>
<path d="M131.11 184.086C133.024 183.961 134.913 183.986 136.827 184.086C137.449 186.004 137.449 187.898 136.827 189.817C134.913 189.916 133.024 189.941 131.11 189.817C131.11 187.923 131.11 186.004 131.11 184.086Z" fill="#E8E8E9"/>
<path d="M130.861 229.184C128.028 229.208 125.169 229.233 122.335 229.258C120.645 228.885 119.725 227.639 119.924 225.969C120.098 224.499 121.316 223.503 122.932 223.478C124.821 223.453 126.71 223.453 128.599 223.428C129.37 222.955 130.141 222.979 130.911 223.453C131.383 225.346 131.557 227.265 130.861 229.184Z" fill="#DADADB"/>
<path d="M130.861 223.503C130.116 223.478 129.37 223.453 128.624 223.428C128.624 222.78 128.624 222.157 128.624 221.509C128.997 221.21 129.42 221.36 129.817 221.36C133.646 221.335 137.474 221.36 141.302 221.36C141.376 221.36 141.451 221.36 141.55 221.36C141.674 221.36 141.848 221.509 141.824 221.509C140.879 222.232 142.793 222.979 141.799 223.702C140.929 223.926 140.059 223.827 139.189 223.827C136.852 223.901 134.491 223.852 132.154 223.852C131.682 223.852 131.234 223.827 130.861 223.503Z" fill="#1A1F59"/>
<path d="M128.376 229.483C132.925 229.483 137.498 229.483 142.047 229.483C142.519 230.056 142.445 230.629 142.047 231.227C137.498 231.351 132.925 231.351 128.376 231.227C128.376 230.629 128.376 230.056 128.376 229.483Z" fill="#1A1F5A"/>
<path d="M141.799 221.51C137.399 221.51 133.024 221.51 128.624 221.51C127.456 221.485 126.288 221.46 125.144 221.435C125.144 221.36 125.169 221.285 125.194 221.211C129.991 221.211 134.789 221.211 139.586 221.211C141.252 221.211 142.892 221.235 144.558 221.235C144.632 221.385 144.607 221.534 144.433 221.609C143.539 221.908 142.644 222.008 141.799 221.51Z" fill="#68A3FA"/>
<path d="M158.975 203.819C159.969 203.794 160.939 203.769 161.933 203.745C166.482 203.769 171.056 203.794 175.605 203.819C175.605 205.713 175.605 207.606 175.605 209.5C171.876 209.5 168.148 209.5 164.419 209.525C163.773 208.528 164.046 207.457 164.17 206.386C164.369 204.542 164.295 204.417 162.405 204.417C161.635 204.417 160.839 204.467 160.069 204.392C159.621 204.342 159.099 204.442 158.975 203.819Z" fill="#EDEDED"/>
<path d="M158.975 203.819C160.342 204.268 161.759 203.969 163.126 204.019C164.618 204.068 164.941 204.318 164.618 205.813C164.344 207.058 164.469 208.279 164.419 209.525C161.61 209.525 158.776 209.525 155.967 209.525C155.545 209.052 155.57 208.454 155.594 207.881C155.644 206.535 155.42 205.165 155.719 203.819C156.812 203.819 157.881 203.819 158.975 203.819Z" fill="#E9E9E9"/>
<path d="M155.719 203.819C156.241 205.688 155.818 207.631 155.967 209.525C154.352 209.525 152.736 209.475 151.145 209.55C150.151 209.6 149.877 209.176 150.026 208.304C150.076 207.93 150.175 207.582 150.225 207.208C150.573 205.215 150.001 204.417 147.938 204.143C149.007 203.794 150.051 204.318 150.971 203.794C152.562 203.819 154.153 203.819 155.719 203.819Z" fill="#E5E5E5"/>
<path d="M126.686 134.155C126.362 133.632 126.337 133.333 126.512 132.984C126.761 133.333 126.562 133.706 126.686 134.155Z" fill="#F4A5A0"/>
<path d="M172.348 174.194C173.989 174.842 174.884 175.938 174.834 177.209C174.784 178.455 173.964 179.427 172.647 179.875C169.763 180.423 166.855 180.349 163.947 179.975C163.549 179.601 163.524 179.078 163.549 178.604C163.599 177.184 163.35 175.739 163.673 174.319C164.17 173.92 164.767 174.045 165.339 174.045C167.675 174.02 170.012 173.995 172.348 174.194Z" fill="#D5D6D7"/>
<path d="M172.348 174.194C171.503 174.618 170.584 174.369 169.689 174.369C167.675 174.418 165.662 174.394 163.673 174.394C162.878 175.016 161.933 174.717 161.063 174.767C159.746 174.842 159.646 174.942 159.572 176.287C159.497 177.483 159.87 178.754 159.249 179.9C157.683 180.174 156.067 179.8 154.476 180.099C154.302 180.099 154.128 180.099 153.979 180.099C153.382 179.327 153.656 178.43 153.631 177.583C153.606 176.935 153.457 176.262 153.482 175.614C153.507 175.066 153.705 174.568 154.203 174.244C155.371 173.796 156.614 174.269 157.782 173.87C158.776 173.696 159.795 173.796 160.815 173.771C163.797 173.696 166.78 173.746 169.763 173.746C170.26 173.746 170.758 173.771 171.18 174.12C171.528 174.12 171.951 174.144 172.348 174.194Z" fill="#DBDCDD"/>
<path d="M171.13 174.095C167.65 174.095 164.17 174.095 160.69 174.095C160.143 172.999 161.063 172.774 161.684 172.376C163.747 172.376 165.835 172.376 167.899 172.376C168.445 172.849 169.092 172.65 169.663 172.6C170.832 172.525 171.304 172.974 171.13 174.095Z" fill="#80ADF1"/>
<path d="M171.131 181.843C168.545 181.843 165.96 181.843 163.35 181.843C161.759 181.843 161.635 181.669 162.182 180.124C162.406 179.825 162.729 179.751 163.077 179.775C165.886 180.174 168.719 179.875 171.553 179.975C171.702 179.975 171.777 180.05 171.876 180.124C172.15 180.922 171.056 181.146 171.131 181.843Z" fill="#80ADF2"/>
<path d="M171.876 180.149C168.644 180.149 165.413 180.149 162.181 180.149C159.621 180.124 157.036 180.124 154.476 180.099C156.017 179.601 157.633 180 159.199 179.875C160.765 179.252 162.355 179.252 163.922 179.875C166.83 179.875 169.738 179.875 172.646 179.875C172.448 180.149 172.149 180.099 171.876 180.149Z" fill="#D6DCE5"/>
<path d="M146.522 191.785C149.007 191.81 151.493 191.835 153.979 191.86C154.501 192.806 153.929 193.305 153.233 193.778C151.568 193.803 149.927 193.828 148.262 193.828C148.137 194.102 147.938 194.301 147.69 194.476C146.696 195.173 146.099 196.046 146.422 197.316C146.745 198.587 147.665 199.21 148.883 199.434C149.256 199.459 149.629 199.459 149.977 199.658C150.648 200.381 150.3 200.954 149.753 201.527C146.198 201.527 142.619 201.527 139.064 201.527C138.368 200.381 138.517 199.608 139.562 198.986C139.81 198.836 140.108 198.687 140.158 198.413C140.258 197.565 140.904 196.992 141.152 196.22C141.177 196.095 141.227 195.996 141.277 195.896C142.122 194.451 141.898 193.305 140.581 192.283C140.432 192.184 140.432 192.009 140.581 191.86C142.544 191.835 144.533 191.81 146.522 191.785Z" fill="#93BAF7"/>
<path d="M140.556 191.86C141.127 192.184 141.699 192.233 141.749 193.28C141.774 193.878 142.122 194.551 141.997 195.323C141.898 195.821 141.6 195.871 141.277 196.045C140.779 195.572 141.127 194.999 140.978 194.526C141.078 195.049 140.63 195.672 141.277 196.045C141.351 196.444 141.724 196.868 141.003 197.092C140.73 197.192 140.581 197.69 140.581 198.064C140.581 198.761 140.208 199.11 139.561 199.309C138.94 199.484 138.841 200.182 139.089 201.552C136.28 201.552 133.447 201.552 130.638 201.552C131.682 198.736 133.422 196.245 134.665 193.504C134.888 192.981 135.211 192.483 135.112 191.86C136.902 191.86 138.741 191.86 140.556 191.86Z" fill="#8FB7F6"/>
<path d="M141.302 184.086C142.967 183.986 144.608 183.986 146.273 184.086C146.895 186.005 146.895 187.898 146.273 189.817C144.608 189.916 142.967 189.916 141.302 189.817C140.68 187.923 140.68 186.005 141.302 184.086Z" fill="#E2E3E3"/>
<path d="M150.747 184.086C152.413 184.086 154.054 184.086 155.719 184.086C156.34 186.005 156.34 187.898 155.719 189.817C154.054 189.916 152.413 189.916 150.747 189.817C150.126 187.923 150.126 186.005 150.747 184.086Z" fill="#DCDCDD"/>
<path d="M155.719 189.841C155.719 187.923 155.719 186.029 155.719 184.111C157.285 184.111 158.876 184.111 160.442 184.111C160.442 186.029 160.442 187.923 160.442 189.841C158.876 189.841 157.285 189.841 155.719 189.841Z" fill="#D9DADB"/>
<path d="M141.302 184.086C141.302 186.005 141.302 187.923 141.302 189.817C139.81 189.916 138.319 189.916 136.827 189.817C136.827 187.898 136.827 186.005 136.827 184.086C138.319 184.086 139.81 184.086 141.302 184.086Z" fill="#E6E6E6"/>
<path d="M150.747 184.086C150.747 186.005 150.747 187.923 150.747 189.817C149.256 189.916 147.764 189.916 146.273 189.817C146.273 187.898 146.273 186.005 146.273 184.086C147.764 184.086 149.256 184.086 150.747 184.086Z" fill="#DFE0E0"/>
<path d="M141.824 190.116C141.824 190.589 141.824 191.087 141.799 191.561C137.374 191.561 132.95 191.561 128.55 191.561C128.053 191.561 127.431 191.76 127.382 190.863C127.357 189.916 128.003 190.066 128.55 190.066C132.974 190.091 137.399 190.116 141.824 190.116Z" fill="#222763"/>
<path d="M142.047 231.227C142.047 230.654 142.047 230.081 142.047 229.483C146.447 229.483 150.822 229.483 155.222 229.483C155.222 230.056 155.222 230.629 155.222 231.227C150.822 231.326 146.447 231.351 142.047 231.227Z" fill="#1D225F"/>
<path d="M150.001 199.808C149.604 199.783 149.181 199.783 148.783 199.758C149.131 198.886 149.877 199.285 150.474 199.185C151.095 199.16 151.717 199.185 152.313 199.185C153.755 199.185 153.755 199.16 154.003 197.69C154.103 197.067 154.128 196.469 154.128 195.846C154.128 195.024 154.451 194.401 155.221 194.077C156.539 194.077 157.881 194.077 159.199 194.077C159.671 194.625 159.571 195.298 159.547 195.946C159.522 196.519 159.373 197.067 159.348 197.665C159.248 199.634 159.248 199.633 157.409 200.107C155.296 200.306 153.158 200.182 151.045 200.182C150.648 200.157 150.3 200.057 150.001 199.808Z" fill="#E1E2E2"/>
<path d="M157.459 199.758C159 199.683 159 198.687 158.975 197.516C158.975 196.37 159.273 195.223 159.199 194.077C160.69 194.077 162.182 194.077 163.673 194.077C163.946 194.376 164.046 194.725 164.021 195.099C163.897 196.594 164.046 198.139 163.424 199.559C163.424 199.634 163.424 199.708 163.424 199.783C163.226 200.032 162.952 200.157 162.679 200.157C160.939 200.057 159.149 200.63 157.459 199.758Z" fill="#E6E6E6"/>
<path d="M157.459 199.758C159.447 199.758 161.436 199.758 163.425 199.758C164.568 199.783 165.736 199.783 166.88 199.808C166.457 200.256 165.811 200.132 165.363 200.107C164.22 200.007 163.947 200.705 163.673 201.527C159.025 201.527 154.401 201.527 149.753 201.527C149.828 200.954 150.3 200.431 150.002 199.808C152.487 199.808 154.973 199.783 157.459 199.758Z" fill="#9ABEF9"/>
<path d="M150.499 199.534C149.927 199.633 149.306 199.309 148.784 199.758C146.969 199.235 146.124 198.338 146.049 196.868C145.975 195.248 146.969 194.401 148.286 193.828C149.33 194.326 150.424 193.928 151.493 194.052C151.095 195.323 151.071 196.643 151.095 197.964C151.095 198.562 150.996 199.135 150.499 199.534Z" fill="#DADBDC"/>
<path d="M163.424 199.559C163.499 197.74 163.599 195.896 163.673 194.077C164.245 194.077 164.841 194.077 165.413 194.077C168.421 194.052 167.899 194.451 167.874 196.992C167.874 197.042 167.874 197.092 167.849 197.117C167.451 197.84 168.048 198.886 167.451 199.359C166.755 199.908 165.687 199.509 164.792 199.559C164.344 199.559 163.872 199.559 163.424 199.559Z" fill="#E9E9EA"/>
<path d="M150.499 199.534C150.921 198.338 150.747 197.117 150.722 195.896C150.722 195.149 150.896 194.526 151.468 194.052C152.711 194.052 153.954 194.052 155.197 194.052C154.6 194.675 154.327 195.398 154.451 196.27C154.6 197.192 154.153 198.039 154.178 198.961C154.202 199.484 153.805 199.534 153.407 199.534C152.462 199.534 151.493 199.534 150.499 199.534Z" fill="#DDDDDE"/>
<path d="M153.233 193.778C153.481 193.13 154.128 192.657 153.978 191.86C156.539 191.86 159.124 191.86 161.684 191.86C161.709 192.607 161.212 193.155 160.938 193.778C158.378 193.778 155.818 193.778 153.233 193.778Z" fill="#98BDF9"/>
<path d="M157.707 174.17C156.564 174.618 155.396 174.269 154.227 174.394C153.432 174.942 152.537 174.718 151.692 174.743C151.021 174.768 150.374 174.743 149.703 174.768C149.181 174.792 148.634 174.942 148.51 175.49C148.212 176.661 148.286 177.882 148.485 179.053C148.585 179.626 149.206 179.427 149.654 179.526C150.275 179.651 151.095 179.203 151.468 180.1C150.897 180.124 150.325 180.124 149.753 180.149C149.504 180.423 149.181 180.473 148.858 180.498C146.77 180.498 144.707 180.648 142.619 180.399C142.47 180.349 142.321 180.274 142.196 180.174C141.55 178.405 142.022 176.586 141.873 174.792C141.824 174.369 142.221 174.17 142.619 174.12C143.017 174.07 143.439 173.995 143.837 173.895C145.9 173.696 147.963 173.796 150.026 173.821C152.139 173.746 154.227 173.796 156.34 173.796C156.813 173.746 157.335 173.721 157.707 174.17Z" fill="#E3E4E4"/>
<path d="M151.468 180.075C150.648 179.626 149.778 179.9 148.933 179.875C148.237 179.85 147.988 179.626 147.988 178.928C147.988 177.907 147.963 176.86 147.938 175.839C147.913 175.066 148.361 174.344 149.38 174.369C150.996 174.394 152.587 174.369 154.202 174.369C153.805 175.017 153.755 175.664 153.879 176.487C154.078 177.658 153.954 178.879 153.954 180.075C153.134 180.075 152.313 180.075 151.468 180.075Z" fill="#DFE0E0"/>
<path d="M142.544 180.124C144.956 180.124 147.342 180.124 149.753 180.124C150.275 181.694 150.176 181.819 148.585 181.843C148.237 181.843 147.839 181.744 147.541 182.043C145.875 182.043 144.21 182.043 142.544 182.043C142.072 181.42 142.52 180.772 142.544 180.124Z" fill="#8FB6F6"/>
<path d="M161.61 181.495C161.635 181.868 161.312 181.694 161.187 181.694C160.616 181.744 160.839 181.27 160.815 181.021C160.79 180.847 160.765 180.498 161.163 180.573C161.685 180.697 161.163 181.345 161.61 181.495Z" fill="#80ADF2"/>
<path d="M169.39 223.503C169.39 225.371 169.39 227.265 169.415 229.134C166.333 229.134 163.275 229.159 160.193 229.159C159.497 227.29 159.721 225.421 160.044 223.528C160.218 223.303 160.442 223.279 160.69 223.403C163.599 223.453 166.482 223.478 169.39 223.503Z" fill="#EAEAEB"/>
<path d="M160.69 223.428C160.516 223.453 160.367 223.478 160.193 223.503C159.82 223.827 159.348 223.852 158.9 223.852C156.713 223.852 154.526 223.901 152.338 223.827C151.841 223.827 151.344 223.852 150.921 223.503C150.524 222.805 150.499 222.108 150.971 221.41C153.059 221.31 155.122 221.285 157.21 221.435C158.055 221.46 158.876 221.485 159.721 221.51C160.74 221.784 160.74 222.581 160.69 223.428Z" fill="#1F2462"/>
<path d="M147.516 219.516C147.019 219.491 146.522 219.466 146.025 219.441C145.478 218.968 144.583 219.616 144.21 219.018C143.788 218.32 144.111 217.423 144.061 216.601C144.036 216.402 144.061 216.202 144.061 215.978C144.061 213.736 144.061 213.736 141.824 213.736C141.501 213.711 141.128 213.835 140.854 213.536C142.768 213.536 144.658 213.536 146.572 213.536C146.994 213.786 147.541 213.387 147.914 213.835C148.013 215.081 147.914 216.302 147.889 217.548C147.889 218.495 148.212 218.918 149.182 218.868C149.753 218.819 150.325 218.819 150.922 218.918C151.195 218.993 151.493 219.043 151.518 219.417C151.369 219.442 151.195 219.466 151.046 219.491C149.828 220.064 148.684 220.064 147.516 219.516Z" fill="#E2E3E3"/>
<path d="M151.518 165.225C152.238 164.378 153.233 164.228 154.252 164.203C156.315 164.178 158.378 164.178 160.417 164.153C163.375 164.153 166.357 164.178 169.316 164.178C169.34 164.228 169.365 164.303 169.39 164.353C169.316 164.378 169.216 164.402 169.141 164.452C168.271 164.976 167.327 164.751 166.407 164.776C165.413 164.801 164.419 164.801 163.424 164.776C162.455 164.801 161.485 164.801 160.541 164.776C157.782 164.776 158.105 164.552 157.608 167.243C157.434 168.215 157.508 169.236 156.937 170.108C155.843 170.133 154.774 170.158 153.68 170.183C153.059 170.607 152.636 170.233 152.214 169.834C150.573 168.09 150.449 167.243 151.518 165.225Z" fill="#D5D6D7"/>
<path d="M130.862 223.503C133.67 223.503 136.504 223.503 139.313 223.503C139.934 225.396 139.934 227.29 139.313 229.184C136.504 229.184 133.67 229.184 130.862 229.184C130.862 227.29 130.862 225.396 130.862 223.503Z" fill="#DEDFDF"/>
<path d="M152.239 223.503C154.899 223.503 157.534 223.503 160.193 223.503C160.193 225.396 160.193 227.29 160.193 229.184C157.459 229.184 154.725 229.184 151.99 229.184C151.841 229.034 151.717 228.86 151.717 228.66C151.617 226.916 151.667 225.172 152.239 223.503Z" fill="#E6E7E7"/>
<path d="M152.239 223.503C152.164 225.396 152.065 227.29 151.99 229.159C149.504 229.159 147.019 229.159 144.533 229.159C143.837 227.24 143.986 225.322 144.458 223.403C145.95 222.73 147.541 223.179 149.082 223.079C149.728 223.029 150.399 222.98 150.971 223.428C151.418 223.453 151.816 223.478 152.239 223.503Z" fill="#E3E4E4"/>
<path d="M144.533 223.503C144.533 225.396 144.533 227.29 144.533 229.159C142.793 229.159 141.053 229.159 139.313 229.159C139.313 227.265 139.313 225.371 139.313 223.478C140.233 223.453 141.127 223.428 142.047 223.403C142.892 222.955 143.713 222.905 144.533 223.503Z" fill="#E1E2E2"/>
<path d="M160.442 170.407C162.505 170.407 164.593 170.407 166.656 170.407C166.905 170.98 167.153 171.528 167.377 172.101C165.065 172.101 162.753 172.101 160.417 172.101C159.994 171.553 160.019 170.98 160.442 170.407Z" fill="#2376DE"/>
<path d="M157.707 174.169C155.147 174.144 152.562 174.12 150.002 174.12C149.604 173.546 149.206 172.973 148.411 172.874C148.162 172.849 147.789 172.724 148.063 172.301C148.858 172.201 149.678 172.4 150.449 172.176C150.722 172.301 150.971 172.301 151.244 172.176C151.617 172.55 152.09 172.4 152.537 172.4C155.57 172.425 158.627 172.4 161.66 172.4C161.312 172.973 160.516 173.272 160.665 174.12C159.696 174.12 158.702 174.144 157.707 174.169Z" fill="#88B2F3"/>
<path d="M160.442 170.407C160.442 170.98 160.442 171.528 160.442 172.101C157.533 172.101 154.65 172.101 151.742 172.101C152.413 171.454 152.487 170.681 152.239 169.834C152.736 169.959 153.208 170.083 153.705 170.183C155.222 170.606 156.788 170.283 158.329 170.382C159.05 170.432 159.746 170.407 160.442 170.407Z" fill="#297AE4"/>
<path d="M157.21 221.435C155.147 221.46 153.059 221.485 150.996 221.51C148.833 222.058 146.671 222.182 144.533 221.435C144.533 221.36 144.533 221.31 144.533 221.235C145.527 221.235 146.522 221.235 147.516 221.211C148.759 220.613 150.002 220.637 151.245 221.211C153.233 221.211 155.222 221.235 157.21 221.235C157.21 221.31 157.21 221.36 157.21 221.435Z" fill="#5F9CEF"/>
<path d="M166.408 164.452C167.327 164.452 168.247 164.452 169.167 164.477C169.167 166.346 169.142 168.24 169.142 170.108C167.974 170.108 166.805 170.108 165.662 170.108C165.513 169.959 165.364 169.784 165.388 169.56C165.562 167.816 165.612 166.047 166.408 164.452Z" fill="#E5E5E5"/>
<path d="M160.442 164.427C161.436 164.427 162.43 164.427 163.425 164.427C163.574 164.577 163.698 164.776 163.673 164.976C163.474 166.72 163.425 168.464 162.679 170.108C161.61 170.108 160.516 170.108 159.447 170.108C159.348 168.14 159.423 166.196 160.442 164.427Z" fill="#DDDDDE"/>
<path d="M162.679 170.108C162.679 168.19 163.35 166.346 163.425 164.452C164.419 164.452 165.413 164.452 166.407 164.452C166.333 166.371 165.662 168.19 165.662 170.108C164.667 170.108 163.673 170.108 162.679 170.108Z" fill="#E1E2E2"/>
<path d="M160.442 164.427C160.119 166.321 159.771 168.214 159.447 170.108C158.627 170.108 157.782 170.108 156.962 170.108C156.887 168.538 157.409 167.019 157.558 165.474C157.658 164.602 158.105 164.278 158.95 164.402C159.447 164.477 159.945 164.427 160.442 164.427Z" fill="#D8D9DA"/>
<path d="M130.364 172.101C130.787 172.126 131.184 172.151 131.607 172.176C131.657 172.351 131.607 172.475 131.458 172.55C128.972 172.874 126.511 172.924 124.025 172.525C123.876 172.425 123.826 172.301 123.926 172.126C124 172.052 124.075 171.977 124.15 171.877C126.188 172.351 128.276 172.077 130.364 172.101Z" fill="#ABCAFB"/>
<path d="M123.901 172.151C123.901 172.226 123.901 172.326 123.901 172.4C124.249 173.621 125.119 173.845 126.288 173.771C127.879 173.696 129.494 173.746 131.11 173.746C131.607 173.746 132.104 173.721 132.552 174.02C131.781 175.639 131.98 177.384 132.03 179.103C132.03 179.85 131.707 180.174 131.011 180.174C130.563 180.174 130.116 180.199 129.668 180.348C128.401 180.548 127.108 180.498 125.84 180.423C124.871 180.373 124.274 180.697 124.075 181.669C124.026 181.719 123.976 181.769 123.926 181.819C123.852 181.819 123.752 181.794 123.678 181.794C123.678 181.544 123.727 181.295 123.678 181.046C123.578 180.174 123.852 179.676 124.821 179.825C125.691 179.95 125.989 179.576 125.94 178.704C125.865 177.558 125.915 176.387 125.94 175.216C125.965 174.593 125.741 174.344 125.095 174.319C123.479 174.294 123.28 173.821 123.901 172.151Z" fill="#EDEDED"/>
<path d="M142.544 180.124C143.016 180.772 142.445 181.395 142.544 182.043C138.492 182.068 134.416 182.093 130.364 182.117C128.201 182.093 126.064 182.068 123.901 182.043C123.901 181.968 123.901 181.893 123.901 181.843C124.398 181.42 124.97 181.495 125.542 181.495C127.878 181.47 130.24 181.519 132.576 181.47C133.247 181.445 133.869 181.395 134.217 180.647C134.54 179.95 135.336 180.049 135.932 179.825C137.672 179.676 139.437 179.8 141.177 179.75C141.575 179.726 141.948 179.8 142.271 180.074C142.37 180.099 142.47 180.124 142.544 180.124Z" fill="#94BAF8"/>
<path d="M131.607 172.375C131.607 172.301 131.607 172.226 131.607 172.151C132.427 172.126 133.272 172.101 134.093 172.076C135.261 172.076 136.404 172.076 137.573 172.076C138.816 172.076 140.059 172.076 141.301 172.076C143.116 172.076 144.955 172.076 146.77 172.076C148.013 172.101 149.231 172.126 150.474 172.126C149.678 172.575 148.833 172.251 148.013 172.351C147.64 172.749 147.118 172.724 146.621 172.724C144.781 172.724 142.917 172.774 141.078 172.699C138.84 172.749 136.628 172.724 134.391 172.699C133.446 172.699 132.452 173.023 131.607 172.375Z" fill="#9EC1F6"/>
<path d="M147.764 213.761C147.342 213.711 146.894 213.91 146.546 213.561C146.795 213.536 147.044 213.512 147.267 213.487C148.585 213.487 149.927 213.487 151.244 213.487C153.904 214.06 155.023 216.078 153.805 218.121C153.283 218.993 152.487 219.417 151.468 219.466C151.319 219.392 151.145 219.342 150.996 219.267C150.325 218.295 150.673 217.199 150.623 216.153C150.548 214.658 150.872 214.01 148.784 214.134C148.411 214.134 148.063 214.01 147.764 213.761Z" fill="#DADBDC"/>
<path d="M151.244 221.211C150.001 221.211 148.758 221.211 147.516 221.211C147.143 220.637 147.366 220.089 147.516 219.516C148.684 219.516 149.852 219.516 151.021 219.516C151.344 220.039 151.219 220.637 151.244 221.211Z" fill="#3785F1"/>
<path d="M144.533 221.435C146.695 221.46 148.833 221.485 150.996 221.51C150.996 222.157 150.996 222.78 150.996 223.428C148.833 223.453 146.695 223.478 144.533 223.503C143.713 223.478 142.867 223.453 142.047 223.428C141.326 222.88 140.63 222.332 141.799 221.51C142.693 221.485 143.613 221.46 144.533 221.435Z" fill="#1C215E"/>
<path d="M163.921 179.85C162.355 179.85 160.764 179.85 159.198 179.85C159.198 178.405 159.223 176.96 159.198 175.515C159.174 174.668 159.497 174.319 160.367 174.344C161.485 174.394 162.579 174.344 163.698 174.344C164.195 176.188 163.797 178.031 163.921 179.85Z" fill="#D8D9DA"/>
<path d="M140.208 193.604C141.699 194.227 140.904 195.348 141.302 196.07C141.227 196.095 141.152 196.145 141.078 196.145C140.78 196.195 140.73 195.921 140.705 195.772C140.63 195.099 140.829 194.426 140.208 193.604Z" fill="#93BAF7"/>
<path d="M142.296 180.074C141.948 180.074 141.624 180.074 141.276 180.074C140.133 179.875 138.965 180.025 137.821 179.975C137.399 179.95 136.877 179.975 136.827 179.452C136.653 177.683 136.33 175.914 137.225 174.244C137.274 174.145 137.399 174.07 137.498 173.995C138.642 173.547 139.835 173.796 141.028 173.771C141.948 173.821 142.942 173.497 143.762 174.169C142.171 174.169 142.097 175.116 142.246 176.387C142.395 177.608 142.296 178.854 142.296 180.074Z" fill="#E6E6E6"/>
<path d="M143.787 174.169C142.868 174.144 141.973 174.119 141.053 174.119C140.605 173.546 140.63 172.973 141.053 172.4C143.365 172.4 145.701 172.4 148.013 172.4C148.187 172.625 148.411 172.649 148.684 172.649C149.703 172.6 150.076 173.173 150.026 174.119C147.938 174.119 145.85 174.144 143.787 174.169Z" fill="#8FB7F6"/>
<path d="M147.764 213.761C150.996 213.761 150.996 213.761 150.996 217.025C150.996 217.772 150.996 218.495 150.996 219.242C149.902 219.167 148.485 219.716 147.789 219.018C147.019 218.271 147.64 216.825 147.516 215.704C147.441 215.031 147.59 214.384 147.764 213.761Z" fill="#DEDFDF"/>
<path d="M131.607 172.376C132.527 172.376 133.422 172.376 134.341 172.376C135.211 172.774 135.634 173.347 134.988 174.269C134.167 174.543 133.347 174.668 132.576 174.145C130.24 174.145 127.903 174.12 125.567 174.12C123.851 174.12 123.851 174.12 123.901 172.376C126.461 172.401 129.047 172.376 131.607 172.376Z" fill="#9ABFFA"/>
<path d="M132.577 174.17C133.422 174.145 134.242 174.145 135.087 174.12C135.932 173.646 136.753 173.596 137.573 174.17C136.728 175.814 137.175 177.583 137.101 179.302C137.076 179.925 137.598 179.825 137.996 179.875C139.089 179.975 140.208 179.626 141.277 180.075C139.462 180.1 137.648 180.1 135.833 180.124C134.267 180.448 132.701 180.573 131.11 180.498C130.588 180.473 130.041 180.523 129.619 180.075C129.693 180.025 129.743 179.975 129.817 179.925C130.414 179.651 131.309 180.249 131.607 179.601C131.856 179.078 131.607 178.306 131.607 177.658C131.607 176.985 131.682 176.312 131.582 175.664C131.458 174.817 131.831 174.394 132.577 174.17Z" fill="#E9E9EA"/>
<path d="M129.619 180.074C131.682 180.099 133.77 180.099 135.833 180.124C135.261 180.473 134.267 180.274 134.317 181.445C134.342 181.694 133.869 181.819 133.496 181.819C130.29 181.819 127.083 181.843 123.877 181.843C123.877 179.9 123.678 180.124 125.666 180.099C127.009 180.099 128.301 180.099 129.619 180.074Z" fill="#9BBFFA"/>
<path d="M137.573 174.169C136.752 174.144 135.907 174.144 135.087 174.119C135.062 173.447 134.863 172.849 134.341 172.4C136.578 172.4 138.816 172.4 141.053 172.4C141.053 172.973 141.053 173.546 141.053 174.119C139.884 174.119 138.741 174.144 137.573 174.169Z" fill="#95BAF8"/>
<path fill-rule="evenodd" clip-rule="evenodd" d="M192.008 184.369C178.721 180.8 170.83 167.133 174.383 153.842L179.88 133.28C183.433 119.989 197.084 112.107 210.371 115.676C223.658 119.244 231.549 132.912 227.996 146.203L227.041 149.775L231.326 158.267L223.301 163.764L222.499 166.765C218.946 180.056 205.295 187.938 192.008 184.369Z" fill="#EDEDED"/>
<rect opacity="0.2" width="31.6335" height="2.51436" rx="1.25718" transform="matrix(0.258252 -0.966077 0.965774 0.259387 188.04 166.328)" fill="#EF4752"/>
<path opacity="0.2" fill-rule="evenodd" clip-rule="evenodd" d="M195.73 168.395C195.059 168.215 194.661 167.526 194.84 166.855L202.36 138.723C202.54 138.053 203.228 137.655 203.899 137.835C204.57 138.015 204.968 138.705 204.789 139.376L197.268 167.507C197.089 168.178 196.4 168.576 195.73 168.395Z" fill="#EF4752"/>
<path opacity="0.2" fill-rule="evenodd" clip-rule="evenodd" d="M202.205 170.135C201.535 169.955 201.136 169.265 201.316 168.594L204.995 154.83C205.174 154.159 205.863 153.761 206.534 153.941C207.204 154.121 207.603 154.811 207.423 155.482L203.744 169.246C203.565 169.917 202.876 170.315 202.205 170.135Z" fill="#EF4752"/>
<path d="M136.297 91.0199C136.346 91.5776 136.224 92.0843 136.002 92.4515C135.78 92.819 135.473 93.0274 135.147 93.0562C134.821 93.085 134.483 92.9337 134.2 92.6109C133.917 92.2883 133.707 91.8109 133.658 91.2532C133.609 90.6955 133.731 90.1888 133.953 89.8215C134.175 89.4541 134.482 89.2457 134.808 89.2169C135.134 89.1881 135.472 89.3394 135.755 89.6622C136.038 89.9848 136.247 90.4622 136.297 91.0199Z" stroke="#3582EE" stroke-width="0.642395"/>
<path d="M141.055 92.1357C141.109 92.7419 140.976 93.2939 140.733 93.695C140.49 94.0963 140.154 94.3273 139.792 94.3593C139.431 94.3913 139.059 94.2232 138.75 93.8708C138.441 93.5185 138.213 92.9985 138.16 92.3923C138.106 91.7861 138.239 91.2342 138.482 90.8331C138.724 90.4317 139.061 90.2008 139.422 90.1687C139.784 90.1367 140.156 90.3048 140.465 90.6573C140.774 91.0095 141.002 91.5295 141.055 92.1357Z" stroke="#3582EE" stroke-width="0.642395"/>
<path d="M136.505 91.3209L137.947 91.6421" stroke="#3582EE" stroke-width="0.642395"/>
<ellipse cx="55.5925" cy="215.303" rx="16.3426" ry="16.3811" fill="#FFC23C"/>
<defs>
<linearGradient id="paint0_linear" x1="104.186" y1="78.0741" x2="243.067" y2="322.047" gradientUnits="userSpaceOnUse">
<stop stop-color="#FFFAEC"/>
<stop offset="1" stop-color="#F0E9FB"/>
</linearGradient>
</defs>
</svg>
