<svg width="440" height="486" viewBox="0 0 440 486" fill="none" xmlns="http://www.w3.org/2000/svg">
<rect width="440" height="486" rx="12" fill="url(#paint0_linear)"/>
<path d="M369.199 362.324L353.499 358.109C353.186 358.025 352.867 357.984 352.547 357.984C351.893 357.984 351.245 358.155 350.659 358.473C345.406 361.328 339.408 362.973 333.011 362.973C330.031 362.973 326.962 362.615 323.845 361.855C312.317 359.047 300.043 347.123 297.075 335.612C290.658 310.721 309.228 288.363 333.011 288.365C336.33 288.367 339.753 288.802 343.219 289.726C355.928 293.115 365.892 303.376 369.055 316.169C371.389 325.618 370.115 334.669 366.348 342.26C365.926 343.109 365.801 344.071 366.048 344.988L370.367 361.153C370.536 361.779 370.053 362.36 369.451 362.36C369.367 362.36 369.284 362.349 369.199 362.324Z" fill="#EF4752"/>
<path d="M190.054 288.599C189.077 287.857 189.937 286.724 189.468 285.904C183.53 291.959 179.234 298.834 179.468 307.74C178.999 308.326 179.546 309.107 179.077 309.693C179.077 310.865 179.077 312.036 179.077 313.208C178.609 313.794 179.156 314.575 178.687 315.161C178.609 319.224 177.007 322.856 175.484 326.489C173.453 331.333 171.187 336.059 167.476 339.887C166.226 341.176 165.367 341.098 164.078 339.887C161.148 337.036 158.101 334.301 155.133 331.528C154.234 331.216 153.687 330.473 153.062 329.809C149.703 326.45 146.188 323.208 142.594 320.083C142.008 319.458 141.266 318.989 140.992 318.091C140.992 317.896 141.031 317.7 141.109 317.505C143.883 310.904 145.719 303.99 147.828 297.154C151.226 286.099 154.586 275.045 157.984 263.991C160.172 257.506 162.007 250.944 164.468 244.577C164.898 243.405 165.367 242.272 166.187 241.296C166.89 240.593 167.632 240.788 168.218 241.413C170.367 243.679 172.71 245.71 174.937 247.858C178.648 251.452 182.085 255.319 185.64 259.03C188.608 262.116 191.772 265.123 194.272 268.678C194.311 268.873 194.35 269.069 194.35 269.264C193.491 274.615 192.671 280.006 190.405 285.045C190.444 285.24 190.444 285.435 190.444 285.631C190.483 286.451 190.561 287.232 190.327 288.053C190.288 288.287 190.171 288.443 190.054 288.599Z" fill="#EDEDED"/>
<path d="M239.584 157.782C248.607 164.579 255.833 172.977 261.536 182.742C260.56 183.563 259.7 182.977 258.841 182.508C257.357 181.688 255.95 180.75 254.427 180.008C254.076 179.852 253.685 179.578 253.372 179.93C253.138 180.164 253.216 180.555 253.294 180.867C254.74 185.399 255.208 190.164 256.068 194.812C256.302 198.289 257.318 201.687 256.966 205.164C256.888 209.148 255.716 212.82 253.763 216.257C252.044 218.796 249.896 220.867 247.396 222.585C245.287 223.952 242.865 224.421 240.443 224.656C239.271 224.773 238.177 225.046 237.201 225.749C234.584 226.491 232.631 228.249 230.678 229.968C228.412 232.077 226.068 234.069 222.826 234.421C220.248 234.538 217.67 234.655 215.131 234.03C213.881 233.718 213.061 233.132 212.866 231.765C212.67 230.241 212.201 228.757 212.084 227.195C210.834 220.476 209.545 213.757 208.413 207C208.295 206.023 208.491 205.203 209.623 204.968C212.319 204.5 214.975 203.953 217.553 203.015C224.623 200.476 228.881 195.633 230.014 188.172C230.092 187.586 230.17 187 230.326 186.453C230.834 182.352 230.99 178.25 231.264 174.11C231.303 173.329 231.342 172.547 231.029 171.805C231.459 169.579 231.615 167.313 231.342 165.048C231.576 164.227 232.318 164.11 232.982 163.915C235.482 163.173 237.396 161.688 238.49 159.266C238.802 158.759 238.92 158.055 239.584 157.782Z" fill="#23286B"/>
<path d="M178.257 167.313C179.311 171.141 180.444 174.891 182.163 178.485C183.257 179.969 183.608 181.805 184.194 183.484C185.171 186.375 186.225 189.226 187.241 192.078C188.335 195.789 189.858 199.382 190.991 203.054C191.225 203.836 191.655 204.617 191.381 205.476C190.756 206.492 189.819 206.101 188.96 205.945C188.256 205.828 187.592 205.632 186.889 205.437C184.702 204.773 182.553 204.031 180.522 203.054C178.725 202.156 177.202 201.023 176.694 198.914C176.46 195.359 176.382 191.805 176.811 188.25C176.929 187.352 177.436 185.984 176.225 185.711C175.21 185.477 174.741 186.766 174.351 187.625C173.686 189.109 173.765 190.789 173.335 192.351C172.983 193.719 172.319 194.734 170.757 194.773C168.296 194.461 166.421 192.937 164.468 191.609C162.046 189.773 159.82 187.703 157.437 185.828C155.093 183.992 154.351 184.266 153.57 187.156C153.453 187.664 153.296 188.172 152.945 188.562C152.749 188.68 152.593 188.641 152.476 188.445C150.093 181.609 147.789 174.774 145.328 167.977C145.015 167.079 145.445 167 145.836 166.688C148.882 166.18 151.929 166.571 154.976 166.532C159.976 166.454 165.015 166.532 170.015 166.493C171.343 166.493 172.632 166.493 173.96 166.258C174.116 166.375 174.272 166.532 174.429 166.649C175.679 167.391 177.124 166.414 178.257 167.313Z" fill="#E84A47"/>
<path d="M168.158 189.169C167.931 189.216 167.688 189.191 167.465 189.087C165.4 188.121 159.658 185.325 158.028 183.366C156.028 180.963 156.159 177.329 158.321 175.251C159.032 174.567 159.873 174.138 160.753 173.954C162.296 173.632 163.959 174.067 165.248 175.217C165.971 173.647 167.321 172.584 168.864 172.263C169.744 172.079 170.686 172.137 171.611 172.479C174.424 173.52 175.996 176.798 175.124 179.8C174.413 182.248 170.267 187.106 168.76 188.817C168.597 189.001 168.385 189.121 168.158 189.169Z" fill="white"/>
<path d="M210.483 139.775C210.287 139.618 210.131 139.462 209.936 139.306C209.389 138.876 208.842 138.446 208.452 137.861C208.022 137.275 207.592 136.689 207.241 136.025C206.459 135.126 206.85 134.15 207.084 133.173C207.709 131.142 209.389 131.181 210.991 131.376C211.928 131.493 212.787 131.962 213.92 132.353C213.373 128.017 214.272 124.462 218.881 122.978C220.053 122.744 221.225 122.783 222.397 122.978C222.592 123.056 222.787 123.095 222.943 123.173C225.365 124.423 227.436 125.009 230.209 123.134C233.803 120.712 237.592 122.431 239.623 126.376C240.365 127.822 240.756 129.345 241.185 130.868C241.693 132.548 241.185 134.657 243.959 135.282C245.56 135.634 245.56 137.9 245.287 139.54C244.545 143.915 241.693 146.845 238.49 149.54C237.318 150.516 236.029 151.376 234.818 152.313C234.584 152.587 234.31 152.587 233.998 152.47C232.201 150.438 232.162 149.384 233.881 147.431C233.959 147.313 234.076 147.235 234.154 147.157C235.013 146.22 235.951 145.243 235.287 143.915C234.623 142.509 233.256 142.782 232.006 142.978C229.857 143.329 228.021 142.548 226.42 141.22C225.522 140.478 224.701 140.282 223.568 140.712C222.24 141.22 220.834 141.571 219.389 141.61C218.139 141.61 216.85 141.61 215.6 141.61C215.287 141.649 214.975 141.61 214.662 141.61C214.076 141.61 213.451 141.571 212.866 141.454C212.514 141.376 212.162 141.181 211.811 141.024C211.381 140.595 210.6 140.595 210.483 139.775Z" fill="#23286B"/>
<path d="M188.843 226.53C191.929 225.593 195.015 224.694 198.101 223.757C198.804 223.561 199.468 223.327 200.171 223.366C202.28 222.507 203.764 223.796 205.366 224.772C205.405 226.374 206.304 227.468 207.397 228.561C214.78 235.866 221.733 243.561 229.037 250.944C229.78 251.686 230.561 252.506 230.053 253.678C229.545 254.889 228.373 254.694 227.358 254.694C224.311 254.733 221.264 254.694 218.217 254.694C217.358 254.694 216.538 254.655 215.717 254.928C214.936 255.084 214.116 255.162 213.335 254.85C212.671 252.819 211.342 251.451 209.663 250.084C207.983 248.756 206.147 247.272 205.054 245.319C204.585 244.459 204.077 243.405 203.296 243.053C200.913 241.92 199.976 239.303 197.671 238.014C196.499 237.35 195.718 235.71 194.819 234.46C194.546 234.108 194.39 233.522 193.999 233.405C191.304 232.585 191.03 229.616 189.155 228.093C188.726 227.78 188.53 227.155 188.843 226.53Z" fill="#E3E4E4"/>
<path d="M188.843 226.53C189.663 228.64 191.655 229.968 192.475 232.116C192.788 232.936 194.311 232.272 194.663 233.327C195.171 235.007 197.28 235.554 197.475 237.429C197.514 237.819 197.827 238.054 198.335 238.054C199.624 238.132 200.288 238.835 200.444 240.124C200.522 240.671 200.913 240.944 201.538 241.257C203.452 242.155 205.014 243.522 205.561 245.749C205.678 246.178 205.913 246.764 206.381 246.764C208.061 246.725 208.53 247.858 208.803 249.186C208.842 249.42 209.116 249.772 209.272 249.772C212.084 249.85 212.123 253.249 214.78 253.874C213.959 254.225 213.53 254.42 213.1 254.616C212.983 254.811 212.826 254.928 212.631 255.045C210.131 255.475 207.631 255.631 205.17 256.178C203.178 256.334 201.538 257.584 199.624 257.975C197.944 257.155 196.772 255.709 195.639 254.342C193.921 252.272 192.202 250.163 190.054 248.639C187.515 246.842 186.186 244.069 183.882 242.155C181.538 240.202 179.39 238.015 177.359 235.71C176.265 234.46 174.82 233.249 175.21 231.218C179.468 228.874 184.233 227.937 188.843 226.53Z" fill="#E7E8E8"/>
<path d="M166.578 241.335C163.609 247.155 162.047 253.522 159.937 259.654C159.43 261.1 159.195 262.623 158.375 263.99C155.758 270.201 153.18 276.451 150.523 282.662C146.344 292.505 142.164 302.388 138.024 312.27C137.711 313.013 137.399 313.716 136.618 314.067C134.274 313.208 132.36 311.802 131.149 309.575C132.75 304.966 134.821 300.552 136.696 296.099C141.539 284.615 146.383 273.131 151.266 261.647C152.438 258.912 153.687 256.178 154.859 253.444C156.031 252.116 156.891 250.514 158.375 249.498C158.765 248.991 159.195 248.522 159.547 247.975C159.937 247.311 160.484 246.803 161.109 246.374C161.5 245.866 161.929 245.397 162.281 244.85C162.672 244.186 163.219 243.678 163.843 243.249C164.234 242.741 164.664 242.272 165.015 241.725C165.406 241.061 165.914 240.514 166.578 240.124C166.929 240.553 166.851 240.944 166.578 241.335Z" fill="#D8D9DA"/>
<path d="M166.578 241.335C166.578 240.944 166.578 240.553 166.578 240.124C168.765 236.921 170.601 233.366 174.273 231.491C174.546 231.335 174.859 231.257 175.171 231.179C175.718 232.858 176.617 234.343 177.827 235.593C180.835 238.6 184.116 241.413 186.773 244.694C188.648 247.038 191.226 248.522 193.101 250.827C195.093 253.209 197.28 255.397 199.39 257.701C197.554 260.944 196.226 264.42 194.819 267.857C194.663 268.248 194.585 268.756 193.96 268.717C192.241 266.881 190.405 265.123 188.804 263.17C186.421 260.24 183.53 257.78 181.031 254.967C176.851 250.28 172.242 245.983 167.789 241.569C167.398 241.178 167.046 241.1 166.578 241.335Z" fill="#EAEAEB"/>
<path d="M154.859 253.444C155.133 255.709 153.648 257.389 152.867 259.264C147.594 271.959 142.203 284.576 136.813 297.232C135.055 301.412 133.219 305.552 131.383 309.732C130.915 309.966 130.446 309.771 130.016 309.614C127.79 308.286 125.954 306.411 123.844 304.927C123.571 304.732 123.415 304.458 123.571 304.068C125.446 301.763 126.227 298.872 127.399 296.216C129.977 290.162 132.555 284.107 135.094 278.053C135.524 277.037 135.836 275.982 136.11 274.889C139.196 270.709 142.867 267.076 146.188 263.092C148.609 260.201 151.109 257.389 153.57 254.577C153.961 254.186 154.43 253.834 154.859 253.444Z" fill="#DBDBDC"/>
<path d="M215.796 254.538C218.022 253.874 220.288 254.342 222.553 254.264C224.311 254.186 226.069 254.264 227.827 254.225C228.53 254.225 229.35 254.42 229.741 253.6C230.131 252.741 229.545 252.155 228.998 251.569C224.428 246.882 219.741 242.233 215.288 237.429C212.241 234.147 209.155 230.905 205.952 227.78C205.054 226.921 205.132 225.984 205.288 224.929C205.444 224.773 205.601 224.695 205.835 224.655C208.14 225.202 210.522 225.515 212.553 226.843C212.866 228.288 213.335 229.733 213.374 231.179C213.413 232.897 214.35 233.249 215.757 233.522C218.256 233.991 220.756 233.952 223.256 233.874C227.436 237.975 231.576 242.077 235.365 246.53C236.498 247.897 238.061 248.756 239.193 250.124C239.74 250.749 240.483 251.256 240.443 252.233C238.256 253.444 235.717 253.288 233.412 254.147C237.24 254.147 241.068 254.147 244.857 254.147C252.201 254.147 259.584 254.147 266.927 254.147C267.591 254.147 268.373 253.795 268.88 254.616C268.294 255.124 267.591 255.163 266.888 255.163C262.005 255.163 257.084 255.241 252.201 255.124C247.553 255.202 242.865 255.202 238.217 255.124C236.615 255.163 235.014 255.163 233.373 255.124C230.678 255.006 227.944 255.241 225.248 255.124C222.436 254.928 219.585 255.358 216.772 255.006C216.342 255.045 215.991 254.889 215.796 254.538Z" fill="#E1E2E2"/>
<path d="M247.435 222.195C249.467 220.32 251.537 218.484 253.295 216.335C254.154 214.89 255.248 214.343 256.849 215.242C263.373 218.992 269.857 222.702 276.341 226.491C276.888 226.882 276.575 227.546 276.81 228.054C277.083 228.757 276.771 229.499 277.083 230.202C277.161 231.218 276.849 231.765 275.677 231.999C272.943 232.585 270.13 232.819 267.357 233.171C266.693 233.562 265.99 233.718 265.248 233.483C259.935 230.007 254.232 227.116 248.803 223.796C248.178 223.445 247.279 223.249 247.435 222.195Z" fill="#1B205B"/>
<path d="M142.829 319.692C146.735 323.325 150.641 326.958 154.547 330.59C154.82 330.825 154.938 331.215 155.133 331.528C152.711 338.246 150.211 344.926 147.946 351.684C147.321 353.559 146.578 352.895 145.719 352.27C144.547 351.371 143.493 350.395 142.36 349.418C141.852 348.754 141.735 348.012 141.735 347.192C142.008 339.34 141.149 331.489 141.344 323.637C141.383 322.192 141.266 320.63 142.829 319.692Z" fill="#428CFB"/>
<path d="M276.341 226.53C274.388 226.491 273.06 225.085 271.497 224.226C266.732 221.609 262.083 218.835 257.435 216.062C255.912 215.163 254.583 214.929 253.333 216.374C254.935 212.898 256.497 209.382 256.458 205.437C257.513 203.289 257.826 203.211 259.818 204.343C263.919 206.687 268.021 209.07 272.161 211.374C272.981 211.843 273.646 212.39 274.036 213.249C275.208 217.585 276.106 221.999 276.341 226.53Z" fill="#1D225F"/>
<path d="M230.482 229.577C231.81 228.093 233.49 227.038 235.131 225.944C235.638 225.593 236.224 225.241 236.888 225.632C237.435 225.476 237.904 225.749 238.334 225.984C240.834 227.429 243.451 228.718 246.146 229.773C246.693 229.968 247.24 230.202 247.591 230.71C247.865 232.702 249.036 234.03 250.443 235.358C252.513 237.39 254.466 239.538 256.419 241.725C257.005 242.35 257.747 243.053 257.161 244.108C254.388 246.335 251.536 248.327 248.177 249.577C248.372 248.171 247.747 247.116 246.693 246.217C244.31 244.108 242.005 241.764 240.287 239.186C239.037 237.311 236.459 236.686 235.99 234.226C234.193 233.991 233.49 232.468 232.592 231.257C232.045 230.437 231.615 229.577 230.482 229.577Z" fill="#DDDDDE"/>
<path d="M230.483 229.577C231.186 229.733 231.694 229.226 232.319 229.108C232.397 231.1 234.311 233.171 236.42 233.483C237.084 233.561 236.693 233.913 236.615 234.108C236.381 234.811 236.772 235.28 237.24 235.632C241.459 238.757 243.959 243.444 247.943 246.764C248.881 247.545 249.271 248.522 248.217 249.577C245.717 250.748 243.256 252.038 240.404 252.311C238.334 249.655 235.6 247.702 233.373 245.163C230.365 241.725 227.084 238.561 223.92 235.241C223.569 234.85 223.178 234.499 223.178 233.913C226.186 233.366 228.295 231.452 230.483 229.577Z" fill="#DFE0E0"/>
<path d="M220.014 141.024C219.897 141.063 219.741 141.063 219.623 141.063L214.507 141.657L214.038 143.407C213.725 144.267 213.374 145.126 213.452 146.063C213.881 146.415 213.725 146.806 213.647 147.274C213.139 149.891 213.217 150.126 215.795 150.751C216.655 150.946 216.928 151.532 217.319 152.079C219.584 155.282 222.748 156.258 226.459 155.673C227.279 155.555 227.983 155.36 228.686 155.868C230.014 155.087 231.459 154.462 232.826 153.719C233.412 153.407 234.311 153.29 234.193 152.313C232.553 149.696 232.592 149.579 234.818 147.235C235.795 146.181 236.654 145.048 235.912 143.602C235.131 142.118 233.725 141.923 232.201 142.353C230.99 142.704 229.584 142.704 228.842 141.962C226.069 139.071 223.1 140.087 220.014 141.024Z" fill="#F5A8A2"/>
<path d="M230.99 171.805C231.537 171.61 231.85 171.688 231.811 172.391C231.615 175.985 231.537 179.578 231.146 183.133C231.029 184.305 231.498 185.594 230.639 186.648C229.74 185.164 228.725 185.242 227.318 186.141C222.123 189.422 216.889 192.625 211.616 195.828C210.795 196.336 210.288 196.961 209.975 197.859C209.78 198.484 209.741 199.304 208.92 199.617C208.608 199.5 208.452 199.226 208.335 198.914C207.749 194.93 207.045 190.945 206.538 186.961C206.42 186.18 206.186 185.398 206.811 184.734C210.444 184.188 214.116 184.266 217.709 183.25C221.225 182.274 224.389 180.633 227.084 178.289C229.037 176.649 230.131 174.266 230.99 171.805Z" fill="#1D225F"/>
<path d="M196.734 331.997C197.905 331.059 199.351 331.919 200.796 331.372C196.851 329.341 195.601 325.864 196.421 321.88C196.929 319.458 198.491 317.31 201.304 316.724C201.968 316.021 202.866 315.825 203.804 315.825C212.749 315.825 221.733 315.708 230.678 315.903C231.03 316.06 231.655 316.333 231.42 316.528C230.327 317.466 230.6 319.224 229.194 319.927C224.233 320.161 219.272 319.966 214.311 320.005C213.1 320.005 211.85 320.005 210.64 320.005C209.858 320.083 209.077 319.966 208.296 319.966C207.28 319.966 206.226 319.927 205.21 319.927C202.28 319.966 200.64 321.255 200.366 323.599C200.132 325.903 201.499 327.505 204.351 328.208C208.726 328.286 213.1 328.052 217.436 328.208C217.866 328.247 218.296 328.286 218.686 328.481C219.311 330.981 221.46 331.294 223.217 330.669C224.936 330.083 226.186 330.981 227.631 330.981C233.256 330.942 238.92 331.098 244.545 330.903C245.287 330.981 246.068 330.942 246.811 330.981C248.178 330.981 249.545 330.942 250.951 330.981C251.42 330.981 251.85 330.981 252.318 330.981C253.49 330.903 254.701 330.942 255.873 330.981C261.224 330.864 266.576 330.942 271.927 330.942C272.708 330.942 273.646 330.825 274.076 331.841C272.748 333.012 271.185 332.426 269.701 332.505C266.849 332.622 263.998 332.505 261.146 332.505C259.193 332.544 257.201 332.544 255.248 332.505C252.904 332.544 250.561 332.583 248.217 332.505C244.858 332.544 241.498 332.544 238.139 332.505C235.756 332.505 233.412 332.544 231.03 332.505C227.749 332.544 224.506 332.544 221.225 332.505C214.038 332.583 206.89 332.544 199.702 332.544C198.687 332.583 197.632 332.778 196.734 331.997Z" fill="#7FACF1"/>
<path d="M142.828 319.692C141.774 321.333 142.008 323.169 141.969 324.966C141.891 333.129 142.633 341.293 142.36 349.457C140.133 347.699 137.946 345.903 135.719 344.145C135.29 342.035 135.133 339.926 135.094 337.778C134.977 332.27 135.407 326.723 134.743 321.216C134.625 320.395 134.665 319.536 135.133 318.755C137.086 317.973 139.079 317.544 141.149 318.364C141.813 318.677 142.438 319.028 142.828 319.692Z" fill="#428CFB"/>
<path d="M136.11 274.928C136.539 275.592 136.422 276.217 136.11 276.92C132.594 285.162 129.157 293.404 125.641 301.646C125.211 302.622 125.094 304.029 123.61 304.224C122.477 304.38 122.125 303.365 121.422 302.857C119.899 301.216 117.907 300.201 116.266 298.755C115.915 298.404 115.29 298.404 115.055 297.896C117.282 297.115 118.258 294.966 119.704 293.404C124.43 288.287 128.922 282.974 133.531 277.74C134.352 276.803 134.938 275.592 136.11 274.928Z" fill="#DDDDDE"/>
<path d="M152.906 188.641C152.984 188.25 153.023 187.859 153.102 187.508C153.961 183.563 154.977 183.25 158.14 185.867C160.328 187.703 162.437 189.539 164.625 191.414C164.859 192.039 164.429 192.391 164.078 192.742C163.609 193.289 163.609 193.758 164.039 194.305C164.703 195.125 164.508 196.101 164.625 197.039C165.015 200.086 163.297 203.054 164.39 206.101C164.508 206.414 164.234 206.687 163.883 206.843C161.5 206.687 159.742 205.164 157.906 203.875C157.047 202.195 155.289 201.297 154.43 199.539C153.531 197.664 152.828 195.75 152.867 193.641C152.633 192 152.594 190.32 152.906 188.641Z" fill="#FDBAB3"/>
<path d="M135.329 318.638C135.876 325.669 135.641 332.7 135.758 339.731C135.797 341.176 136.383 342.621 135.719 344.067C135.485 343.91 135.211 343.754 134.977 343.598C132.165 341.84 129.391 340.043 127.477 337.192C127.126 333.247 127.399 329.301 127.321 325.356C127.282 323.559 127.36 321.723 127.165 319.927C127.048 319.067 127.126 318.208 128.141 317.856C130.563 317.778 133.063 317.075 135.329 318.638Z" fill="#428CFB"/>
<path d="M89.6266 295.279C92.2828 295.825 94.978 296.333 97.5952 296.997C98.5717 297.232 99.4701 297.193 100.447 297.271C100.798 297.388 101.111 297.544 101.306 297.896C101.501 298.364 101.54 298.911 101.579 299.419C101.579 303.872 101.54 308.325 101.97 312.778C102.048 313.559 102.009 314.341 101.814 315.083C101.736 315.278 101.618 315.473 101.501 315.63C100.994 315.942 100.447 315.786 100.056 315.473C97.3608 313.13 94.0015 311.645 91.6578 308.872C90.6812 307.856 89.1578 307.31 88.8063 305.708C88.5719 302.974 88.6891 300.2 88.7282 297.427C88.6891 296.607 88.6891 295.708 89.6266 295.279Z" fill="#428CFB"/>
<path d="M268.138 285.787C271.419 287.076 273.294 289.459 273.333 293.013C273.372 296.646 271.497 299.107 268.138 300.435C267.982 300.591 267.786 300.708 267.591 300.748C266.029 301.021 264.427 300.708 262.826 300.982C262.591 301.021 262.396 301.021 262.162 300.982C261.302 300.787 260.404 300.865 259.544 300.865C257.162 300.63 254.74 301.333 252.396 300.396C251.849 299.576 251.849 298.716 252.357 297.896C253.138 297.271 254.076 297.427 254.974 297.427C258.529 297.349 262.044 297.584 265.599 297.31C268.607 296.529 269.857 295.045 269.544 292.506C269.232 290.201 267.591 289.342 265.56 288.873C259.31 288.638 253.06 288.834 246.81 288.756C243.568 288.717 240.287 288.756 237.045 288.756C236.264 288.756 235.482 288.834 234.74 288.482C233.647 287.076 234.662 286.412 235.717 285.826C236.889 285.201 238.295 285.435 239.506 285.006C242.826 284.693 246.146 284.849 249.466 284.849C254.818 284.888 260.13 284.888 265.482 284.928C266.419 284.967 267.474 284.771 268.138 285.787Z" fill="#161B51"/>
<path d="M273.997 213.25C269.817 210.32 265.169 208.133 260.833 205.476C260.56 205.32 260.208 205.242 259.974 205.047C258.607 203.758 257.474 203.875 256.458 205.437C256.888 201.726 255.521 198.172 255.677 194.5C255.208 193.367 255.716 192.938 256.81 192.977C257.279 192.977 257.708 193.172 258.099 193.406C262.122 195.672 266.146 198.016 270.13 200.359C271.771 204.539 273.216 208.797 273.997 213.25Z" fill="#1F2463"/>
<path d="M270.091 200.359C267.904 200.164 266.341 198.64 264.544 197.703C262.162 196.414 259.857 195.008 257.474 193.68C256.615 193.211 255.677 192.937 255.638 194.5C254.974 191.18 254.271 187.859 253.724 184.539C253.529 183.25 253.021 182.078 252.709 180.828C252.553 180.203 252.24 179.5 252.904 179.07C253.451 178.68 253.959 179.11 254.467 179.422C256.068 180.399 257.709 181.297 259.31 182.274C260.013 182.703 260.755 182.859 261.537 182.781C265.13 188.25 267.904 194.148 270.091 200.359Z" fill="#202566"/>
<path d="M194.312 315.981C193.062 315.786 191.929 315.396 191.07 314.419C190.679 314.067 190.327 313.716 190.015 313.325C187.007 309.849 188.062 304.693 192.437 301.216C191.656 300.669 190.523 301.607 189.82 300.669C190.288 300.24 190.874 300.161 191.46 300.161C195.523 300.161 199.585 300.005 203.608 300.357C205.015 301.099 204.351 302.154 203.882 303.013C201.968 306.607 200.054 310.239 198.257 313.872C197.866 314.653 197.788 315.669 196.89 316.138C196.03 316.099 195.132 316.333 194.312 315.981Z" fill="#8AB3F4"/>
<path d="M196.616 344.106C197.436 343.325 198.491 343.872 199.389 343.676C199.858 341.528 199.467 339.301 199.585 337.153C199.624 336.45 199.467 335.747 199.702 335.044C200.288 334.536 201.03 334.575 201.733 334.575C206.264 334.575 210.795 334.536 215.326 334.575C217.748 334.575 217.943 334.77 217.943 337.27C217.943 337.856 217.943 338.442 217.943 339.028C217.943 342.544 217.943 342.544 221.068 343.481C221.303 343.637 221.381 343.872 221.303 344.145C220.678 344.731 219.897 344.653 219.154 344.692C212.358 344.809 205.561 344.731 198.764 344.731C198.1 344.731 197.475 344.692 196.889 344.379C196.772 344.262 196.694 344.184 196.616 344.106Z" fill="#EDEDED"/>
<path d="M191.577 183.602C193.804 183.797 195.952 184.539 198.179 184.344C199.429 184.852 200.796 184.266 202.085 184.695C203.139 184.734 204.155 184.773 205.21 184.812C204.311 187.312 204.741 189.93 204.663 192.508C204.585 194.265 204.897 196.023 204.389 197.742C204.155 198.25 203.686 198.328 203.218 198.211C199.194 197.039 195.015 196.336 191.343 194.07C190.718 190.515 190.679 187.039 191.577 183.602Z" fill="#F6ADA6"/>
<path d="M101.345 315.552C101.267 309.575 100.72 303.56 100.954 297.583C101.462 297.31 101.97 297.388 102.517 297.505C103.142 297.544 103.727 297.583 104.352 297.622C105.524 298.052 106.813 297.544 107.985 297.896C110.055 297.935 112.165 297.974 114.235 298.052C113.727 299.263 112.634 298.951 111.735 298.911C110.055 298.833 109.548 299.576 109.743 301.138C110.251 304.81 110.134 308.482 110.134 312.192C110.134 313.091 110.212 314.028 109.665 314.849C106.931 315.513 104.157 315.864 101.345 315.552Z" fill="#428CFB"/>
<path d="M170.484 167.118C162.945 167.118 155.445 167.118 147.906 167.118C147.242 167.118 146.461 167.391 145.875 166.766C153.219 162.001 160.562 157.196 167.906 152.431C168.531 152.001 169.117 151.845 169.507 153.016C170.328 155.634 171.46 158.173 172.085 160.907C170.796 161.61 169.39 161.844 168.023 162.118C162.828 163.133 157.789 164.735 152.594 165.79C152.398 165.829 152.203 165.868 152.125 166.102C157.515 166.415 162.906 166.219 168.336 166.297C169.039 166.297 170.132 165.829 170.484 167.118Z" fill="#D63B3A"/>
<path d="M177.163 199.109C178.218 202.039 180.991 202.703 183.452 203.797C184.585 204.304 185.757 204.617 186.89 205.047C187.437 205.632 187.476 206.336 187.476 207.039C187.515 209.578 187.515 212.078 187.476 214.617C187.437 215.515 187.437 216.453 186.499 217.038C185.132 216.492 183.804 215.828 182.554 215.046C181.069 214.07 179.507 213.562 177.671 213.601C172.749 213.718 167.828 213.64 162.906 213.64C162.32 213.64 161.578 213.992 161.148 213.21C161.929 212.546 162.867 212.703 163.765 212.703C168.296 212.664 172.867 212.703 177.437 212.703C177.359 212.273 176.89 212.234 176.734 211.882C175.952 210.593 176.421 209.226 176.499 207.898C176.695 205.398 175.835 202.898 176.46 200.398C176.577 199.89 176.538 199.344 177.163 199.109Z" fill="#F8AFA9"/>
<path d="M257.201 244.108C257.084 242.429 255.755 241.452 254.701 240.554C252.552 238.679 251.068 236.179 248.763 234.46C247.631 233.601 247.162 232.312 247.435 230.827C248.177 230.241 248.959 230.632 249.662 230.827C252.513 231.569 255.365 232.116 258.294 232.39C259.154 232.702 260.013 232.663 260.912 232.585C262.279 232.624 263.724 232.351 265.013 233.132C265.794 233.171 266.575 233.171 267.357 233.21C266.966 233.835 266.575 234.499 266.185 235.124C265.872 235.476 265.794 235.983 265.404 236.296C263.841 237.897 262.279 239.538 260.755 241.14C259.662 242.272 258.529 243.288 257.201 244.108Z" fill="#DBDBDC"/>
<path d="M109.548 314.771C109.587 309.653 109.665 304.536 109.04 299.458C108.923 298.443 109.275 298.404 110.017 298.365C111.423 298.247 112.868 298.716 114.196 298.052C114.47 298.013 114.704 297.974 114.978 297.935C115.446 298.169 116.149 297.662 116.423 298.404C117.087 299.654 117.126 300.982 117.165 302.349C117.243 306.294 116.892 310.278 117.438 314.224C117.517 314.731 117.438 315.278 117.204 315.747C116.579 316.528 115.759 316.177 115.056 316.06C113.376 315.747 111.735 315.552 110.056 315.161C109.86 315.083 109.704 314.966 109.548 314.771Z" fill="#428CFB"/>
<path d="M192.749 297.584C192.749 294.615 192.749 291.607 192.749 288.639C193.101 288.209 193.609 288.092 194.156 288.092C197.71 288.053 201.265 288.053 204.819 288.092C205.288 288.092 205.718 288.209 206.108 288.482C207.046 291.529 206.968 294.615 206.148 297.662C205.601 298.131 204.937 298.131 204.312 298.131C201.265 298.091 198.218 298.287 195.132 298.209C194.273 298.209 193.413 298.287 192.749 297.584Z" fill="#EDEDED"/>
<path d="M185.249 353.871C185.796 349.379 188.999 347.387 192.592 347.231C193.803 347.192 195.053 347.192 196.264 347.153C196.459 346.996 196.655 346.879 196.889 346.801C198.647 346.723 200.444 346.332 202.201 347.114C202.865 348.09 202.787 349.145 202.397 350.199C201.811 350.981 200.912 350.863 200.092 350.902C198.022 350.942 195.952 350.902 193.881 350.942C191.03 350.981 189.428 352.191 189.077 354.496C188.764 356.684 189.897 358.09 192.67 359.027C194.858 359.457 197.045 359.144 199.233 359.223C200.131 359.262 201.069 359.066 201.85 359.691C202.397 360.668 202.475 361.605 201.772 362.543C198.256 362.738 194.741 362.738 191.186 362.543C187.905 361.644 185.874 359.613 185.249 356.215C185.053 355.434 185.092 354.652 185.249 353.871Z" fill="#171C53"/>
<path d="M205.64 224.89C205.522 224.929 205.366 224.929 205.249 224.968C203.569 224.382 202.046 223.327 200.171 223.366C199.78 222.507 198.687 222.859 198.218 222.195C197.905 221.882 197.866 221.531 197.905 221.101C197.983 218.054 198.413 215.007 198.023 211.96C197.944 211.335 198.257 210.71 198.53 210.085C198.608 209.89 198.687 209.734 198.765 209.578C199.038 208.757 198.687 207.664 199.624 207.078C202.163 206.531 204.663 207.039 207.124 207.625C207.241 207.781 207.358 208.054 207.241 208.132C205.561 209.109 205.952 210.515 205.991 212.156C206.069 216.179 206.499 220.202 205.991 224.226C205.952 224.499 205.835 224.734 205.64 224.89Z" fill="#F4A5A0"/>
<path d="M210.366 319.536C216.85 319.497 223.373 319.458 229.857 319.419C232.279 318.481 234.701 318.677 237.123 319.263C237.474 320.317 236.615 320.317 236.107 320.239C235.092 320.083 234.076 320.122 233.06 319.966C234.115 320.2 235.404 319.653 236.107 320.981C236.693 322.153 236.732 323.325 236.615 324.575C236.576 325.044 236.498 325.473 236.42 325.903C236.185 327.231 236.771 327.817 238.099 327.817C240.482 327.817 242.904 327.778 245.287 327.817C249.662 327.739 253.997 327.739 258.372 327.817C264.153 327.856 269.935 327.544 275.716 327.973C275.95 328.051 276.184 328.208 276.38 328.364C277.513 328.637 278.802 327.934 279.817 328.833C279.231 329.38 278.528 329.38 277.825 329.38C270.716 329.38 263.607 329.458 256.458 329.34C247.513 329.458 238.607 329.38 229.662 329.38C228.881 329.38 228.1 329.38 227.357 329.145C226.186 328.755 225.834 327.817 225.795 326.723C225.717 325.356 225.795 323.989 225.756 322.661C225.678 320.63 225.482 320.434 223.529 320.356C221.967 320.317 220.444 320.395 218.881 320.317C216.733 320.356 214.623 320.395 212.475 320.317C211.655 320.434 210.678 320.669 210.366 319.536Z" fill="#E2E3E3"/>
<path d="M176.695 211.374C177.476 211.921 178.296 212.429 179.429 213.21C173.101 213.21 167.124 213.21 161.148 213.21C160.054 210.124 159 207 157.906 203.914C159.234 203.64 159.781 204.968 160.796 205.32C161.812 205.671 162.789 206.179 163.804 206.648C165.874 206.843 167.71 207.898 169.702 208.249C172.163 209.031 174.781 209.382 176.695 211.374Z" fill="#E84A47"/>
<path d="M170.484 167.118C170.054 166.571 169.429 166.727 168.843 166.727C163.335 166.688 157.867 166.61 152.359 166.649C151.578 166.649 151.148 166.493 150.758 165.672C156.695 164.54 162.359 162.626 168.257 161.61C169.507 161.376 170.679 160.751 172.007 160.907C172.827 162.665 173.57 164.462 173.96 166.376C173.101 167.899 171.656 166.805 170.484 167.118Z" fill="#D23A38"/>
<path d="M89.6263 295.279C88.845 297.271 89.3528 299.341 89.2747 301.372C89.1966 302.974 89.2747 304.575 89.2747 306.177C87.2826 306.06 86.2279 304.38 84.8608 303.286C82.9467 301.841 81.1108 300.318 79.2749 298.794C78.2593 297.583 76.2672 297.232 75.9938 295.318C77.2047 294.654 78.6109 294.732 79.8999 294.419C81.853 294.263 83.8061 294.263 85.7201 294.419C86.9701 294.81 88.3763 294.654 89.6263 295.279Z" fill="#428CFB"/>
<path d="M269.7 331.958C271.146 331.958 272.552 331.958 273.997 331.919C274.153 331.801 274.31 331.684 274.505 331.645C275.13 331.606 275.599 331.84 275.95 332.387C275.95 332.505 275.989 332.583 275.989 332.7C275.052 334.34 276.692 336.372 275.169 337.934C274.974 338.129 274.974 338.598 275.169 338.872C276.849 341.293 275.13 343.95 275.599 346.41C275.325 346.879 274.856 346.684 274.466 346.801C273.099 347.153 271.732 346.879 270.364 346.957C269.388 346.996 269.153 346.371 269.153 345.551C269.114 341.332 269.193 337.114 269.232 332.895C269.153 332.544 269.427 332.231 269.7 331.958Z" fill="#2577DF"/>
<path d="M186.499 217.038C187.28 213.914 186.694 210.75 186.89 207.586C186.929 206.765 186.89 205.906 186.89 205.047C188.374 204.851 189.702 206.414 191.265 205.398C192.163 205.554 193.061 205.632 193.686 206.414C193.413 210.476 193.764 214.539 193.413 218.562C193.374 219.031 193.804 219.773 192.827 219.851C190.561 219.226 188.491 218.21 186.499 217.038Z" fill="#F6ABA5"/>
<path d="M192.788 219.851C193.335 216.179 193.139 212.507 193.1 208.875C193.1 208.093 192.866 207.234 193.608 206.57C195.678 205.828 197.631 205.867 199.389 207.351C199.233 208.289 199.741 209.304 198.999 210.124C198.725 209.812 198.842 209.46 198.803 209.109C198.842 209.46 198.686 209.851 198.999 210.124C198.335 211.335 198.647 212.624 198.647 213.913C198.686 216.687 198.374 219.46 198.217 222.234C196.303 221.648 194.467 220.905 192.788 219.851Z" fill="#F5A8A2"/>
<path d="M272.083 316.294C273.958 316.294 275.872 316.45 277.708 316.294C279.466 316.138 280.091 316.763 279.817 318.481C279.778 318.794 279.817 319.146 279.817 319.458C278.528 320.044 277.122 319.341 275.833 319.927C270.286 320.317 264.739 320.044 259.193 320.044C257.787 320.044 256.341 320.161 254.935 319.888C254.154 318.989 253.919 316.88 254.544 315.942C259.974 315.63 265.364 315.825 270.794 315.825C271.302 315.825 271.732 316.021 272.083 316.294Z" fill="#87B2F3"/>
<path d="M191.577 183.602C191.577 187 191.577 190.359 191.577 193.758C189.624 194.344 188.257 193.094 186.773 192.156C185.093 187.664 183.374 183.172 182.163 178.485C184.781 181.18 188.179 182.43 191.577 183.602Z" fill="#F9B1AA"/>
<path d="M278.607 274.889C278.88 276.412 278.528 277.857 278.216 279.342C276.966 282.31 275.325 284.849 271.693 285.123C270.911 285.435 270.13 285.201 269.349 285.279C268.333 285.123 268.451 284.42 268.919 283.951C269.427 283.443 269.505 282.701 270.013 282.193C270.365 281.92 270.794 281.803 271.224 281.607C273.099 280.826 274.271 279.459 274.115 277.428C273.958 275.24 272.552 273.951 270.404 273.482C269.818 273.404 269.193 273.404 268.724 272.936C268.255 271.49 267.24 271.1 265.794 271.139C264.115 271.139 264.115 271.061 264.037 269.967C266.732 269.225 269.349 270.123 272.005 270.201C274.583 270.592 276.302 272.115 277.435 274.342C277.63 274.732 277.591 275.279 278.255 274.928C278.372 274.85 278.45 274.81 278.607 274.889Z" fill="#7CABF0"/>
<path d="M192.749 297.583C197.163 297.818 201.616 297.739 206.03 297.622C206.772 296.958 207.71 296.997 208.608 296.997C210.717 296.997 212.866 296.919 214.975 297.036C217.319 296.997 219.702 296.958 222.045 297.036C224.662 296.958 227.24 296.958 229.858 297.036C232.201 296.958 234.545 296.958 236.889 297.036C239.506 296.958 242.084 296.958 244.701 297.036C247.201 296.958 249.701 296.958 252.201 297.036C256.146 296.919 260.13 296.997 264.076 296.997C264.857 296.997 265.638 296.958 266.224 297.7C265.013 298.364 263.685 297.974 262.435 298.013C259.154 298.091 255.834 298.052 252.552 298.091C251.966 298.56 251.263 298.638 250.521 298.638C241.342 298.638 232.162 298.716 222.983 298.599C215.756 298.716 208.53 298.482 201.304 298.989C201.89 299.927 202.749 299.732 203.53 299.732C209.975 299.771 216.381 299.693 222.827 299.771C225.287 299.888 227.787 299.302 230.209 300.2C230.404 300.396 230.444 300.63 230.248 300.864C228.803 301.685 227.24 301.255 225.756 301.333C224.155 301.411 222.553 301.216 220.952 301.294C218.1 301.372 215.21 301.372 212.358 301.294C210.366 301.372 208.374 301.333 206.343 301.333C205.561 301.333 204.78 301.333 204.155 300.786C199.39 300.747 194.663 300.708 189.898 300.669C189.741 297.739 189.741 297.739 192.749 297.583Z" fill="#242969"/>
<path d="M268.841 359.808C268.841 360.668 268.88 361.527 268.88 362.387C268.724 362.465 268.568 362.621 268.372 362.621C260.208 362.582 252.084 362.738 243.92 362.543C243.139 361.566 243.217 360.59 243.842 359.613C244.584 359.066 245.443 359.183 246.263 359.183C252.279 359.183 258.294 359.183 264.31 359.183C265.872 359.183 267.357 359.457 268.841 359.808Z" fill="#202565"/>
<path d="M274.466 331.88C274.309 331.88 274.153 331.919 273.958 331.919C273.372 331.333 272.591 331.567 271.927 331.567C266.497 331.528 261.068 331.567 255.599 331.528C254.466 330.239 255.286 329.497 256.38 328.833C264.192 328.833 271.966 328.833 279.778 328.833C279.778 329.692 279.817 330.591 279.817 331.45C278.098 332.075 276.263 331.606 274.466 331.88Z" fill="#88B2F3"/>
<path d="M268.92 303.872C268.92 306.138 269.037 308.403 268.881 310.669C268.763 312.349 269.232 313.13 270.99 312.856C271.38 312.778 271.771 312.856 272.005 313.247C271.302 313.872 270.443 313.833 269.584 313.833C267.162 313.833 264.779 313.872 262.357 313.833C260.56 313.56 258.685 314.106 256.928 313.442C256.732 313.286 256.654 313.091 256.693 312.856C257.943 311.919 259.428 312.349 260.834 312.31C262.162 312.271 262.865 311.88 262.904 310.435C262.943 309.224 263.256 308.013 263.217 306.763C263.178 305.552 262.592 304.966 261.459 304.888C259.974 304.771 258.49 304.888 257.006 304.81C254.74 304.888 252.436 304.888 250.17 304.81C248.1 304.888 246.029 304.849 243.92 304.849C241.967 304.81 240.014 304.927 238.022 304.849C236.85 304.771 235.678 304.966 234.506 304.81C233.881 304.732 232.983 304.888 232.944 303.794C234.35 302.857 235.952 303.325 237.475 303.247C238.569 303.169 239.662 303.169 240.756 303.247C244.78 303.208 248.842 303.169 252.865 303.247C257.279 303.169 261.693 303.208 266.107 303.208C267.123 303.247 268.138 303.091 268.92 303.872Z" fill="#EDEDED"/>
<path d="M268.919 285.084C269.857 285.084 270.794 285.123 271.732 285.123C270.638 285.904 269.232 285.005 268.138 285.748C267.552 285.669 267.005 285.474 266.419 285.474C257.357 285.474 248.295 285.513 239.233 285.513C236.85 285.435 234.506 286.568 232.123 285.748C231.342 284.771 232.319 284.615 232.787 284.654C234.662 284.771 235.17 283.638 235.404 282.154C236.225 281.646 237.162 281.881 238.061 281.763C239.35 281.763 240.639 281.724 241.889 281.763C242.24 281.763 242.592 281.724 242.982 281.763C246.068 281.802 249.193 281.763 252.279 281.802C253.099 281.802 253.959 281.685 254.74 282.154C255.599 284.459 255.599 284.498 258.334 284.498C261.068 284.498 263.802 284.498 266.537 284.498C267.357 284.537 268.216 284.498 268.919 285.084Z" fill="#88B2F3"/>
<path d="M196.733 331.997C204.897 331.997 213.1 331.958 221.264 331.958C220.209 332.817 220.014 334.418 218.686 335.082C212.475 334.653 206.303 335.004 200.092 334.887C198.96 334.848 197.788 335.122 196.655 334.653C196.694 333.793 196.733 332.895 196.733 331.997Z" fill="#428CFB"/>
<path d="M268.919 303.872C263.568 303.833 258.255 303.833 252.904 303.794C252.865 302.466 253.177 301.294 254.388 300.513C256.185 300.513 258.021 300.513 259.818 300.513C260.638 300.552 261.419 300.396 262.24 300.63C262.396 300.63 262.513 300.63 262.669 300.63C264.349 300.279 266.068 300.786 267.747 300.318C267.865 300.318 267.982 300.357 268.138 300.396C268.685 300.865 269.388 300.669 270.013 300.669C271.185 300.63 272.122 300.591 272.083 302.31C272.044 303.95 271.146 303.872 270.091 303.833C269.7 303.833 269.31 303.872 268.919 303.872Z" fill="#9CC0FA"/>
<path d="M275.56 346.449C275.169 345.121 273.958 343.832 275.638 342.387C275.911 342.153 275.364 340.707 274.974 339.926C274.739 339.457 274.466 338.989 274.583 338.52C274.896 337.036 275.872 335.668 275.013 334.028C274.544 333.168 276.224 333.598 275.989 332.739C278.919 334.028 280.286 336.411 280.247 339.496C280.169 342.739 278.645 345.121 275.56 346.449Z" fill="#2175DC"/>
<path d="M268.919 347.231C268.919 347.426 268.88 347.621 268.919 347.817C269.271 349.731 268.685 350.707 266.575 350.395C266.38 350.551 266.146 350.668 265.911 350.746C261.536 350.981 257.122 351.176 252.747 350.629C252.005 349.496 251.068 348.403 251.263 346.879C254.036 346.371 256.81 346.723 259.583 346.645C261.966 346.606 264.349 346.606 266.732 346.645C267.513 346.684 268.333 346.567 268.919 347.231Z" fill="#212666"/>
<path d="M204.077 197.898C204.077 194.149 204.116 190.399 204.038 186.688C203.999 185.672 204.389 185.164 205.21 184.774C205.757 184.774 206.264 184.774 206.811 184.774C207.397 188.797 208.022 192.82 208.608 196.844C208.725 197.625 208.725 198.367 208.764 199.148C206.967 199.656 205.444 199.187 204.077 197.898Z" fill="#F5A8A2"/>
<path d="M196.655 334.653C204.194 334.653 211.733 334.653 219.311 334.653C219.897 334.184 220.561 334.223 221.225 334.341C221.811 334.575 222.592 334.536 222.904 335.278C221.889 337.192 222.319 339.301 222.201 341.333C222.162 342.192 222.553 343.325 221.264 343.715C217.358 343.715 217.358 343.715 217.358 339.848C217.358 338.325 217.905 336.137 217.123 335.434C216.264 334.653 214.194 335.161 212.631 335.161C208.334 335.161 204.038 335.161 199.78 335.161C199.663 335.356 199.546 335.356 199.389 335.2C198.491 334.927 197.475 335.512 196.655 334.653Z" fill="#E9EAEA"/>
<path d="M252.123 254.616C257.709 254.538 263.294 254.381 268.88 254.694C268.685 255.553 269.271 256.569 268.529 257.35C267.747 257.819 266.81 257.311 266.029 257.702C261.38 257.936 256.771 258.287 252.162 257.506C251.381 256.569 251.42 255.592 252.123 254.616Z" fill="#2074DA"/>
<path d="M262.24 313.247C265.482 313.247 268.763 313.247 272.005 313.208C272.005 314.106 272.005 315.005 272.005 315.903C268.724 316.372 265.443 315.981 262.122 316.099C260.755 316.138 259.388 316.099 258.06 316.099C257.513 316.099 256.849 316.099 257.044 315.356C257.279 314.575 257.396 313.56 258.568 313.481C259.818 313.481 261.068 313.56 262.24 313.247Z" fill="#9EC1FB"/>
<path d="M239.584 157.782C239.349 158.29 239.115 158.797 238.881 159.344C237.201 159.461 235.717 160.086 234.271 160.946C233.139 161.61 231.889 161.649 230.6 161.688C229.818 160.516 229.701 159.11 229.428 157.782C231.42 157.665 233.06 156.493 234.857 155.907C235.639 155.633 236.381 155.165 237.24 155.438C238.256 155.985 238.881 156.922 239.584 157.782Z" fill="#F5A8A2"/>
<path d="M257.2 315.942C262.122 315.942 267.083 315.942 272.005 315.942C272.044 316.06 272.083 316.177 272.083 316.294C266.067 316.333 260.091 316.333 254.076 316.372C253.412 317.036 252.513 316.958 251.693 316.958C245.716 316.997 239.74 316.997 233.803 316.958C232.982 316.958 232.084 317.036 231.42 316.372C222.358 316.372 213.256 316.333 204.194 316.372C203.256 316.372 202.28 316.606 201.342 316.724C200.131 315.942 198.764 316.528 197.475 316.333C196.421 316.177 195.327 316.685 194.35 315.942C195.249 315.942 196.186 315.903 197.085 315.903C198.374 314.966 199.819 315.396 201.225 315.317C202.592 315.278 203.959 315.239 205.288 315.356C209.702 315.278 214.116 315.278 218.569 315.356C224.154 315.278 229.779 315.278 235.365 315.356C241.927 315.239 248.49 315.317 255.052 315.317C255.794 315.356 256.576 315.317 257.2 315.942Z" fill="#B8D1FA"/>
<path d="M268.841 359.809C264.349 359.769 259.896 359.73 255.404 359.73C251.576 359.73 247.748 359.769 243.92 359.809C243.334 360.316 242.631 360.355 241.889 360.355C235.678 360.355 229.428 360.433 223.217 360.316C216.772 360.433 210.366 360.355 203.921 360.355C203.139 360.355 202.358 360.316 201.694 359.809C199.233 359.769 196.772 359.769 194.272 359.73C193.569 359.73 192.827 359.926 192.202 359.418C192.749 358.715 193.569 358.754 194.311 358.754C198.061 358.754 201.772 358.676 205.522 358.793C209.936 358.715 214.389 358.715 218.803 358.793C221.576 358.715 224.311 358.715 227.084 358.793C230.99 358.715 234.896 358.715 238.803 358.793C243.099 358.715 247.357 358.715 251.654 358.793C256.38 358.793 261.146 358.559 265.872 358.91C266.107 358.988 266.341 359.105 266.536 359.262C267.318 359.535 268.294 358.754 268.841 359.809Z" fill="#B2B4C6"/>
<path d="M206.03 288.599C201.616 288.443 197.163 288.404 192.749 288.638C191.851 288.638 190.952 288.599 190.054 288.599C190.054 288.482 190.015 288.365 190.015 288.208C190.64 287.623 191.421 287.583 192.202 287.583C196.421 287.583 200.64 287.505 204.858 287.623C214.077 287.505 223.334 287.583 232.553 287.583C233.295 287.583 233.998 287.662 234.584 288.13C244.389 288.13 254.154 288.169 263.958 288.169C264.701 288.169 265.521 287.935 266.185 288.482C265.638 289.185 264.818 289.185 264.037 289.185C260.091 289.185 256.146 289.263 252.201 289.146C249.701 289.185 247.201 289.224 244.701 289.146C242.084 289.224 239.506 289.224 236.889 289.146C234.545 289.224 232.201 289.224 229.858 289.146C227.24 289.224 224.662 289.224 222.045 289.146C219.702 289.224 217.319 289.224 214.975 289.146C212.71 289.224 210.444 289.185 208.217 289.185C207.436 289.224 206.655 289.185 206.03 288.599Z" fill="#262C68"/>
<path d="M237.318 155.399C235.248 156.493 232.787 156.805 230.873 158.251C230.678 158.407 229.975 157.938 229.506 157.743C228.92 157.235 228.686 156.571 228.686 155.79C228.725 154.97 229.271 154.813 229.936 154.501C231.42 153.837 232.943 153.29 234.193 152.235C234.428 152.235 234.662 152.196 234.857 152.196C235.599 153.329 236.888 154.032 237.318 155.399Z" fill="#F2A29D"/>
<path d="M230.639 161.688C232.904 160.946 235.17 160.282 237.162 158.954C237.865 158.485 238.217 159.579 238.881 159.383C237.826 162.196 235.639 163.68 232.826 164.462C232.279 164.618 231.654 164.579 231.264 165.126C231.068 163.954 230.873 162.821 230.639 161.688Z" fill="#F5ACA6"/>
<path d="M268.88 267.154C268.88 268.053 268.919 268.951 268.919 269.85C267.083 270.318 265.169 269.85 263.294 270.123C262.044 269.342 261.341 268.404 262.083 266.881C264.388 266.178 266.615 266.998 268.88 267.154Z" fill="#2074DA"/>
<path d="M263.06 269.811C265.013 269.811 266.966 269.85 268.919 269.85C269.974 270.006 271.106 269.498 272.083 270.24C269.349 270.24 266.614 270.24 263.88 270.24C263.216 270.944 262.317 270.826 261.497 270.826C259.036 270.826 256.575 270.865 254.114 270.826C249.505 270.865 244.896 270.865 240.287 270.826C239.349 270.826 238.295 271.022 237.63 270.006C237.787 269.576 238.138 269.459 238.529 269.342C243.06 269.069 247.591 269.225 252.161 269.225C255.013 269.108 257.825 269.186 260.677 269.186C261.497 269.225 262.278 269.381 263.06 269.811Z" fill="#94BAF3"/>
<path d="M268.919 347.231C262.943 347.231 256.967 347.231 250.99 347.27C249.74 348.051 248.49 347.895 247.201 347.387C247.006 347.231 246.928 346.997 247.006 346.762C247.279 346.489 247.631 346.372 247.982 346.293C250.287 346.137 252.592 346.215 254.896 346.215C257.24 346.137 259.584 346.176 261.927 346.215C264.545 346.372 267.201 345.629 269.701 346.762C271.263 346.762 272.865 346.801 274.427 346.801C272.63 347.621 270.716 346.997 268.919 347.231Z" fill="#5695EA"/>
<path d="M268.88 267.154C266.575 267.154 264.232 267.154 261.927 267.154C261.302 267.779 260.521 267.74 259.739 267.74C257.2 267.74 254.7 267.819 252.161 267.701C249.388 267.779 246.615 267.74 243.841 267.701C242.982 267.701 241.966 267.897 241.498 266.803C243.06 265.592 244.857 266.295 246.537 266.139C247.865 266.1 249.193 266.1 250.521 266.139C252.201 266.1 253.88 266.061 255.56 266.139C257.122 266.1 258.646 266.1 260.208 266.139C261.966 266.139 263.763 265.983 265.521 266.256C265.755 266.334 265.95 266.451 266.146 266.608C267.044 266.998 268.138 266.217 268.88 267.154Z" fill="#6DA2E5"/>
<path d="M266.185 266.647L265.989 266.686L265.794 266.647C265.013 265.787 265.169 264.733 265.208 263.717C265.247 261.881 265.013 260.006 265.404 258.17C265.482 257.936 265.638 257.74 265.833 257.623C265.95 257.662 266.068 257.662 266.185 257.701C266.185 260.709 266.185 263.678 266.185 266.647Z" fill="#FDFDFD"/>
<path d="M266.576 359.222L266.38 359.262H266.185C265.13 356.332 265.169 353.363 266.146 350.434C266.263 350.434 266.419 350.434 266.537 350.434C266.576 353.324 266.576 356.293 266.576 359.222Z" fill="#FDFDFD"/>
<path d="M199.389 335.122C199.506 335.122 199.624 335.083 199.78 335.083C199.78 337.348 199.819 339.575 199.78 341.84C199.78 342.465 200.014 343.129 199.389 343.637C199.389 340.825 199.389 337.973 199.389 335.122Z" fill="#FDFDFD"/>
<path d="M279.778 254.264C279.817 255.358 279.935 256.452 279.505 257.467C279.583 256.413 279.153 255.28 279.778 254.264Z" fill="#FDFDFD"/>
<path d="M279.387 260.514C279.426 261.608 279.544 262.701 279.114 263.717C279.192 262.662 278.762 261.53 279.387 260.514Z" fill="#FDFDFD"/>
<path d="M278.997 266.764C279.036 267.858 279.153 268.951 278.723 269.967C278.802 268.912 278.372 267.779 278.997 266.764Z" fill="#FDFDFD"/>
<path d="M280.169 248.014C280.169 249.108 280.325 250.202 279.896 251.217C279.974 250.163 279.544 249.03 280.169 248.014Z" fill="#FDFDFD"/>
<path d="M280.559 241.764C280.559 242.858 280.716 243.952 280.286 244.967C280.364 243.913 279.934 242.78 280.559 241.764Z" fill="#FDFDFD"/>
<path d="M280.95 235.514C280.95 236.608 281.106 237.702 280.677 238.718C280.755 237.663 280.325 236.53 280.95 235.514Z" fill="#FDFDFD"/>
<path d="M281.34 229.265C281.34 230.358 281.497 231.452 281.067 232.468C281.145 231.413 280.715 230.28 281.34 229.265Z" fill="#FDFDFD"/>
<path d="M281.77 223.015C281.731 224.109 281.927 225.202 281.458 226.218C281.536 225.163 281.067 224.03 281.77 223.015Z" fill="#FDFDFD"/>
<path d="M165.015 241.764C164.976 242.546 164.507 242.975 163.843 243.288C163.882 242.507 164.39 242.077 165.015 241.764Z" fill="#FDFDFD"/>
<path d="M162.281 244.889C162.242 245.67 161.773 246.1 161.109 246.413C161.148 245.631 161.656 245.202 162.281 244.889Z" fill="#FDFDFD"/>
<path d="M159.546 248.014C159.507 248.796 159.039 249.225 158.375 249.538C158.414 248.757 158.921 248.327 159.546 248.014Z" fill="#FDFDFD"/>
<path d="M266.107 257.428C266.888 257.428 267.708 257.389 268.49 257.389C267.826 258.053 266.927 257.506 266.185 257.78L266.224 257.741C266.107 257.702 266.029 257.663 266.029 257.584C266.068 257.467 266.068 257.428 266.107 257.428Z" fill="#317EE1"/>
<path d="M178.687 315.161C178.765 314.497 178.414 313.755 179.078 313.208C179 313.872 179.351 314.614 178.687 315.161Z" fill="#FDFDFD"/>
<path d="M179.078 309.693C179.156 309.029 178.804 308.286 179.468 307.74C179.39 308.404 179.742 309.146 179.078 309.693Z" fill="#FDFDFD"/>
<path d="M136.5 313.989C138.336 311.06 139.352 307.779 140.719 304.654C144.976 294.81 149.117 284.888 153.297 275.006C154.508 272.154 155.679 269.264 156.89 266.412C157.281 265.553 157.476 264.537 158.414 264.03C157.828 267.506 156.5 270.748 155.484 274.068C151.422 287.388 147.281 300.669 143.102 313.989C142.672 315.357 142.359 316.88 141.227 317.935C139.195 317.153 137.633 315.786 136.5 313.989Z" fill="#D6D7D8"/>
<path d="M193.921 268.717C195.171 265.748 196.499 262.78 197.71 259.772C198.061 258.873 198.608 258.209 199.389 257.701C201.147 256.92 202.827 255.827 204.858 255.709C205.327 256.139 205.444 256.686 205.444 257.272C205.522 260.983 205.522 264.733 205.444 268.443C205.444 268.912 205.327 269.342 205.092 269.732C204.897 270.006 204.624 270.201 204.272 270.24C201.303 270.357 198.296 270.709 195.366 270.006C194.741 269.85 194.311 269.459 193.96 268.951C193.999 268.912 193.999 268.834 193.921 268.717Z" fill="#418CFB"/>
<path d="M204.858 288.17C199.897 288.209 194.936 288.209 189.976 288.248C189.702 287.31 189.702 286.373 190.015 285.435C191.577 285.084 193.179 285.631 194.741 285.123C198.1 285.006 201.46 284.615 204.819 285.357C205.561 286.256 205.6 287.193 204.858 288.17Z" fill="#242969"/>
<path d="M194.702 285.396C193.139 285.396 191.577 285.396 190.015 285.396C189.975 285.279 189.975 285.201 190.015 285.084C191.421 285.045 192.866 285.045 194.272 285.006C194.389 284.928 194.507 284.889 194.624 285.006C194.702 285.084 194.741 285.162 194.702 285.24C194.741 285.357 194.702 285.396 194.702 285.396Z" fill="#9BBFFA"/>
<path d="M209.155 199.578C209.311 197.781 209.78 196.336 211.577 195.281C216.928 192.156 222.124 188.797 227.436 185.555C229.623 184.227 230.014 184.383 230.678 186.648C229.975 194.5 226.655 199.695 219.077 202.976C216.147 204.226 213.061 204.968 209.897 205.398C208.882 203.562 208.218 201.687 209.155 199.578Z" fill="#1B205B"/>
<path d="M265.013 233.093C263.567 233.093 262.161 233.054 260.716 233.054C259.935 232.741 259.036 233.132 258.255 232.78C254.505 232.897 251.029 231.569 247.435 230.788C243.802 229.343 240.091 227.937 236.888 225.593C237.24 224.382 238.412 224.304 239.232 224.265C242.083 224.069 244.818 223.366 247.396 222.194C249.232 223.874 251.536 224.812 253.607 226.062C256.888 228.054 260.208 229.89 263.528 231.804C264.153 232.155 264.7 232.507 265.013 233.093Z" fill="#191E57"/>
<path d="M207.241 208.132C207.983 208.093 208.881 208.328 208.842 207.117C210.053 213.718 211.264 220.32 212.514 226.921C210.17 226.374 207.866 225.827 205.639 224.929C205.639 221.374 205.639 217.859 205.6 214.304C205.6 213.171 205.795 212.078 205.209 210.945C204.545 209.695 205.717 208.328 207.241 208.132Z" fill="#F2A29D"/>
<path d="M176.695 211.374C174.351 210.437 172.007 209.538 169.663 208.601C169.312 206.804 169.624 205.046 169.82 203.25C170.054 200.945 169.781 198.64 169.82 196.375C169.82 195.711 169.624 194.929 170.445 194.5C171.929 194.461 172.632 193.719 172.906 192.273C173.296 190.281 173.14 188.094 174.468 186.336C175.054 185.555 175.64 184.539 176.773 184.93C177.945 185.281 177.593 186.453 177.476 187.312C176.929 191.258 177.085 195.203 177.124 199.187C176.03 202.351 177.28 205.593 176.89 208.796C176.812 209.578 176.538 210.476 176.695 211.374Z" fill="#FAB3AC"/>
<path d="M170.484 194.461C169.976 197.117 170.562 199.773 170.327 202.39C170.171 204.461 170.21 206.531 169.663 208.562C167.554 208.289 165.601 207.664 163.804 206.609C164.195 205.476 162.906 204.5 163.609 203.211C164.703 201.101 163.531 198.719 164.195 196.492C164.312 196.101 164.312 195.359 164.078 195.203C161.968 193.601 163.726 192.586 164.585 191.414C166.538 192.43 168.296 193.836 170.484 194.461Z" fill="#FBB6AF"/>
<path d="M215.795 254.538C216.069 254.577 216.303 254.616 216.577 254.655C217.28 256.647 216.772 258.639 216.616 260.631C216.499 261.998 216.577 263.287 216.733 264.654C216.928 266.569 217.358 268.639 215.678 270.24C213.96 270.318 212.241 270.748 210.6 269.889C210.171 269.264 210.132 268.561 210.132 267.858C210.092 264.108 210.21 260.358 210.053 256.608C209.975 254.498 211.499 254.928 212.631 254.655C212.749 254.616 212.905 254.577 213.022 254.538C213.96 254.577 214.897 254.538 215.795 254.538Z" fill="#3B87F4"/>
<path d="M212.67 254.694C210.795 254.85 210.6 255.905 210.678 257.623C210.874 261.686 210.756 265.748 210.756 269.811C209.624 270.865 208.217 270.24 206.928 270.396C206.225 270.357 205.444 270.475 204.897 269.811C204.897 265.123 204.897 260.436 204.897 255.748C207.397 254.967 210.014 254.733 212.67 254.694Z" fill="#3E8AF7"/>
<path d="M130.172 309.341C129.274 311.958 128.375 314.536 127.477 317.153C126.578 318.716 125.797 318.833 123.727 317.739C122.555 316.45 122.242 314.927 122.242 313.247C122.242 310.279 122.594 307.271 121.11 304.458C120.836 303.911 120.446 302.935 121.696 302.661C122.321 303.208 122.946 303.716 123.571 304.263C125.797 305.943 127.985 307.622 130.172 309.341Z" fill="#428CFB"/>
<path d="M225.17 254.694C227.905 254.694 230.639 254.655 233.373 254.655C233.373 254.772 233.373 255.006 233.334 255.006C230.795 255.709 231.264 257.78 231.225 259.576C231.225 262.194 231.225 264.772 231.225 267.389C231.225 268.287 231.303 269.225 230.717 270.006C227.944 270.787 225.131 270.475 222.319 270.201C221.264 269.42 221.459 268.248 221.459 267.154C221.42 263.717 221.616 260.28 221.459 256.842C221.381 255.319 221.85 254.655 223.452 254.889C223.998 254.967 224.623 254.967 225.17 254.694Z" fill="#3382ED"/>
<path d="M230.639 269.811C230.639 265.67 230.678 261.53 230.6 257.389C230.561 255.827 230.717 254.694 232.709 255.006C232.904 255.045 233.139 254.772 233.334 254.655C234.896 254.655 236.459 254.655 238.021 254.655C238.92 255.827 238.529 257.194 238.529 258.522C238.529 258.756 238.529 259.069 238.412 259.264C236.928 261.803 237.592 263.99 239.467 266.022C239.935 267.506 240.326 268.99 238.451 269.85C238.178 269.889 237.943 269.928 237.67 269.967C237.24 270.67 236.537 270.436 235.873 270.475C234.154 270.162 232.279 270.982 230.639 269.811Z" fill="#2F7FE9"/>
<path d="M225.17 254.694C225.014 254.811 224.819 255.006 224.701 255.006C221.733 254.498 221.967 256.373 222.006 258.405C222.123 262.233 222.045 266.022 222.045 269.85C220.092 270.787 218.139 270.787 216.186 269.85C215.678 269.029 216.381 268.248 216.303 267.428C215.913 263.17 216.108 258.951 216.538 254.733C219.428 254.694 222.28 254.694 225.17 254.694Z" fill="#3785F1"/>
<path d="M238.099 259.03C238.099 257.545 238.06 256.061 238.06 254.616C242.748 254.616 247.435 254.616 252.123 254.616C252.123 255.514 252.123 256.452 252.123 257.35C251.498 258.014 250.716 257.858 249.935 257.897C248.06 257.897 246.185 258.053 244.31 257.936C242.123 257.78 240.131 258.483 238.099 259.03Z" fill="#2B7CE6"/>
<path d="M269.7 346.801C267.083 346.801 264.505 346.801 261.888 346.801C260.56 345.238 260.833 343.364 261.224 341.645C261.575 340.082 261.732 338.559 261.419 337.036C261.068 335.356 261.771 333.637 261.107 331.958C263.958 331.958 266.849 331.958 269.7 331.958C269.622 336.918 269.31 341.84 269.7 346.801Z" fill="#2779E2"/>
<path d="M247.826 346.801C247.552 346.801 247.318 346.801 247.044 346.84C246.224 347.543 245.208 347.387 244.271 347.348C242.162 347.27 240.013 347.582 237.943 347.114C236.927 346.372 237.084 345.278 237.123 344.262C237.24 343.95 237.513 343.793 237.826 343.676C240.482 343.012 241.615 341.918 241.849 339.848C242.044 338.012 241.146 336.45 239.388 335.591C238.88 335.356 238.295 335.239 237.787 334.926C237.006 333.833 236.888 332.817 238.06 331.919C241.459 331.919 244.818 331.919 248.216 331.919C247.943 336.294 248.099 340.668 248.06 345.043C248.06 345.668 248.138 346.293 247.826 346.801Z" fill="#3282EC"/>
<path d="M247.826 346.801C247.318 342.309 247.826 337.817 247.592 333.364C247.552 332.934 248.021 332.426 248.217 331.997C250.56 331.997 252.904 331.997 255.248 331.997C256.146 334.653 255.248 337.348 255.482 340.043C255.599 341.489 255.521 343.012 255.56 344.496C255.599 345.317 255.521 346.176 254.857 346.84C252.513 346.801 250.17 346.801 247.826 346.801Z" fill="#2F7FE9"/>
<path d="M254.857 346.801C255.17 343.598 254.974 340.434 254.974 337.231C254.974 335.473 255.17 333.715 255.248 331.958C257.201 331.958 259.154 331.958 261.107 331.958C261.498 332.27 262.123 332.622 261.927 333.207C261.498 334.614 261.654 336.02 261.966 337.348C262.474 339.535 261.341 341.567 261.537 343.754C261.615 344.77 261.771 345.785 261.888 346.801C259.545 346.801 257.201 346.801 254.857 346.801Z" fill="#2C7CE6"/>
<path d="M256.42 328.872C255.951 329.692 255.209 330.473 255.638 331.567C254.467 331.567 253.295 331.567 252.123 331.567C251.732 331.098 251.342 331.098 250.951 331.567C249.389 331.567 247.826 331.567 246.264 331.567C245.912 330.708 245.287 330.981 244.701 331.176C244.193 331.762 243.49 331.567 242.865 331.567C237.826 331.567 232.748 331.567 227.709 331.567C226.733 331.567 225.717 331.684 225.131 330.591C225.092 330.512 224.975 330.434 224.936 330.356C224.35 332.505 222.592 331.02 221.459 331.333C219.663 331.841 218.881 330.864 218.92 328.833C221.616 327.7 224.35 328.052 227.084 328.716C235.834 328.755 244.545 328.755 253.295 328.794C254.349 328.833 255.365 328.872 256.42 328.872Z" fill="#83AFF2"/>
<path d="M210.365 319.536C213.178 320.278 216.068 319.692 218.92 319.888C218.178 322.817 218.725 325.903 217.748 328.794C213.061 328.794 208.412 328.794 203.725 328.794C204.233 327.544 205.326 328.012 206.225 327.934C208.529 327.817 208.568 327.817 208.608 325.473C208.608 323.481 208.725 321.489 208.022 319.536C208.803 319.536 209.584 319.536 210.365 319.536Z" fill="#DCDDDE"/>
<path d="M231.42 316.372C238.959 316.372 246.537 316.372 254.075 316.372C255.443 317.232 255.091 318.325 254.466 319.419C253.021 320.552 251.341 319.771 249.818 320.044C248.099 320.122 246.38 320.044 244.662 320.044C242.865 320.122 241.068 320.083 239.271 320.044C238.568 320.044 237.826 320.044 237.279 319.497C234.818 319.458 232.318 319.419 229.857 319.419C229.193 317.817 230.248 317.075 231.42 316.372Z" fill="#83AFF2"/>
<path d="M207.983 319.536C208.764 320.083 209.233 320.708 209.155 321.762C209.038 323.52 209.077 325.239 209.155 326.997C209.194 328.051 208.803 328.481 207.71 328.481C206.382 328.52 205.014 328.129 203.725 328.754C200.874 328.09 199.39 325.708 199.78 323.208C200.171 320.786 202.046 319.458 205.093 319.458C206.069 319.458 207.046 319.497 207.983 319.536Z" fill="#DADADB"/>
<path d="M217.748 328.755C217.905 325.747 217.163 322.622 218.92 319.849C220.873 319.849 222.787 319.888 224.741 319.849C225.912 319.81 226.381 320.356 226.342 321.489C226.303 323.286 226.381 325.122 226.303 326.919C226.303 327.661 226.42 328.325 227.084 328.755C224.35 328.794 221.655 328.833 218.92 328.872C218.53 328.833 218.139 328.794 217.748 328.755Z" fill="#E0E0E1"/>
<path d="M221.303 334.77C220.639 334.731 219.975 334.692 219.311 334.653C219.116 333.129 219.78 332.27 221.264 331.997C224.506 331.997 227.787 331.997 231.029 331.997C232.084 332.934 231.967 333.911 231.264 335.004C230.834 335.239 230.404 335.278 229.936 335.317C227.045 335.317 224.155 335.356 221.303 334.77Z" fill="#3C89F6"/>
<path d="M231.42 334.653C231.185 333.793 231.459 332.817 231.029 331.997C233.373 331.997 235.716 331.997 238.06 331.997C237.396 332.817 237.591 333.754 237.67 334.653C235.599 335.629 233.49 335.629 231.42 334.653Z" fill="#3785F1"/>
<path d="M244.701 331.176C244.936 330.395 245.6 330.512 246.107 330.63C246.693 330.747 246.381 331.215 246.264 331.567C245.756 331.45 245.209 331.333 244.701 331.176Z" fill="#88B2F3"/>
<path d="M250.951 331.567C250.99 331.138 250.99 330.591 251.615 330.669C252.044 330.708 252.083 331.177 252.123 331.567C251.732 331.567 251.341 331.567 250.951 331.567Z" fill="#88B2F3"/>
<path d="M121.735 302.662C121.032 303.13 121.344 303.716 121.618 304.185C123.18 306.802 122.907 309.693 122.829 312.505C122.79 314.302 123.024 315.982 124.04 317.505C122.438 318.403 120.954 317.349 119.43 317.192C118.571 316.841 117.516 316.958 117.009 315.942C116.266 310.122 116.852 304.224 116.501 298.404C118.22 299.81 120.173 300.943 121.735 302.662Z" fill="#428CFB"/>
<path d="M119.313 316.763C120.876 317.036 122.438 317.27 124 317.544C125.211 318.052 126.422 318.403 127.477 317.153C127.164 318.052 127.946 318.013 128.414 318.286C127.789 318.364 127.477 318.677 127.555 319.341C128.336 325.434 127.672 331.567 127.907 337.7C124.899 335.434 122.047 333.012 119.274 330.512C118.844 328.09 119.196 325.63 119.118 323.208C119.079 321.723 119.157 320.239 118.922 318.794C118.805 318.052 118.727 317.309 119.313 316.763Z" fill="#428CFB"/>
<path d="M109.548 314.771C109.665 314.771 109.822 314.771 109.939 314.771C110.915 315.005 111.267 315.708 111.267 316.645C111.267 318.716 111.462 320.786 111.111 322.856C110.446 324.223 109.626 323.403 108.962 322.895C106.579 321.059 104.197 319.184 101.931 317.192C101.423 316.763 100.759 316.411 100.915 315.591C101.072 315.591 101.228 315.591 101.345 315.552C104.04 314.849 106.775 314.692 109.548 314.771Z" fill="#428CFB"/>
<path d="M252.123 288.599C256.81 288.56 261.498 288.56 266.185 288.521C268.763 289.107 270.13 290.631 270.169 293.013C270.208 295.474 268.841 297.076 266.185 297.701C261.498 297.662 256.81 297.662 252.123 297.623C251.146 294.615 251.146 291.607 252.123 288.599Z" fill="#D5D6D7"/>
<path d="M204.858 288.17C204.858 287.31 204.858 286.412 204.858 285.553C205.327 284.967 205.991 284.967 206.616 284.967C212.397 284.928 218.139 284.771 223.92 284.928C225.912 284.849 227.865 284.889 229.858 284.889C230.561 284.889 231.264 284.889 231.85 285.396C234.311 285.435 236.771 285.474 239.232 285.553C238.295 286.256 237.084 285.709 236.068 286.217C235.17 286.646 234.467 287.037 234.623 288.17C224.701 288.17 214.78 288.17 204.858 288.17Z" fill="#222961"/>
<path d="M222.865 298.052C232.748 298.052 242.631 298.052 252.552 298.052C252.552 298.794 252.552 299.576 252.552 300.318C251.888 301.021 250.99 300.865 250.17 300.865C244.349 300.865 238.529 300.865 232.67 300.865C231.85 300.865 230.951 300.943 230.287 300.318C227.826 300.318 225.326 300.318 222.865 300.318C222.24 299.576 222.201 298.794 222.865 298.052Z" fill="#1A1F5A"/>
<path d="M230.248 300.318C237.67 300.318 245.092 300.318 252.514 300.318C254.974 300.318 257.474 300.318 259.935 300.318C260.052 300.396 260.091 300.474 260.052 300.513C260.013 300.591 259.974 300.63 259.935 300.63C257.982 300.669 256.029 300.708 254.076 300.747C253.412 301.294 252.631 301.294 251.849 301.294C248.568 301.294 245.248 301.372 241.967 301.255C238.764 301.372 235.6 301.294 232.397 301.294C231.616 301.294 230.795 301.333 230.248 300.63C230.248 300.552 230.248 300.435 230.248 300.318Z" fill="#212666"/>
<path d="M267.747 300.357C266.107 301.099 264.349 300.63 262.669 300.669C264.349 299.966 266.068 300.474 267.747 300.357Z" fill="#212666"/>
<path d="M259.935 300.669C259.935 300.552 259.935 300.435 259.935 300.357C260.716 300.474 261.536 300.083 262.279 300.669C261.497 300.669 260.716 300.669 259.935 300.669Z" fill="#1A1F5A"/>
<path d="M205.249 315.942C202.514 315.942 199.78 315.942 197.046 315.942C196.968 315.044 197.475 314.341 197.866 313.599C199.702 310.005 201.577 306.372 203.452 302.779C203.764 302.154 204.155 301.529 204.077 300.786C206.811 300.786 209.545 300.786 212.28 300.786C212.827 301.372 212.709 301.997 212.436 302.622C210.405 307.036 208.022 311.294 205.678 315.552C205.561 315.708 205.366 315.825 205.249 315.942Z" fill="#8DB5F5"/>
<path d="M196.694 346.801C196.694 345.903 196.655 345.004 196.655 344.106C204.194 344.106 211.733 344.145 219.272 344.145C219.975 345.121 219.975 346.059 219.233 346.996C218.998 347.153 218.764 347.27 218.53 347.27C213.061 347.27 207.553 347.699 202.085 347.035C200.288 346.84 198.491 347.27 196.694 346.801Z" fill="#428CFB"/>
<path d="M221.264 343.715C222.124 341.606 221.538 339.379 221.616 337.231C221.655 336.176 221.967 335.551 222.827 335.121C222.866 335.082 222.944 335.043 222.983 335.043C226.928 334.575 226.928 334.575 226.928 338.481C226.928 338.989 226.967 339.496 226.928 340.043C226.85 341.645 226.772 343.207 228.998 343.442C229.35 343.481 229.701 343.793 229.35 344.301C226.616 344.926 223.92 345.277 221.264 344.067C221.264 343.91 221.264 343.793 221.264 343.715Z" fill="#E7E7E7"/>
<path d="M221.264 344.028C223.999 344.028 226.733 344.028 229.428 344.028C230.092 343.481 230.834 343.559 231.577 343.833C232.28 345.004 232.436 346.137 231.42 347.192C229.936 347.543 228.452 347.309 226.967 347.387C225.131 347.387 223.335 347.387 221.538 347.387C220.756 347.387 219.975 347.504 219.35 346.84C219.35 345.942 219.35 345.083 219.35 344.184C219.975 344.106 220.6 344.067 221.264 344.028Z" fill="#3C89F6"/>
<path d="M258.255 232.819C259.076 232.858 259.935 232.507 260.716 233.093C259.857 233.132 259.037 233.21 258.255 232.819Z" fill="#1B205B"/>
<path d="M110.681 323.52C110.681 321.215 110.681 318.911 110.759 316.606C110.798 315.825 110.524 315.278 109.977 314.77C112.36 314.888 114.665 315.434 117.009 315.942C117.79 316.216 118.571 316.45 119.352 316.723C119.938 320.512 119.704 324.379 119.743 328.208C119.743 328.989 119.743 329.77 119.313 330.473C118.962 330.317 118.61 330.161 118.258 330.004C115.602 328.676 113.532 326.528 111.227 324.692C110.876 324.419 110.602 324.028 110.681 323.52Z" fill="#428CFB"/>
<path d="M206.03 288.599C209.038 288.404 212.006 288.443 215.014 288.599C215.991 291.607 215.991 294.576 215.014 297.583C212.006 297.74 209.038 297.779 206.03 297.583C206.03 294.615 206.03 291.607 206.03 288.599Z" fill="#E8E8E9"/>
<path d="M205.639 359.301C201.186 359.34 196.694 359.379 192.241 359.418C189.585 358.832 188.14 356.879 188.452 354.262C188.726 351.957 190.64 350.395 193.179 350.356C196.147 350.316 199.116 350.316 202.085 350.277C203.296 349.535 204.507 349.574 205.718 350.316C206.46 353.285 206.733 356.293 205.639 359.301Z" fill="#DADADB"/>
<path d="M205.639 350.395C204.468 350.356 203.296 350.316 202.124 350.277C202.124 349.262 202.124 348.285 202.124 347.27C202.71 346.801 203.374 347.035 203.999 347.035C210.014 346.996 216.03 347.035 222.045 347.035C222.163 347.035 222.28 347.035 222.436 347.035C222.631 347.035 222.905 347.27 222.866 347.27C221.381 348.402 224.389 349.574 222.827 350.707C221.459 351.059 220.092 350.902 218.725 350.902C215.053 351.02 211.342 350.941 207.671 350.941C206.928 350.941 206.225 350.902 205.639 350.395Z" fill="#1A1F59"/>
<path d="M201.733 359.769C208.882 359.769 216.069 359.769 223.217 359.769C223.959 360.668 223.842 361.566 223.217 362.504C216.069 362.699 208.882 362.699 201.733 362.504C201.733 361.566 201.733 360.668 201.733 359.769Z" fill="#1A1F5A"/>
<path d="M222.826 347.27C215.912 347.27 209.038 347.27 202.124 347.27C200.288 347.231 198.452 347.192 196.655 347.153C196.655 347.036 196.694 346.918 196.733 346.801C204.272 346.801 211.811 346.801 219.35 346.801C221.967 346.801 224.545 346.84 227.162 346.84C227.279 347.075 227.24 347.309 226.967 347.426C225.561 347.895 224.154 348.051 222.826 347.27Z" fill="#68A3FA"/>
<path d="M249.818 319.536C251.381 319.497 252.904 319.458 254.466 319.419C261.615 319.458 268.802 319.497 275.95 319.536C275.95 322.505 275.95 325.473 275.95 328.442C270.091 328.442 264.232 328.442 258.373 328.481C257.357 326.919 257.787 325.239 257.982 323.559C258.294 320.669 258.177 320.473 255.209 320.473C253.998 320.473 252.748 320.552 251.537 320.434C250.834 320.356 250.013 320.512 249.818 319.536Z" fill="#EDEDED"/>
<path d="M249.818 319.536C251.966 320.239 254.193 319.77 256.341 319.849C258.685 319.927 259.193 320.317 258.685 322.661C258.255 324.614 258.451 326.528 258.372 328.481C253.959 328.481 249.505 328.481 245.092 328.481C244.427 327.739 244.467 326.801 244.506 325.903C244.584 323.794 244.232 321.645 244.701 319.536C246.42 319.536 248.099 319.536 249.818 319.536Z" fill="#E9E9E9"/>
<path d="M244.701 319.536C245.521 322.466 244.857 325.512 245.092 328.481C242.553 328.481 240.013 328.403 237.514 328.52C235.951 328.598 235.521 327.934 235.756 326.567C235.834 325.981 235.99 325.434 236.068 324.848C236.615 321.724 235.717 320.474 232.475 320.044C234.154 319.497 235.795 320.317 237.24 319.497C239.74 319.536 242.24 319.536 244.701 319.536Z" fill="#E5E5E5"/>
<path d="M199.077 210.32C198.57 209.5 198.531 209.031 198.804 208.484C199.195 209.031 198.882 209.617 199.077 210.32Z" fill="#F4A5A0"/>
<path d="M270.833 273.092C273.411 274.107 274.818 275.826 274.739 277.818C274.661 279.771 273.372 281.295 271.302 281.998C266.771 282.857 262.201 282.74 257.63 282.154C257.005 281.568 256.966 280.748 257.006 280.006C257.084 277.779 256.693 275.514 257.201 273.287C257.982 272.662 258.92 272.857 259.818 272.857C263.49 272.818 267.162 272.779 270.833 273.092Z" fill="#D5D6D7"/>
<path d="M270.833 273.092C269.505 273.756 268.06 273.365 266.654 273.365C263.49 273.443 260.326 273.404 257.201 273.404C255.951 274.381 254.466 273.912 253.099 273.99C251.029 274.107 250.873 274.263 250.756 276.373C250.638 278.248 251.224 280.24 250.248 282.037C247.787 282.466 245.248 281.881 242.748 282.349C242.475 282.349 242.201 282.349 241.967 282.349C241.029 281.138 241.459 279.732 241.42 278.404C241.381 277.388 241.146 276.334 241.186 275.318C241.225 274.459 241.537 273.678 242.318 273.17C244.154 272.467 246.107 273.209 247.943 272.584C249.506 272.31 251.107 272.467 252.709 272.428C257.396 272.31 262.083 272.389 266.771 272.389C267.552 272.389 268.333 272.428 268.997 272.974C269.544 272.974 270.208 273.014 270.833 273.092Z" fill="#DBDCDD"/>
<path d="M268.919 272.936C263.45 272.936 257.981 272.936 252.513 272.936C251.654 271.217 253.099 270.866 254.075 270.241C257.317 270.241 260.599 270.241 263.841 270.241C264.7 270.983 265.716 270.67 266.614 270.592C268.45 270.475 269.192 271.178 268.919 272.936Z" fill="#80ADF1"/>
<path d="M268.92 285.084C264.857 285.084 260.795 285.084 256.693 285.084C254.193 285.084 253.998 284.81 254.857 282.388C255.209 281.92 255.717 281.802 256.264 281.842C260.678 282.467 265.131 281.998 269.584 282.154C269.818 282.154 269.935 282.271 270.091 282.388C270.521 283.638 268.802 283.99 268.92 285.084Z" fill="#80ADF2"/>
<path d="M270.091 282.427C265.013 282.427 259.935 282.427 254.857 282.427C250.833 282.388 246.771 282.388 242.748 282.349C245.169 281.568 247.708 282.193 250.169 281.998C252.63 281.021 255.13 281.021 257.591 281.998C262.161 281.998 266.731 281.998 271.302 281.998C270.989 282.427 270.52 282.349 270.091 282.427Z" fill="#D6DCE5"/>
<path d="M230.248 300.669C234.154 300.708 238.06 300.747 241.967 300.786C242.787 302.271 241.889 303.052 240.795 303.794C238.178 303.833 235.6 303.872 232.982 303.872C232.787 304.302 232.475 304.614 232.084 304.888C230.522 305.982 229.584 307.349 230.092 309.341C230.6 311.333 232.045 312.31 233.959 312.661C234.545 312.7 235.131 312.7 235.678 313.013C236.732 314.146 236.186 315.044 235.326 315.942C229.74 315.942 224.115 315.942 218.53 315.942C217.436 314.146 217.67 312.935 219.311 311.958C219.702 311.724 220.17 311.489 220.248 311.06C220.405 309.732 221.42 308.833 221.811 307.622C221.85 307.427 221.928 307.271 222.006 307.114C223.334 304.849 222.983 303.052 220.912 301.45C220.678 301.294 220.678 301.021 220.912 300.786C223.998 300.747 227.123 300.708 230.248 300.669Z" fill="#93BAF7"/>
<path d="M220.873 300.786C221.772 301.294 222.67 301.372 222.748 303.013C222.787 303.95 223.334 305.005 223.139 306.216C222.983 306.997 222.514 307.075 222.006 307.349C221.225 306.607 221.772 305.708 221.537 304.966C221.694 305.786 220.99 306.763 222.006 307.349C222.123 307.974 222.709 308.638 221.576 308.989C221.147 309.146 220.912 309.927 220.912 310.513C220.912 311.606 220.326 312.153 219.311 312.466C218.334 312.739 218.178 313.833 218.569 315.981C214.155 315.981 209.702 315.981 205.288 315.981C206.928 311.567 209.663 307.661 211.616 303.364C211.967 302.544 212.475 301.763 212.319 300.786C215.131 300.786 218.022 300.786 220.873 300.786Z" fill="#8FB7F6"/>
<path d="M222.046 288.599C224.663 288.443 227.241 288.443 229.858 288.599C230.834 291.607 230.834 294.576 229.858 297.584C227.241 297.74 224.663 297.74 222.046 297.584C221.069 294.615 221.069 291.607 222.046 288.599Z" fill="#E2E3E3"/>
<path d="M236.889 288.599C239.506 288.599 242.084 288.599 244.701 288.599C245.678 291.607 245.678 294.576 244.701 297.583C242.084 297.74 239.506 297.74 236.889 297.583C235.912 294.615 235.912 291.607 236.889 288.599Z" fill="#DCDCDD"/>
<path d="M244.701 297.622C244.701 294.615 244.701 291.646 244.701 288.638C247.162 288.638 249.662 288.638 252.123 288.638C252.123 291.646 252.123 294.615 252.123 297.622C249.662 297.622 247.162 297.622 244.701 297.622Z" fill="#D9DADB"/>
<path d="M222.045 288.599C222.045 291.607 222.045 294.615 222.045 297.583C219.702 297.74 217.358 297.74 215.014 297.583C215.014 294.576 215.014 291.607 215.014 288.599C217.358 288.599 219.702 288.599 222.045 288.599Z" fill="#E6E6E6"/>
<path d="M236.888 288.599C236.888 291.607 236.888 294.615 236.888 297.583C234.545 297.74 232.201 297.74 229.857 297.583C229.857 294.576 229.857 291.607 229.857 288.599C232.201 288.599 234.545 288.599 236.888 288.599Z" fill="#DFE0E0"/>
<path d="M222.866 298.052C222.866 298.794 222.866 299.575 222.827 300.318C215.874 300.318 208.921 300.318 202.007 300.318C201.226 300.318 200.249 300.63 200.171 299.224C200.132 297.74 201.148 297.974 202.007 297.974C208.96 298.013 215.913 298.052 222.866 298.052Z" fill="#222763"/>
<path d="M223.217 362.504C223.217 361.605 223.217 360.707 223.217 359.769C230.131 359.769 237.006 359.769 243.92 359.769C243.92 360.668 243.92 361.566 243.92 362.504C237.006 362.66 230.131 362.699 223.217 362.504Z" fill="#1D225F"/>
<path d="M235.717 313.247C235.092 313.208 234.427 313.208 233.802 313.169C234.349 311.802 235.521 312.427 236.459 312.271C237.435 312.232 238.412 312.271 239.349 312.271C241.615 312.271 241.615 312.232 242.005 309.927C242.162 308.95 242.201 308.013 242.201 307.036C242.201 305.747 242.709 304.771 243.919 304.263C245.99 304.263 248.099 304.263 250.169 304.263C250.911 305.122 250.755 306.177 250.716 307.193C250.677 308.091 250.443 308.95 250.404 309.888C250.247 312.974 250.247 312.974 247.357 313.716C244.037 314.028 240.677 313.833 237.357 313.833C236.732 313.794 236.185 313.638 235.717 313.247Z" fill="#E1E2E2"/>
<path d="M247.435 313.169C249.857 313.052 249.857 311.489 249.818 309.654C249.818 307.857 250.287 306.06 250.169 304.263C252.513 304.263 254.857 304.263 257.2 304.263C257.63 304.732 257.786 305.279 257.747 305.865C257.552 308.208 257.786 310.63 256.81 312.857C256.81 312.974 256.81 313.091 256.81 313.208C256.497 313.599 256.068 313.794 255.638 313.794C252.904 313.638 250.091 314.536 247.435 313.169Z" fill="#E6E6E6"/>
<path d="M247.435 313.169C250.56 313.169 253.685 313.169 256.81 313.169C258.607 313.208 260.443 313.208 262.24 313.247C261.576 313.95 260.56 313.755 259.857 313.716C258.06 313.56 257.63 314.653 257.201 315.942C249.896 315.942 242.631 315.942 235.326 315.942C235.443 315.044 236.186 314.224 235.717 313.247C239.623 313.247 243.529 313.208 247.435 313.169Z" fill="#9ABEF9"/>
<path d="M236.498 312.817C235.6 312.974 234.623 312.466 233.803 313.169C230.951 312.349 229.623 310.942 229.506 308.638C229.389 306.099 230.951 304.771 233.022 303.872C234.662 304.654 236.381 304.029 238.061 304.224C237.436 306.216 237.397 308.286 237.436 310.357C237.436 311.294 237.279 312.192 236.498 312.817Z" fill="#DADBDC"/>
<path d="M256.81 312.857C256.927 310.005 257.083 307.115 257.201 304.263C258.099 304.263 259.036 304.263 259.935 304.263C264.661 304.224 263.841 304.849 263.802 308.833C263.802 308.911 263.802 308.99 263.763 309.029C263.138 310.161 264.075 311.802 263.138 312.544C262.044 313.404 260.365 312.779 258.958 312.857C258.255 312.857 257.513 312.857 256.81 312.857Z" fill="#E9E9EA"/>
<path d="M236.498 312.818C237.162 310.943 236.889 309.029 236.849 307.115C236.849 305.943 237.123 304.966 238.021 304.224C239.974 304.224 241.927 304.224 243.881 304.224C242.943 305.201 242.513 306.333 242.709 307.7C242.943 309.146 242.24 310.474 242.279 311.919C242.318 312.739 241.693 312.818 241.068 312.818C239.584 312.818 238.06 312.818 236.498 312.818Z" fill="#DDDDDE"/>
<path d="M240.794 303.794C241.185 302.779 242.201 302.036 241.966 300.786C245.99 300.786 250.052 300.786 254.075 300.786C254.114 301.958 253.333 302.818 252.903 303.794C248.88 303.794 244.857 303.794 240.794 303.794Z" fill="#98BDF9"/>
<path d="M247.826 273.053C246.029 273.756 244.193 273.209 242.357 273.405C241.107 274.264 239.701 273.912 238.373 273.951C237.318 273.99 236.303 273.951 235.248 273.99C234.428 274.03 233.568 274.264 233.373 275.123C232.904 276.959 233.022 278.873 233.334 280.709C233.49 281.607 234.467 281.295 235.17 281.451C236.147 281.647 237.436 280.943 238.022 282.35C237.123 282.389 236.225 282.389 235.326 282.428C234.936 282.857 234.428 282.936 233.92 282.975C230.639 282.975 227.397 283.209 224.116 282.818C223.881 282.74 223.647 282.623 223.452 282.467C222.436 279.693 223.178 276.842 222.944 274.029C222.866 273.365 223.491 273.053 224.116 272.975C224.741 272.897 225.405 272.78 226.03 272.623C229.272 272.311 232.514 272.467 235.756 272.506C239.076 272.389 242.357 272.467 245.678 272.467C246.42 272.389 247.24 272.35 247.826 273.053Z" fill="#E3E4E4"/>
<path d="M238.021 282.31C236.732 281.607 235.365 282.037 234.037 281.998C232.943 281.959 232.553 281.607 232.553 280.514C232.553 278.912 232.514 277.271 232.475 275.67C232.435 274.459 233.139 273.326 234.74 273.365C237.279 273.404 239.779 273.365 242.318 273.365C241.693 274.381 241.615 275.397 241.81 276.686C242.123 278.521 241.927 280.435 241.927 282.31C240.638 282.31 239.349 282.31 238.021 282.31Z" fill="#DFE0E0"/>
<path d="M223.998 282.388C227.787 282.388 231.537 282.388 235.326 282.388C236.147 284.849 235.99 285.045 233.49 285.084C232.944 285.084 232.319 284.927 231.85 285.396C229.233 285.396 226.616 285.396 223.998 285.396C223.256 284.42 223.959 283.404 223.998 282.388Z" fill="#8FB6F6"/>
<path d="M253.959 284.537C253.998 285.123 253.49 284.849 253.295 284.849C252.396 284.928 252.748 284.185 252.709 283.795C252.67 283.521 252.631 282.974 253.256 283.092C254.076 283.287 253.256 284.303 253.959 284.537Z" fill="#80ADF2"/>
<path d="M266.185 350.395C266.185 353.324 266.185 356.293 266.224 359.223C261.38 359.223 256.576 359.262 251.732 359.262C250.639 356.332 250.99 353.402 251.498 350.434C251.771 350.082 252.123 350.043 252.513 350.238C257.084 350.317 261.615 350.356 266.185 350.395Z" fill="#EAEAEB"/>
<path d="M252.513 350.278C252.24 350.317 252.005 350.356 251.732 350.395C251.146 350.903 250.404 350.942 249.701 350.942C246.263 350.942 242.826 351.02 239.388 350.903C238.607 350.903 237.826 350.942 237.162 350.395C236.537 349.301 236.498 348.207 237.24 347.114C240.521 346.957 243.763 346.918 247.045 347.153C248.373 347.192 249.662 347.231 250.99 347.27C252.591 347.699 252.591 348.949 252.513 350.278Z" fill="#1F2462"/>
<path d="M231.811 344.145C231.03 344.106 230.249 344.067 229.467 344.028C228.608 343.285 227.202 344.301 226.616 343.364C225.952 342.27 226.46 340.864 226.382 339.575C226.343 339.262 226.382 338.95 226.382 338.598C226.382 335.083 226.382 335.083 222.866 335.083C222.358 335.043 221.772 335.239 221.343 334.77C224.35 334.77 227.319 334.77 230.327 334.77C230.991 335.161 231.85 334.536 232.436 335.239C232.592 337.192 232.436 339.106 232.397 341.059C232.397 342.543 232.905 343.207 234.428 343.129C235.327 343.051 236.225 343.051 237.163 343.207C237.592 343.325 238.061 343.403 238.1 343.989C237.866 344.028 237.592 344.067 237.358 344.106C235.444 345.004 233.647 345.004 231.811 344.145Z" fill="#E2E3E3"/>
<path d="M238.099 259.03C239.232 257.702 240.794 257.467 242.396 257.428C245.638 257.389 248.88 257.389 252.083 257.35C256.732 257.35 261.419 257.389 266.067 257.389C266.106 257.467 266.145 257.584 266.184 257.663C266.067 257.702 265.911 257.741 265.794 257.819C264.427 258.639 262.942 258.288 261.497 258.327C259.935 258.366 258.372 258.366 256.81 258.327C255.286 258.366 253.763 258.366 252.279 258.327C247.943 258.327 248.45 257.975 247.669 262.194C247.396 263.717 247.513 265.319 246.615 266.686C244.896 266.725 243.216 266.764 241.498 266.803C240.521 267.467 239.857 266.881 239.193 266.256C236.615 263.522 236.42 262.194 238.099 259.03Z" fill="#D5D6D7"/>
<path d="M205.64 350.395C210.054 350.395 214.507 350.395 218.921 350.395C219.897 353.363 219.897 356.332 218.921 359.301C214.507 359.301 210.054 359.301 205.64 359.301C205.64 356.332 205.64 353.363 205.64 350.395Z" fill="#DEDFDF"/>
<path d="M239.233 350.395C243.412 350.395 247.553 350.395 251.732 350.395C251.732 353.363 251.732 356.332 251.732 359.301C247.436 359.301 243.139 359.301 238.842 359.301C238.608 359.066 238.412 358.793 238.412 358.481C238.256 355.746 238.334 353.012 239.233 350.395Z" fill="#E6E7E7"/>
<path d="M239.232 350.395C239.115 353.364 238.959 356.332 238.842 359.262C234.935 359.262 231.029 359.262 227.123 359.262C226.029 356.254 226.264 353.246 227.006 350.239C229.35 349.184 231.85 349.887 234.271 349.731C235.287 349.653 236.342 349.575 237.24 350.278C237.943 350.317 238.568 350.356 239.232 350.395Z" fill="#E3E4E4"/>
<path d="M227.123 350.395C227.123 353.363 227.123 356.332 227.123 359.262C224.389 359.262 221.654 359.262 218.92 359.262C218.92 356.293 218.92 353.324 218.92 350.356C220.365 350.317 221.772 350.278 223.217 350.239C224.545 349.535 225.834 349.457 227.123 350.395Z" fill="#E1E2E2"/>
<path d="M252.123 267.154C255.365 267.154 258.646 267.154 261.888 267.154C262.279 268.053 262.669 268.912 263.021 269.811C259.388 269.811 255.755 269.811 252.084 269.811C251.42 268.951 251.459 268.053 252.123 267.154Z" fill="#2376DE"/>
<path d="M247.826 273.053C243.803 273.014 239.74 272.974 235.717 272.974C235.092 272.076 234.467 271.178 233.217 271.021C232.826 270.982 232.24 270.787 232.67 270.123C233.92 269.967 235.209 270.279 236.42 269.928C236.85 270.123 237.24 270.123 237.67 269.928C238.256 270.514 238.998 270.279 239.701 270.279C244.467 270.318 249.271 270.279 254.037 270.279C253.49 271.178 252.24 271.646 252.474 272.974C250.951 272.974 249.388 273.014 247.826 273.053Z" fill="#88B2F3"/>
<path d="M252.123 267.154C252.123 268.053 252.123 268.912 252.123 269.811C247.553 269.811 243.021 269.811 238.451 269.811C239.506 268.795 239.623 267.584 239.232 266.256C240.014 266.451 240.756 266.647 241.537 266.803C243.92 267.467 246.381 266.959 248.802 267.115C249.935 267.194 251.029 267.154 252.123 267.154Z" fill="#297AE4"/>
<path d="M247.045 347.153C243.803 347.192 240.522 347.231 237.279 347.27C233.881 348.129 230.483 348.325 227.123 347.153C227.123 347.035 227.123 346.957 227.123 346.84C228.686 346.84 230.248 346.84 231.811 346.801C233.764 345.864 235.717 345.903 237.67 346.801C240.795 346.801 243.92 346.84 247.045 346.84C247.045 346.957 247.045 347.035 247.045 347.153Z" fill="#5F9CEF"/>
<path d="M261.498 257.819C262.943 257.819 264.388 257.819 265.834 257.858C265.834 260.788 265.794 263.756 265.794 266.686C263.959 266.686 262.123 266.686 260.326 266.686C260.091 266.451 259.857 266.178 259.896 265.826C260.17 263.092 260.248 260.319 261.498 257.819Z" fill="#E5E5E5"/>
<path d="M252.123 257.78C253.685 257.78 255.248 257.78 256.81 257.78C257.045 258.014 257.24 258.327 257.201 258.639C256.888 261.373 256.81 264.108 255.638 266.686C253.959 266.686 252.24 266.686 250.56 266.686C250.404 263.6 250.521 260.553 252.123 257.78Z" fill="#DDDDDE"/>
<path d="M255.638 266.686C255.638 263.678 256.693 260.788 256.81 257.819C258.372 257.819 259.935 257.819 261.497 257.819C261.38 260.827 260.326 263.678 260.326 266.686C258.763 266.686 257.201 266.686 255.638 266.686Z" fill="#E1E2E2"/>
<path d="M252.123 257.78C251.615 260.748 251.068 263.717 250.56 266.686C249.271 266.686 247.943 266.686 246.654 266.686C246.537 264.225 247.357 261.842 247.592 259.42C247.748 258.053 248.451 257.545 249.779 257.74C250.56 257.858 251.341 257.78 252.123 257.78Z" fill="#D8D9DA"/>
<path d="M204.858 269.811C205.522 269.85 206.147 269.889 206.811 269.928C206.889 270.201 206.811 270.397 206.577 270.514C202.67 271.022 198.803 271.1 194.897 270.475C194.663 270.318 194.585 270.123 194.741 269.85C194.858 269.733 194.975 269.615 195.092 269.459C198.295 270.201 201.577 269.772 204.858 269.811Z" fill="#ABCAFB"/>
<path d="M194.702 269.889C194.702 270.006 194.702 270.162 194.702 270.279C195.249 272.193 196.616 272.545 198.452 272.428C200.952 272.31 203.491 272.389 206.03 272.389C206.811 272.389 207.592 272.35 208.296 272.818C207.085 275.357 207.397 278.092 207.475 280.787C207.475 281.959 206.967 282.467 205.874 282.467C205.171 282.467 204.468 282.506 203.764 282.74C201.772 283.052 199.741 282.974 197.749 282.857C196.226 282.779 195.288 283.287 194.976 284.81C194.897 284.888 194.819 284.966 194.741 285.045C194.624 285.045 194.468 285.006 194.351 285.006C194.351 284.615 194.429 284.224 194.351 283.834C194.194 282.467 194.624 281.685 196.147 281.92C197.515 282.115 197.983 281.529 197.905 280.162C197.788 278.365 197.866 276.529 197.905 274.693C197.944 273.717 197.593 273.326 196.577 273.287C194.038 273.248 193.726 272.506 194.702 269.889Z" fill="#EDEDED"/>
<path d="M223.998 282.388C224.74 283.404 223.842 284.38 223.998 285.396C217.631 285.435 211.225 285.474 204.858 285.513C201.459 285.474 198.1 285.435 194.702 285.396C194.702 285.279 194.702 285.162 194.702 285.084C195.483 284.419 196.381 284.537 197.28 284.537C200.952 284.498 204.662 284.576 208.334 284.498C209.389 284.459 210.365 284.38 210.912 283.209C211.42 282.115 212.67 282.271 213.608 281.92C216.342 281.685 219.115 281.88 221.85 281.802C222.475 281.763 223.061 281.88 223.568 282.31C223.725 282.349 223.881 282.388 223.998 282.388Z" fill="#94BAF8"/>
<path d="M206.811 270.24C206.811 270.123 206.811 270.006 206.811 269.889C208.1 269.85 209.428 269.811 210.717 269.772C212.553 269.772 214.35 269.772 216.186 269.772C218.139 269.772 220.092 269.772 222.045 269.772C224.897 269.772 227.787 269.772 230.639 269.772C232.592 269.811 234.506 269.85 236.459 269.85C235.209 270.553 233.881 270.045 232.592 270.201C232.006 270.826 231.185 270.787 230.404 270.787C227.514 270.787 224.584 270.865 221.693 270.748C218.178 270.826 214.701 270.787 211.186 270.748C209.702 270.748 208.139 271.256 206.811 270.24Z" fill="#9EC1F6"/>
<path d="M232.201 335.122C231.537 335.044 230.834 335.356 230.287 334.809C230.678 334.77 231.068 334.731 231.42 334.692C233.49 334.692 235.6 334.692 237.67 334.692C241.849 335.59 243.607 338.754 241.693 341.957C240.873 343.325 239.623 343.989 238.021 344.067C237.787 343.95 237.514 343.871 237.279 343.754C236.225 342.231 236.771 340.512 236.693 338.872C236.576 336.528 237.084 335.512 233.803 335.708C233.217 335.708 232.67 335.512 232.201 335.122Z" fill="#DADBDC"/>
<path d="M237.67 346.801C235.716 346.801 233.763 346.801 231.81 346.801C231.224 345.903 231.576 345.043 231.81 344.145C233.646 344.145 235.482 344.145 237.318 344.145C237.826 344.965 237.63 345.903 237.67 346.801Z" fill="#3785F1"/>
<path d="M227.123 347.153C230.521 347.192 233.881 347.231 237.279 347.27C237.279 348.285 237.279 349.262 237.279 350.278C233.881 350.317 230.521 350.356 227.123 350.395C225.834 350.356 224.506 350.317 223.217 350.278C222.084 349.418 220.99 348.559 222.826 347.27C224.233 347.231 225.678 347.192 227.123 347.153Z" fill="#1C215E"/>
<path d="M257.591 281.959C255.13 281.959 252.63 281.959 250.169 281.959C250.169 279.693 250.208 277.428 250.169 275.162C250.13 273.834 250.638 273.287 252.005 273.326C253.763 273.404 255.481 273.326 257.239 273.326C258.02 276.217 257.395 279.107 257.591 281.959Z" fill="#D8D9DA"/>
<path d="M220.327 303.521C222.67 304.497 221.42 306.255 222.045 307.388C221.928 307.427 221.811 307.505 221.694 307.505C221.225 307.583 221.147 307.154 221.108 306.919C220.991 305.865 221.303 304.81 220.327 303.521Z" fill="#93BAF7"/>
<path d="M223.607 282.31C223.061 282.31 222.553 282.31 222.006 282.31C220.209 281.998 218.373 282.232 216.576 282.154C215.912 282.115 215.092 282.154 215.014 281.334C214.74 278.56 214.233 275.787 215.639 273.17C215.717 273.014 215.912 272.896 216.068 272.779C217.865 272.076 219.74 272.467 221.615 272.428C223.061 272.506 224.623 271.998 225.912 273.053C223.412 273.053 223.295 274.537 223.529 276.529C223.764 278.443 223.607 280.396 223.607 282.31Z" fill="#E6E6E6"/>
<path d="M225.951 273.053C224.506 273.013 223.1 272.974 221.655 272.974C220.952 272.076 220.991 271.178 221.655 270.279C225.287 270.279 228.959 270.279 232.592 270.279C232.865 270.631 233.217 270.67 233.647 270.67C235.248 270.592 235.834 271.49 235.756 272.974C232.475 272.974 229.194 273.013 225.951 273.053Z" fill="#8FB7F6"/>
<path d="M232.201 335.122C237.279 335.122 237.279 335.122 237.279 340.239C237.279 341.411 237.279 342.543 237.279 343.715C235.56 343.598 233.334 344.457 232.24 343.364C231.029 342.192 232.006 339.926 231.811 338.169C231.693 337.114 231.928 336.098 232.201 335.122Z" fill="#DEDFDF"/>
<path d="M206.811 270.241C208.256 270.241 209.663 270.241 211.108 270.241C212.475 270.866 213.139 271.764 212.123 273.209C210.834 273.639 209.545 273.834 208.334 273.014C204.663 273.014 200.991 272.975 197.319 272.975C194.624 272.975 194.624 272.975 194.702 270.241C198.725 270.28 202.788 270.241 206.811 270.241Z" fill="#9ABFFA"/>
<path d="M208.335 273.053C209.663 273.014 210.952 273.014 212.28 272.975C213.608 272.233 214.897 272.154 216.186 273.053C214.858 275.631 215.561 278.404 215.444 281.1C215.405 282.076 216.225 281.92 216.85 281.998C218.569 282.154 220.327 281.607 222.006 282.311C219.155 282.35 216.303 282.35 213.452 282.389C210.991 282.896 208.53 283.092 206.03 282.975C205.21 282.935 204.35 283.014 203.686 282.311C203.804 282.232 203.882 282.154 203.999 282.076C204.936 281.646 206.343 282.584 206.811 281.568C207.202 280.748 206.811 279.537 206.811 278.522C206.811 277.467 206.929 276.412 206.772 275.397C206.577 274.069 207.163 273.404 208.335 273.053Z" fill="#E9E9EA"/>
<path d="M203.686 282.31C206.928 282.349 210.21 282.349 213.452 282.388C212.553 282.935 210.991 282.623 211.069 284.459C211.108 284.849 210.366 285.045 209.78 285.045C204.741 285.045 199.702 285.084 194.663 285.084C194.663 282.037 194.351 282.388 197.476 282.349C199.585 282.349 201.616 282.349 203.686 282.31Z" fill="#9BBFFA"/>
<path d="M216.186 273.053C214.897 273.013 213.569 273.013 212.28 272.974C212.241 271.92 211.928 270.982 211.108 270.279C214.623 270.279 218.139 270.279 221.654 270.279C221.654 271.178 221.654 272.076 221.654 272.974C219.819 272.974 218.022 273.013 216.186 273.053Z" fill="#95BAF8"/>
<path fill-rule="evenodd" clip-rule="evenodd" d="M301.727 289.043C280.848 283.448 268.457 261.987 274.052 241.108L282.648 209.025C288.243 188.146 309.704 175.755 330.583 181.35C351.463 186.944 363.853 208.405 358.259 229.285L356.778 234.809L363.513 248.122L350.902 256.74L349.662 261.368C344.068 282.247 322.606 294.638 301.727 289.043Z" fill="#EDEDED"/>
<rect opacity="0.2" x="295.491" y="260.761" width="49.601" height="3.95052" rx="1.97526" transform="rotate(-75 295.491 260.761)" fill="#EF4752"/>
<path opacity="0.2" fill-rule="evenodd" clip-rule="evenodd" d="M307.575 264.001C306.521 263.718 305.896 262.635 306.178 261.581L317.994 217.486C318.276 216.433 319.359 215.807 320.413 216.09C321.467 216.372 322.092 217.455 321.81 218.509L309.994 262.604C309.712 263.658 308.629 264.283 307.575 264.001Z" fill="#EF4752"/>
<path opacity="0.2" fill-rule="evenodd" clip-rule="evenodd" d="M317.751 266.727C316.697 266.445 316.072 265.362 316.354 264.308L322.134 242.737C322.417 241.683 323.5 241.058 324.553 241.34C325.607 241.623 326.232 242.706 325.95 243.76L320.17 265.331C319.888 266.384 318.805 267.01 317.751 266.727Z" fill="#EF4752"/>
<path d="M214.181 142.695C214.258 143.569 214.066 144.363 213.717 144.939C213.368 145.515 212.886 145.842 212.373 145.888C211.859 145.933 211.328 145.695 210.883 145.189C210.438 144.684 210.11 143.936 210.032 143.062C209.955 142.187 210.147 141.393 210.496 140.817C210.845 140.241 211.327 139.914 211.84 139.869C212.354 139.823 212.886 140.061 213.33 140.567C213.775 141.072 214.104 141.821 214.181 142.695Z" stroke="#3582EE" stroke-width="1.00711"/>
<path d="M221.659 144.445C221.743 145.395 221.534 146.26 221.153 146.889C220.772 147.518 220.242 147.881 219.673 147.931C219.104 147.981 218.519 147.717 218.034 147.165C217.548 146.613 217.191 145.798 217.107 144.847C217.023 143.897 217.232 143.032 217.613 142.403C217.994 141.774 218.523 141.412 219.092 141.361C219.661 141.311 220.247 141.575 220.732 142.128C221.218 142.68 221.575 143.495 221.659 144.445Z" stroke="#3582EE" stroke-width="1.00711"/>
<path d="M214.507 143.168L216.773 143.671" stroke="#3582EE" stroke-width="1.00711"/>
<circle cx="87.3596" cy="337.54" r="25.6813" fill="#FFC23C"/>
<defs>
<linearGradient id="paint0_linear" x1="163.721" y1="122.4" x2="381.189" y2="505.325" gradientUnits="userSpaceOnUse">
<stop stop-color="#FFFAEC"/>
<stop offset="1" stop-color="#F0E9FB"/>
</linearGradient>
</defs>
</svg>
