<svg width="440" height="487" viewBox="0 0 440 487" fill="none" xmlns="http://www.w3.org/2000/svg">
<rect width="440" height="487" rx="12" fill="url(#paint0_linear)"/>
<g filter="url(#filter0_d)">
<path fill-rule="evenodd" clip-rule="evenodd" d="M239.532 139.01C260.547 139.024 287.24 137.84 306.819 155.723C325.456 175.569 323.591 201.651 323.641 222.577V263.432C323.591 284.15 325.26 312.533 306.819 332.144C287.436 350.074 260.547 346.774 239.532 347H198.412C177.492 346.774 149.49 350.09 131.126 332.144C111.668 312.518 114.448 284.15 114.304 263.432V222.577C114.448 201.651 111.663 175.491 131.126 155.723C149.494 137.919 177.492 139.024 198.412 139.01H239.532Z" fill="#E2E2E2"/>
</g>
<path d="M260.094 248.827C260.522 272.125 241.92 291.165 218.974 290.786C196.028 291.165 177.426 272.125 177.854 248.827C177.426 243.475 173.338 239.29 168.509 239.29C163.251 239.29 159.163 243.475 159.163 248.827C159.163 282.449 185.941 309.859 218.974 309.859C252.006 309.859 278.784 282.449 278.784 248.827C278.784 243.475 274.696 239.29 269.439 239.29C264.61 239.29 260.522 243.475 260.094 248.827Z" fill="#6527D9"/>
<path fill-rule="evenodd" clip-rule="evenodd" d="M271.307 209.578C277.501 209.578 282.522 204.59 282.522 198.436C282.522 192.282 277.501 187.294 271.307 187.294C265.114 187.294 260.093 192.282 260.093 198.436C260.093 204.59 265.114 209.578 271.307 209.578Z" fill="#6527D9"/>
<g filter="url(#filter1_i)">
<path fill-rule="evenodd" clip-rule="evenodd" d="M239.532 139.01C260.547 139.024 287.24 137.84 306.819 155.723C325.456 175.569 323.591 201.651 323.641 222.577V263.432C323.591 284.15 325.26 312.533 306.819 332.144C287.436 350.074 260.547 346.774 239.532 347H198.412C177.492 346.774 149.49 350.09 131.126 332.144C111.668 312.518 114.448 284.15 114.304 263.432V222.577C114.448 201.651 111.663 175.491 131.126 155.723C149.494 137.919 177.492 139.024 198.412 139.01H239.532Z" fill="url(#paint1_linear)"/>
</g>
<path d="M260.094 248.827C260.522 272.125 241.92 291.165 218.974 290.786C196.028 291.165 177.426 272.125 177.854 248.827C177.426 243.475 173.338 239.29 168.509 239.29C163.251 239.29 159.163 243.475 159.163 248.827C159.163 282.449 185.941 309.859 218.974 309.859C252.006 309.859 278.784 282.449 278.784 248.827C278.784 243.475 274.696 239.29 269.439 239.29C264.61 239.29 260.522 243.475 260.094 248.827Z" fill="#6527D9"/>
<path fill-rule="evenodd" clip-rule="evenodd" d="M271.307 209.578C277.501 209.578 282.522 204.59 282.522 198.436C282.522 192.282 277.501 187.294 271.307 187.294C265.114 187.294 260.093 192.282 260.093 198.436C260.093 204.59 265.114 209.578 271.307 209.578Z" fill="#6527D9"/>
<path d="M131.124 155.723C111.662 175.49 114.447 201.65 114.303 222.577L198.411 139.009C177.491 139.024 149.493 137.918 131.124 155.723Z" fill="#FFC23C"/>
<path d="M144.51 183.616C144.927 184.055 144.908 184.747 144.468 185.162C143.735 185.853 142.702 186.131 141.72 185.9L126.617 182.351L135.533 191.743C136.044 192.282 136.021 193.132 135.48 193.642C134.94 194.152 134.087 194.128 133.576 193.589L122.469 181.889C121.809 181.193 121.839 180.096 122.537 179.439C122.961 179.038 123.56 178.877 124.129 179.01L139.948 182.717L131.006 173.297C130.494 172.758 130.518 171.908 131.058 171.398C131.599 170.888 132.451 170.912 132.963 171.451L144.51 183.616Z" fill="#F9F9F9"/>
<path d="M135.333 169.819C134.654 169.104 134.685 167.976 135.402 167.3L142.211 160.875C142.752 160.366 143.604 160.389 144.115 160.928C144.627 161.466 144.603 162.316 144.063 162.826L138.931 167.668C138.369 168.199 138.344 169.084 138.877 169.644L140.785 171.655C141.317 172.216 142.205 172.24 142.767 171.709L147.899 166.867C148.439 166.358 149.292 166.381 149.803 166.92C150.315 167.459 150.291 168.309 149.751 168.818L144.619 173.66C144.057 174.191 144.032 175.076 144.565 175.637L146.473 177.647C147.005 178.208 147.893 178.232 148.455 177.701L153.587 172.86C154.127 172.35 154.98 172.373 155.491 172.912C156.003 173.451 155.979 174.301 155.439 174.81L148.63 181.235C147.913 181.911 146.782 181.88 146.103 181.165L135.333 169.819Z" fill="#F9F9F9"/>
<path d="M159.287 146.243C158.947 145.703 159.037 145 159.5 144.563C160.115 143.983 161.107 144.109 161.557 144.823L170.073 158.352C170.682 159.319 170.521 160.58 169.69 161.365C168.954 162.058 167.861 162.218 166.957 161.763L159.442 157.984L162.802 165.688C163.206 166.613 162.985 167.691 162.251 168.384C161.418 169.169 160.145 169.259 159.21 168.598L146.143 159.366C145.453 158.878 145.382 157.884 145.996 157.304C146.46 156.866 147.17 156.816 147.692 157.184L159.92 165.801L155.985 156.81C155.68 156.114 155.846 155.302 156.399 154.779C156.953 154.257 157.776 154.137 158.456 154.479L167.244 158.891L159.287 146.243Z" fill="#F9F9F9"/>
<path d="M181.525 205.854C200.988 186.087 198.203 159.927 198.347 139L114.239 222.568C135.159 222.553 163.157 223.659 181.525 205.854Z" fill="url(#paint2_linear)"/>
<defs>
<filter id="filter0_d" x="107.95" y="138.998" width="222.013" height="220.69" filterUnits="userSpaceOnUse" color-interpolation-filters="sRGB">
<feFlood flood-opacity="0" result="BackgroundImageFix"/>
<feColorMatrix in="SourceAlpha" type="matrix" values="0 0 0 0 0 0 0 0 0 0 0 0 0 0 0 0 0 0 127 0"/>
<feOffset dy="6.29018"/>
<feGaussianBlur stdDeviation="3.14509"/>
<feColorMatrix type="matrix" values="0 0 0 0 0 0 0 0 0 0 0 0 0 0 0 0 0 0 0.21 0"/>
<feBlend mode="normal" in2="BackgroundImageFix" result="effect1_dropShadow"/>
<feBlend mode="normal" in="SourceGraphic" in2="effect1_dropShadow" result="shape"/>
</filter>
<filter id="filter1_i" x="114.24" y="134.225" width="209.432" height="212.882" filterUnits="userSpaceOnUse" color-interpolation-filters="sRGB">
<feFlood flood-opacity="0" result="BackgroundImageFix"/>
<feBlend mode="normal" in="SourceGraphic" in2="BackgroundImageFix" result="shape"/>
<feColorMatrix in="SourceAlpha" type="matrix" values="0 0 0 0 0 0 0 0 0 0 0 0 0 0 0 0 0 0 127 0" result="hardAlpha"/>
<feOffset dy="-4.77261"/>
<feGaussianBlur stdDeviation="9.54523"/>
<feComposite in2="hardAlpha" operator="arithmetic" k2="-1" k3="1"/>
<feColorMatrix type="matrix" values="0 0 0 0 0 0 0 0 0 0 0 0 0 0 0 0 0 0 0.1 0"/>
<feBlend mode="normal" in2="shape" result="effect1_innerShadow"/>
</filter>
<linearGradient id="paint0_linear" x1="163.721" y1="122.652" x2="381.866" y2="505.98" gradientUnits="userSpaceOnUse">
<stop stop-color="#FFEFEB"/>
<stop offset="1" stop-color="#FFFAEC"/>
</linearGradient>
<linearGradient id="paint1_linear" x1="23.4939" y1="203.918" x2="152.97" y2="412.764" gradientUnits="userSpaceOnUse">
<stop stop-color="white"/>
<stop offset="1" stop-color="#EDEDED"/>
</linearGradient>
<linearGradient id="paint2_linear" x1="177.238" y1="204.882" x2="150.525" y2="180.471" gradientUnits="userSpaceOnUse">
<stop stop-color="#EEEEEE"/>
<stop offset="1" stop-color="#F7F7F7"/>
</linearGradient>
</defs>
</svg>
