<svg width="280" height="310" viewBox="0 0 280 310" fill="none" xmlns="http://www.w3.org/2000/svg">
<rect width="280" height="310" rx="7.60909" fill="url(#paint0_linear)"/>
<g filter="url(#filter0_d)">
<path fill-rule="evenodd" clip-rule="evenodd" d="M152.431 88.4867C165.803 88.4961 182.79 87.7424 195.25 99.1257C207.109 111.758 205.923 128.361 205.954 141.682V167.688C205.923 180.876 206.984 198.943 195.25 211.426C182.915 222.84 165.803 220.739 152.431 220.883H126.263C112.951 220.739 95.1307 222.85 83.4445 211.426C71.0622 198.933 72.8315 180.876 72.7398 167.688V141.682C72.8315 128.361 71.0593 111.709 83.4445 99.1257C95.1336 87.7921 112.951 88.4961 126.263 88.4867H152.431Z" fill="#E2E2E2"/>
</g>
<path d="M165.514 158.39C165.786 173.221 153.949 185.341 139.347 185.1C124.745 185.341 112.907 173.221 113.18 158.39C112.907 154.984 110.306 152.32 107.233 152.32C103.887 152.32 101.286 154.984 101.286 158.39C101.286 179.793 118.326 197.24 139.347 197.24C160.368 197.24 177.408 179.793 177.408 158.39C177.408 154.984 174.806 152.32 171.461 152.32C168.388 152.32 165.786 154.984 165.514 158.39Z" fill="#6527D9"/>
<path fill-rule="evenodd" clip-rule="evenodd" d="M172.65 133.407C176.591 133.407 179.786 130.232 179.786 126.314C179.786 122.397 176.591 119.222 172.65 119.222C168.709 119.222 165.513 122.397 165.513 126.314C165.513 130.232 168.709 133.407 172.65 133.407Z" fill="#6527D9"/>
<g filter="url(#filter1_i)">
<path fill-rule="evenodd" clip-rule="evenodd" d="M152.431 88.4867C165.803 88.4961 182.79 87.7424 195.25 99.1257C207.109 111.758 205.923 128.361 205.954 141.682V167.688C205.923 180.876 206.984 198.943 195.25 211.426C182.915 222.84 165.803 220.739 152.431 220.883H126.263C112.951 220.739 95.1307 222.85 83.4445 211.426C71.0622 198.933 72.8315 180.876 72.7398 167.688V141.682C72.8315 128.361 71.0593 111.709 83.4445 99.1257C95.1336 87.7921 112.951 88.4961 126.263 88.4867H152.431Z" fill="url(#paint1_linear)"/>
</g>
<path d="M165.514 158.39C165.786 173.221 153.949 185.341 139.347 185.1C124.745 185.341 112.907 173.221 113.18 158.39C112.907 154.984 110.306 152.32 107.233 152.32C103.887 152.32 101.286 154.984 101.286 158.39C101.286 179.793 118.326 197.24 139.347 197.24C160.368 197.24 177.408 179.793 177.408 158.39C177.408 154.984 174.806 152.32 171.461 152.32C168.388 152.32 165.786 154.984 165.514 158.39Z" fill="#6527D9"/>
<path fill-rule="evenodd" clip-rule="evenodd" d="M172.65 133.407C176.591 133.407 179.786 130.232 179.786 126.314C179.786 122.397 176.591 119.222 172.65 119.222C168.709 119.222 165.513 122.397 165.513 126.314C165.513 130.232 168.709 133.407 172.65 133.407Z" fill="#6527D9"/>
<path d="M83.4427 99.1253C71.0575 111.708 72.8297 128.36 72.738 141.681L126.262 88.4863C112.949 88.4957 95.1318 87.7918 83.4427 99.1253Z" fill="#FFC23C"/>
<path d="M91.9611 116.881C92.2261 117.16 92.214 117.6 91.934 117.865C91.4676 118.305 90.8105 118.481 90.1855 118.335L80.5746 116.075L86.248 122.054C86.5735 122.397 86.5586 122.938 86.2147 123.263C85.8709 123.587 85.3282 123.572 85.0028 123.229L77.9349 115.781C77.5149 115.338 77.5342 114.64 77.9779 114.222C78.2481 113.966 78.6289 113.864 78.9912 113.949L89.0576 116.308L83.3674 110.312C83.0419 109.969 83.0569 109.428 83.4007 109.103C83.7446 108.779 84.2872 108.794 84.6127 109.137L91.9611 116.881Z" fill="#F9F9F9"/>
<path d="M86.1208 108.098C85.6891 107.643 85.7088 106.925 86.165 106.495L90.498 102.405C90.8419 102.081 91.3844 102.095 91.7098 102.438C92.0352 102.781 92.0203 103.322 91.6765 103.647L88.4108 106.729C88.0529 107.067 88.0374 107.63 88.3762 107.987L89.5905 109.267C89.9293 109.624 90.494 109.639 90.8519 109.301L94.1176 106.219C94.4614 105.895 95.004 105.91 95.3294 106.253C95.6548 106.596 95.6399 107.137 95.2961 107.461L92.0304 110.543C91.6725 110.881 91.657 111.444 91.9957 111.801L93.2101 113.081C93.5489 113.438 94.1136 113.454 94.4715 113.116L97.7372 110.034C98.081 109.709 98.6235 109.724 98.949 110.067C99.2744 110.41 99.2595 110.951 98.9157 111.275L94.5826 115.365C94.1265 115.795 93.4067 115.776 92.9749 115.321L86.1208 108.098Z" fill="#F9F9F9"/>
<path d="M101.364 93.0907C101.148 92.7473 101.205 92.2997 101.5 92.0212C101.891 91.6523 102.523 91.7323 102.809 92.1869L108.228 100.799C108.616 101.414 108.514 102.217 107.984 102.716C107.516 103.158 106.821 103.26 106.246 102.97L101.463 100.565L103.601 105.469C103.858 106.057 103.718 106.743 103.25 107.184C102.721 107.684 101.91 107.742 101.315 107.321L92.9999 101.444C92.5608 101.134 92.5158 100.501 92.9066 100.132C93.2019 99.8531 93.6535 99.821 93.9856 100.055L101.767 105.541L99.2631 99.8175C99.0691 99.3741 99.1746 98.8571 99.5269 98.5246C99.8792 98.1921 100.403 98.1156 100.836 98.3332L106.428 101.142L101.364 93.0907Z" fill="#F9F9F9"/>
<path d="M115.516 131.036C127.901 118.454 126.129 101.801 126.221 88.4805L72.6972 141.675C86.01 141.666 103.827 142.37 115.516 131.036Z" fill="url(#paint2_linear)"/>
<defs>
<filter id="filter0_d" x="68.7107" y="88.4792" width="141.252" height="140.449" filterUnits="userSpaceOnUse" color-interpolation-filters="sRGB">
<feFlood flood-opacity="0" result="BackgroundImageFix"/>
<feColorMatrix in="SourceAlpha" type="matrix" values="0 0 0 0 0 0 0 0 0 0 0 0 0 0 0 0 0 0 127 0"/>
<feOffset dy="3.98854"/>
<feGaussianBlur stdDeviation="1.99427"/>
<feColorMatrix type="matrix" values="0 0 0 0 0 0 0 0 0 0 0 0 0 0 0 0 0 0 0.21 0"/>
<feBlend mode="normal" in2="BackgroundImageFix" result="effect1_dropShadow"/>
<feBlend mode="normal" in="SourceGraphic" in2="effect1_dropShadow" result="shape"/>
</filter>
<filter id="filter1_i" x="72.6992" y="85.453" width="133.275" height="135.498" filterUnits="userSpaceOnUse" color-interpolation-filters="sRGB">
<feFlood flood-opacity="0" result="BackgroundImageFix"/>
<feBlend mode="normal" in="SourceGraphic" in2="BackgroundImageFix" result="shape"/>
<feColorMatrix in="SourceAlpha" type="matrix" values="0 0 0 0 0 0 0 0 0 0 0 0 0 0 0 0 0 0 127 0" result="hardAlpha"/>
<feOffset dy="-3.02627"/>
<feGaussianBlur stdDeviation="6.05254"/>
<feComposite in2="hardAlpha" operator="arithmetic" k2="-1" k3="1"/>
<feColorMatrix type="matrix" values="0 0 0 0 0 0 0 0 0 0 0 0 0 0 0 0 0 0 0.1 0"/>
<feBlend mode="normal" in2="shape" result="effect1_innerShadow"/>
</filter>
<linearGradient id="paint0_linear" x1="104.186" y1="78.0741" x2="243.067" y2="322.047" gradientUnits="userSpaceOnUse">
<stop stop-color="#FFEFEB"/>
<stop offset="1" stop-color="#FFFAEC"/>
</linearGradient>
<linearGradient id="paint1_linear" x1="14.9517" y1="129.804" x2="97.3804" y2="262.723" gradientUnits="userSpaceOnUse">
<stop stop-color="white"/>
<stop offset="1" stop-color="#EDEDED"/>
</linearGradient>
<linearGradient id="paint2_linear" x1="112.788" y1="130.418" x2="95.7843" y2="114.884" gradientUnits="userSpaceOnUse">
<stop stop-color="#EEEEEE"/>
<stop offset="1" stop-color="#F7F7F7"/>
</linearGradient>
</defs>
</svg>
